<svg width="55" height="55" viewBox="0 0 55 55" fill="none" xmlns="http://www.w3.org/2000/svg">
<path d="M30.25 5.5C35.3554 5.5 40.2517 7.52812 43.8618 11.1382C47.4719 14.7483 49.5 19.6446 49.5 24.75C49.5 25.4793 49.7897 26.1788 50.3054 26.6945C50.8212 27.2103 51.5206 27.5 52.25 27.5C52.9793 27.5 53.6788 27.2103 54.1945 26.6945C54.7103 26.1788 55 25.4793 55 24.75C55 18.1859 52.3924 11.8906 47.7509 7.24911C43.1094 2.60758 36.8141 0 30.25 0C29.5206 0 28.8212 0.289731 28.3055 0.805456C27.7897 1.32118 27.5 2.02065 27.5 2.75C27.5 3.47935 27.7897 4.17882 28.3055 4.69454C28.8212 5.21027 29.5206 5.5 30.25 5.5ZM54.3125 38.2525C54.1612 37.811 53.9001 37.4153 53.5537 37.1026C53.2073 36.7899 52.7871 36.5705 52.3325 36.465L35.8325 32.6975C35.3846 32.596 34.9184 32.6082 34.4765 32.7331C34.0346 32.858 33.631 33.0915 33.3025 33.4125C32.9175 33.77 32.89 33.7975 31.1025 37.2075C25.1713 34.4744 20.4187 29.7024 17.71 23.76C21.2025 22 21.23 22 21.5875 21.5875C21.9084 21.259 22.142 20.8554 22.2669 20.4135C22.3918 19.9715 22.404 19.5054 22.3025 19.0575L18.535 2.75C18.4295 2.29541 18.2101 1.87514 17.8974 1.52876C17.5847 1.18237 17.189 0.921256 16.7475 0.77C16.1053 0.540621 15.4421 0.374826 14.7675 0.275C14.0724 0.113837 13.3632 0.0217232 12.65 0C9.29501 0 6.07743 1.33276 3.7051 3.7051C1.33276 6.07743 0 9.29501 0 12.65C0.0145528 23.8775 4.48109 34.6409 12.4201 42.5799C20.3591 50.5189 31.1225 54.9854 42.35 55C44.0112 55 45.6562 54.6728 47.1909 54.0371C48.7257 53.4014 50.1202 52.4696 51.2949 51.2949C52.4696 50.1202 53.4013 48.7257 54.0371 47.1909C54.6728 45.6562 55 44.0112 55 42.35C55.0008 41.65 54.9457 40.9511 54.835 40.26C54.7194 39.5769 54.5446 38.9052 54.3125 38.2525Z" fill="#5A26E7"/>
</svg>
