<svg width="87" height="57" viewBox="0 0 87 57" fill="none" xmlns="http://www.w3.org/2000/svg">
<path d="M86.7142 51.3115C83.4352 43.7842 73.7035 38.3223 62.2166 38.3223C58.88 38.3223 55.6932 38.7835 52.7676 39.6221C57.0985 42.6939 60.2901 46.711 61.7889 51.248C62.5592 53.5782 60.9395 56.0222 58.6248 56.0222H83.6448C86.0709 56.0234 87.6835 53.5351 86.7142 51.3115Z" fill="url(#paint0_linear_361_6074)"/>
<path d="M62.286 37.5335C69.3425 37.5335 75.0631 31.3588 75.0631 23.7404C75.0631 16.1232 69.3437 9.94727 62.286 9.94727C55.2295 9.94727 49.5088 16.122 49.5088 23.7404C49.5088 31.3588 55.2295 37.5335 62.286 37.5335Z" fill="url(#paint1_linear_361_6074)"/>
<path d="M5.27449 56.0226C2.95987 56.0226 1.3413 53.5798 2.11045 51.2496C3.61879 46.679 6.84394 42.638 11.2228 39.5566C5.86873 42.5494 1.91397 46.7881 0.193575 51.6713C-0.575571 53.8541 1.04299 56.1424 3.35762 56.1424H56.7091C57.0206 56.1424 57.3189 56.0993 57.6016 56.0226H40.793H5.27449Z" fill="url(#paint2_linear_361_6074)"/>
<path d="M2.11057 51.2494C1.34142 53.5796 2.95998 56.0225 5.27461 56.0225H40.7931C38.3683 56.0225 36.7569 53.5341 37.7237 51.3117C39.776 46.5986 44.3573 42.6954 50.3164 40.4347C44.8964 36.9987 37.7992 34.9141 30.0299 34.9141C22.9482 34.9141 16.4236 36.6464 11.2217 39.5553C6.84405 42.6379 3.61891 46.6789 2.11057 51.2494Z" fill="url(#paint3_linear_361_6074)"/>
<path d="M59.8733 51.672C58.3134 47.2488 54.9205 43.3552 50.3165 40.4355C44.3574 42.6951 39.776 46.5995 37.7238 51.3126C36.7558 53.535 38.3683 56.0233 40.7932 56.0233H57.6018C59.4156 55.5285 60.5394 53.5614 59.8733 51.672Z" fill="url(#paint4_linear_361_6074)"/>
<path d="M34.0611 33.4137C40.6108 31.534 45.4366 25.0897 45.4366 17.4282C45.4366 8.29305 38.5766 0.886719 30.1136 0.886719C21.6505 0.886719 14.7905 8.29305 14.7905 17.4282C14.7905 25.4551 20.0871 32.145 27.1124 33.6509C28.6879 33.4592 30.3028 33.3574 31.9478 33.3574C32.6582 33.3574 33.3627 33.3778 34.0611 33.4137Z" fill="url(#paint5_linear_361_6074)"/>
<path d="M34.061 33.4137C33.3625 33.3766 32.6581 33.3574 31.9476 33.3574C30.3027 33.3574 28.6877 33.4581 27.1123 33.6509C28.0827 33.8594 29.0867 33.9696 30.1134 33.9696C31.478 33.9696 32.8006 33.7755 34.061 33.4137Z" fill="url(#paint6_linear_361_6074)"/>
<defs>
<linearGradient id="paint0_linear_361_6074" x1="83.9707" y1="39.8811" x2="64.3963" y2="62.3622" gradientUnits="userSpaceOnUse">
<stop stop-color="#5A26E7"/>
<stop offset="1" stop-color="#410291"/>
</linearGradient>
<linearGradient id="paint1_linear_361_6074" x1="72.8017" y1="12.3767" x2="46.7874" y2="26.687" gradientUnits="userSpaceOnUse">
<stop stop-color="#5A26E7"/>
<stop offset="1" stop-color="#410291"/>
</linearGradient>
<linearGradient id="paint2_linear_361_6074" x1="52.5041" y1="41.0173" x2="37.9642" y2="71.0037" gradientUnits="userSpaceOnUse">
<stop stop-color="#5A26E7"/>
<stop offset="1" stop-color="#410291"/>
</linearGradient>
<linearGradient id="paint3_linear_361_6074" x1="46.0333" y1="36.773" x2="23.5451" y2="67.3927" gradientUnits="userSpaceOnUse">
<stop stop-color="#5A26E7"/>
<stop offset="1" stop-color="#410291"/>
</linearGradient>
<linearGradient id="paint4_linear_361_6074" x1="58.0645" y1="41.8083" x2="40.8504" y2="56.6477" gradientUnits="userSpaceOnUse">
<stop stop-color="#5A26E7"/>
<stop offset="1" stop-color="#410291"/>
</linearGradient>
<linearGradient id="paint5_linear_361_6074" x1="42.7245" y1="3.7722" x2="11.6679" y2="21.0223" gradientUnits="userSpaceOnUse">
<stop stop-color="#5A26E7"/>
<stop offset="1" stop-color="#410291"/>
</linearGradient>
<linearGradient id="paint6_linear_361_6074" x1="33.4461" y1="33.4113" x2="33.2476" y2="34.749" gradientUnits="userSpaceOnUse">
<stop stop-color="#5A26E7"/>
<stop offset="1" stop-color="#410291"/>
</linearGradient>
</defs>
</svg>
