<svg width="1440" height="1470" viewBox="0 0 1440 1470" fill="none" xmlns="http://www.w3.org/2000/svg">
<path d="M214.863 715.945C226.953 727.711 227.296 745.207 215.507 757.325C203.746 769.421 186.26 769.757 174.149 757.969C162.074 746.217 161.694 728.421 173.498 716.596C184.98 704.479 202.767 704.179 214.863 715.945Z" fill="#9F85E5" fill-opacity="0.05"/>
<path d="M214.863 80.8493C226.953 92.6157 227.296 110.112 215.507 122.229C203.746 134.325 186.26 134.661 174.149 122.873C162.074 111.121 161.694 93.3254 173.498 81.5005C184.98 69.3829 202.767 69.0829 214.863 80.8493Z" fill="#9F85E5" fill-opacity="0.05"/>
<path d="M335.441 717.571C346.813 704.898 364.6 703.464 376.813 714.681C389.473 726.052 390.899 743.841 379.688 756.054C368.308 768.727 350.85 770.125 338.359 758.951C325.633 747.851 324.28 730.055 335.441 717.571Z" fill="#9F85E5" fill-opacity="0.05"/>
<path d="M335.441 82.4776C346.813 69.8039 364.6 68.3698 376.813 79.5873C389.473 90.9586 390.899 108.747 379.688 120.96C368.308 133.634 350.85 135.031 338.359 123.858C325.633 112.757 324.28 94.9611 335.441 82.4776Z" fill="#9F85E5" fill-opacity="0.05"/>
<path d="M540.945 758.303H540.937C528.833 769.762 511.361 769.418 499.601 757.329C487.819 745.212 488.156 727.709 500.567 715.942C512.663 704.176 530.464 704.483 541.939 716.93C553.707 729.048 553.356 746.536 540.945 758.303Z" fill="#9F85E5" fill-opacity="0.05"/>
<path d="M540.945 123.207H540.937C528.833 134.666 511.361 134.322 499.601 122.234C487.819 110.116 488.156 92.6128 500.567 80.8464C512.663 69.08 530.464 69.3874 541.939 81.8343C553.707 93.952 553.356 111.44 540.945 123.207Z" fill="#9F85E5" fill-opacity="0.05"/>
<path d="M663.709 758.3L663.687 758.278C651.642 746.556 650.896 728.752 662.744 716.891C674.475 704.839 692.254 704.129 704.394 715.947C716.454 727.684 717.164 745.173 705.345 757.327L705.323 757.349C693.277 769.4 675.828 769.774 663.709 758.3Z" fill="#9F85E5" fill-opacity="0.05"/>
<path d="M663.709 123.208L663.687 123.186C651.642 111.464 650.896 93.6605 662.744 81.7989C674.475 69.7472 692.254 69.0374 704.394 80.855C716.454 92.5921 717.164 110.081 705.345 122.235L705.323 122.257C693.277 134.309 675.828 134.682 663.709 123.208Z" fill="#9F85E5" fill-opacity="0.05"/>
<path d="M51.3629 715.318C63.7374 727.048 64.4612 744.529 52.9717 756.683C41.2335 769.401 23.7617 770.081 11.3287 758.622L11.2992 758.6C-1.07525 746.87 -1.79176 729.389 9.69047 717.235C21.4214 704.539 39.2152 703.822 51.3629 715.318Z" fill="#9F85E5" fill-opacity="0.05"/>
<path d="M51.3629 80.2202C63.7374 91.95 64.4612 109.431 52.9717 121.585C41.2335 134.303 23.7617 134.984 11.3287 123.525L11.2992 123.502C-1.07525 111.773 -1.79176 94.2915 9.69047 82.1373C21.4214 69.4416 39.2152 68.7245 51.3629 80.2202Z" fill="#9F85E5" fill-opacity="0.05"/>
<path d="M1030.59 715.944C1042.68 727.711 1043.02 745.206 1031.24 757.324C1019.48 769.42 1001.99 769.756 989.877 757.968C977.803 746.216 977.43 728.413 989.241 716.581C1001.01 704.5 1018.48 704.163 1030.59 715.944Z" fill="#9F85E5" fill-opacity="0.05"/>
<path d="M1030.59 80.8485C1042.68 92.6149 1043.02 110.111 1031.24 122.228C1019.48 134.324 1001.99 134.661 989.877 122.872C977.803 111.12 977.43 93.3174 989.241 81.4852C1001.01 69.4041 1018.48 69.0675 1030.59 80.8485Z" fill="#9F85E5" fill-opacity="0.05"/>
<path d="M1151.18 717.571C1162.55 704.898 1180.34 703.464 1192.54 714.681C1205.2 726.052 1206.63 743.841 1195.42 756.054C1184.04 768.727 1166.58 770.125 1154.09 758.951C1141.37 747.851 1140.01 730.055 1151.18 717.571Z" fill="#9F85E5" fill-opacity="0.05"/>
<path d="M1151.18 82.4776C1162.55 69.8039 1180.34 68.3698 1192.54 79.5873C1205.2 90.9586 1206.63 108.747 1195.42 120.96C1184.04 133.634 1166.58 135.031 1154.09 123.858C1141.37 112.757 1140.01 94.9611 1151.18 82.4776Z" fill="#9F85E5" fill-opacity="0.05"/>
<path d="M1356.67 758.303C1344.55 769.762 1327.09 769.418 1315.33 757.329C1303.54 745.212 1303.88 727.709 1316.3 715.942C1328.38 704.176 1346.19 704.483 1357.66 716.93C1369.43 729.048 1369.08 746.536 1356.67 758.303Z" fill="#9F85E5" fill-opacity="0.05"/>
<path d="M1356.67 123.207C1344.55 134.666 1327.09 134.322 1315.33 122.234C1303.54 110.116 1303.88 92.6128 1316.3 80.8464C1328.38 69.08 1346.19 69.3874 1357.66 81.8343C1369.43 93.952 1369.08 111.44 1356.67 123.207Z" fill="#9F85E5" fill-opacity="0.05"/>
<path d="M867.091 715.325H867.098C879.473 727.062 880.19 744.55 868.7 756.704C856.969 769.086 839.49 769.803 827.342 758.307H827.335C814.96 746.577 814.243 729.096 825.725 716.942C837.171 704.524 854.965 703.844 867.091 715.325Z" fill="#9F85E5" fill-opacity="0.05"/>
<path d="M867.091 80.2269H867.098C879.473 91.964 880.19 109.453 868.7 121.607C856.969 133.988 839.49 134.705 827.342 123.209H827.335C814.96 111.48 814.243 93.9981 825.725 81.8439C837.171 69.4263 854.965 68.7459 867.091 80.2269Z" fill="#9F85E5" fill-opacity="0.05"/>
<path d="M125.169 826.396C137.258 838.163 137.602 855.658 125.812 867.776C114.052 879.872 96.5657 880.208 84.4545 868.42C72.3799 856.668 71.9996 838.872 83.8037 827.047C95.2859 814.93 113.072 814.63 125.169 826.396Z" fill="#9F85E5" fill-opacity="0.05"/>
<path d="M125.169 191.302C137.258 203.069 137.602 220.565 125.812 232.682C114.052 244.778 96.5657 245.114 84.4545 233.326C72.3799 221.574 71.9996 203.779 83.8037 191.954C95.2859 179.836 113.072 179.536 125.169 191.302Z" fill="#9F85E5" fill-opacity="0.05"/>
<path d="M221.763 936.849C233.852 948.616 234.195 966.112 222.406 978.229C210.646 990.325 193.159 990.661 181.048 978.873C168.974 967.121 168.593 949.325 180.397 937.5C191.88 925.383 209.666 925.083 221.763 936.849Z" fill="#9F85E5" fill-opacity="0.05"/>
<path d="M221.763 301.754C233.852 313.52 234.195 331.016 222.406 343.134C210.646 355.229 193.159 355.566 181.048 343.777C168.974 332.026 168.593 314.23 180.397 302.405C191.88 290.287 209.666 289.987 221.763 301.754Z" fill="#9F85E5" fill-opacity="0.05"/>
<path d="M125.169 1047.3C137.258 1059.06 137.602 1076.56 125.812 1088.68C114.052 1100.77 96.5657 1101.11 84.4545 1089.32C72.3799 1077.57 71.9996 1059.77 83.8037 1047.95C95.2859 1035.83 113.072 1035.53 125.169 1047.3Z" fill="#9F85E5" fill-opacity="0.05"/>
<path d="M125.169 412.205C137.258 423.971 137.602 441.467 125.812 453.585C114.052 465.68 96.5657 466.017 84.4545 454.228C72.3799 442.477 71.9996 424.681 83.8037 412.856C95.2859 400.738 113.072 400.438 125.169 412.205Z" fill="#9F85E5" fill-opacity="0.05"/>
<path d="M235.562 1157.75C247.651 1169.52 247.995 1187.01 236.205 1199.13C224.445 1211.23 206.959 1211.56 194.848 1199.77C182.773 1188.02 182.393 1170.23 194.197 1158.4C205.679 1146.28 223.466 1145.98 235.562 1157.75Z" fill="#9F85E5" fill-opacity="0.05"/>
<path d="M235.562 522.656C247.651 534.422 247.995 551.918 236.205 564.036C224.445 576.132 206.959 576.468 194.848 564.68C182.773 552.928 182.393 535.132 194.197 523.307C205.679 511.19 223.466 510.89 235.562 522.656Z" fill="#9F85E5" fill-opacity="0.05"/>
<path d="M125.169 1268.2C137.258 1279.97 137.602 1297.46 125.812 1309.58C114.052 1321.68 96.5657 1322.01 84.4545 1310.22C72.3799 1298.47 71.9996 1280.68 83.8037 1268.85C95.2859 1256.73 113.072 1256.43 125.169 1268.2Z" fill="#9F85E5" fill-opacity="0.05"/>
<path d="M125.169 633.107C137.258 644.874 137.602 662.369 125.812 674.487C114.052 686.583 96.5657 686.919 84.4545 675.131C72.3799 663.379 71.9996 645.583 83.8037 633.758C95.2859 621.641 113.072 621.341 125.169 633.107Z" fill="#9F85E5" fill-opacity="0.05"/>
<path d="M245.747 828.023C257.12 815.349 274.906 813.915 287.119 825.132C299.779 836.504 301.205 854.292 289.994 866.505C278.614 879.179 261.156 880.576 248.665 869.402C235.939 858.302 234.587 840.506 245.747 828.023Z" fill="#9F85E5" fill-opacity="0.05"/>
<path d="M245.746 192.929C257.119 180.255 274.905 178.821 287.119 190.039C299.779 201.41 301.205 219.198 289.993 231.411C278.613 244.085 261.156 245.482 248.664 234.309C235.939 223.208 234.586 205.412 245.746 192.929Z" fill="#9F85E5" fill-opacity="0.05"/>
<path d="M342.341 938.476C353.713 925.802 371.5 924.368 383.713 935.585C396.373 946.957 397.799 964.745 386.587 976.958C375.208 989.632 357.75 991.029 345.259 979.856C332.533 968.755 331.18 950.959 342.341 938.476Z" fill="#9F85E5" fill-opacity="0.05"/>
<path d="M342.341 303.382C353.713 290.708 371.5 289.274 383.713 300.492C396.373 311.863 397.799 329.651 386.587 341.864C375.208 354.538 357.75 355.936 345.259 344.762C332.533 333.661 331.18 315.865 342.341 303.382Z" fill="#9F85E5" fill-opacity="0.05"/>
<path d="M245.747 1048.92C257.12 1036.25 274.906 1034.82 287.119 1046.03C299.779 1057.41 301.205 1075.19 289.994 1087.41C278.614 1100.08 261.156 1101.48 248.665 1090.3C235.939 1079.2 234.587 1061.41 245.747 1048.92Z" fill="#9F85E5" fill-opacity="0.05"/>
<path d="M245.747 413.833C257.12 401.159 274.906 399.725 287.119 410.943C299.779 422.314 301.205 440.103 289.994 452.315C278.614 464.989 261.156 466.387 248.665 455.213C235.939 444.113 234.587 426.317 245.747 413.833Z" fill="#9F85E5" fill-opacity="0.05"/>
<path d="M356.14 1159.38C367.513 1146.7 385.299 1145.27 397.513 1156.49C410.172 1167.86 411.598 1185.65 400.387 1197.86C389.007 1210.53 371.55 1211.93 359.058 1200.76C346.333 1189.66 344.98 1171.86 356.14 1159.38Z" fill="#9F85E5" fill-opacity="0.05"/>
<path d="M356.14 524.282C367.513 511.609 385.299 510.174 397.513 521.392C410.172 532.763 411.598 550.552 400.387 562.765C389.007 575.438 371.55 576.836 359.058 565.662C346.333 554.562 344.98 536.766 356.14 524.282Z" fill="#9F85E5" fill-opacity="0.05"/>
<path d="M245.747 1269.83C257.12 1257.16 274.906 1255.72 287.119 1266.94C299.779 1278.31 301.205 1296.1 289.994 1308.31C278.614 1320.99 261.156 1322.38 248.665 1311.21C235.939 1300.11 234.587 1282.31 245.747 1269.83Z" fill="#9F85E5" fill-opacity="0.05"/>
<path d="M245.747 634.734C257.12 622.06 274.906 620.626 287.119 631.843C299.779 643.214 301.205 661.003 289.994 673.216C278.614 685.889 261.156 687.287 248.665 676.113C235.939 665.013 234.587 647.217 245.747 634.734Z" fill="#9F85E5" fill-opacity="0.05"/>
<path d="M451.25 868.756H451.243C439.139 880.215 421.667 879.871 409.907 867.783C398.125 855.665 398.461 838.162 410.872 826.395C422.969 814.629 440.77 814.936 452.245 827.383C464.012 839.501 463.661 856.989 451.25 868.756Z" fill="#9F85E5" fill-opacity="0.05"/>
<path d="M451.25 233.66H451.243C439.139 245.119 421.667 244.775 409.907 232.687C398.125 220.569 398.461 203.066 410.872 191.3C422.969 179.533 440.77 179.841 452.245 192.287C464.012 204.405 463.661 221.894 451.25 233.66Z" fill="#9F85E5" fill-opacity="0.05"/>
<path d="M547.844 979.207H547.836C535.733 990.666 518.261 990.322 506.501 978.234C494.718 966.116 495.055 948.613 507.466 936.846C519.563 925.08 537.364 925.387 548.839 937.834C560.606 949.952 560.255 967.44 547.844 979.207Z" fill="#9F85E5" fill-opacity="0.05"/>
<path d="M547.844 344.111H547.836C535.733 355.57 518.261 355.226 506.501 343.138C494.718 331.02 495.055 313.517 507.466 301.751C519.563 289.984 537.364 290.292 548.839 302.739C560.606 314.856 560.255 332.345 547.844 344.111Z" fill="#9F85E5" fill-opacity="0.05"/>
<path d="M451.25 1089.66H451.243C439.139 1101.12 421.667 1100.78 409.907 1088.69C398.125 1076.57 398.461 1059.07 410.872 1047.3C422.969 1035.53 440.77 1035.84 452.245 1048.29C464.012 1060.41 463.661 1077.89 451.25 1089.66Z" fill="#9F85E5" fill-opacity="0.05"/>
<path d="M451.25 454.564H451.243C439.139 466.023 421.667 465.679 409.907 453.591C398.125 441.473 398.461 423.97 410.872 412.204C422.969 400.437 440.77 400.745 452.245 413.192C464.012 425.309 463.661 442.798 451.25 454.564Z" fill="#9F85E5" fill-opacity="0.05"/>
<path d="M561.643 1200.11H561.635C549.531 1211.57 532.06 1211.22 520.299 1199.13C508.517 1187.02 508.854 1169.51 521.265 1157.75C533.361 1145.98 551.162 1146.29 562.637 1158.73C574.405 1170.85 574.054 1188.34 561.643 1200.11Z" fill="#9F85E5" fill-opacity="0.05"/>
<path d="M561.643 565.015H561.635C549.531 576.475 532.06 576.131 520.299 564.042C508.517 551.925 508.854 534.421 521.265 522.655C533.361 510.889 551.162 511.196 562.637 523.643C574.405 535.761 574.054 553.249 561.643 565.015Z" fill="#9F85E5" fill-opacity="0.05"/>
<path d="M451.25 1310.56H451.243C439.139 1322.02 421.667 1321.68 409.907 1309.59C398.125 1297.47 398.461 1279.97 410.872 1268.2C422.969 1256.43 440.77 1256.74 452.245 1269.19C464.012 1281.31 463.661 1298.79 451.25 1310.56Z" fill="#9F85E5" fill-opacity="0.05"/>
<path d="M451.25 675.467H451.243C439.139 686.926 421.667 686.582 409.907 674.493C398.125 662.376 398.461 644.873 410.872 633.106C422.969 621.34 440.77 621.647 452.245 634.094C464.012 646.212 463.661 663.7 451.25 675.467Z" fill="#9F85E5" fill-opacity="0.05"/>
<path d="M574.015 868.751L573.993 868.729C561.947 857.007 561.201 839.203 573.049 827.342C584.78 815.29 602.559 814.58 614.7 826.398C626.76 838.135 627.469 855.624 615.651 867.778L615.628 867.8C603.583 879.852 586.133 880.225 574.015 868.751Z" fill="#9F85E5" fill-opacity="0.05"/>
<path d="M574.015 233.659L573.993 233.637C561.947 221.915 561.201 204.112 573.049 192.25C584.78 180.198 602.559 179.489 614.7 191.306C626.76 203.043 627.469 220.532 615.651 232.686L615.628 232.708C603.583 244.76 586.133 245.133 574.015 233.659Z" fill="#9F85E5" fill-opacity="0.05"/>
<path d="M670.609 979.204L670.586 979.182C658.541 967.46 657.795 949.657 669.643 937.795C681.374 925.743 699.153 925.034 711.294 936.851C723.354 948.588 724.063 966.077 712.244 978.231L712.222 978.253C700.177 990.305 682.727 990.678 670.609 979.204Z" fill="#9F85E5" fill-opacity="0.05"/>
<path d="M670.609 344.108L670.586 344.087C658.541 332.364 657.795 314.561 669.643 302.699C681.374 290.648 699.153 289.938 711.294 301.755C723.354 313.493 724.063 330.981 712.244 343.135L712.222 343.157C700.177 355.209 682.727 355.582 670.609 344.108Z" fill="#9F85E5" fill-opacity="0.05"/>
<path d="M574.015 1089.66L573.993 1089.63C561.947 1077.91 561.201 1060.11 573.049 1048.25C584.78 1036.19 602.559 1035.48 614.7 1047.3C626.76 1059.04 627.469 1076.53 615.651 1088.68L615.628 1088.7C603.583 1100.76 586.133 1101.13 574.015 1089.66Z" fill="#9F85E5" fill-opacity="0.05"/>
<path d="M574.015 454.562L573.993 454.54C561.947 442.817 561.201 425.014 573.049 413.152C584.78 401.101 602.559 400.391 614.7 412.209C626.76 423.946 627.469 441.434 615.651 453.588L615.628 453.61C603.583 465.662 586.133 466.035 574.015 454.562Z" fill="#9F85E5" fill-opacity="0.05"/>
<path d="M684.407 1200.11L684.385 1200.09C672.34 1188.36 671.594 1170.56 683.442 1158.7C695.173 1146.65 712.952 1145.94 725.093 1157.76C737.153 1169.49 737.862 1186.98 726.043 1199.14L726.021 1199.16C713.976 1211.21 696.526 1211.58 684.407 1200.11Z" fill="#9F85E5" fill-opacity="0.05"/>
<path d="M684.407 565.013L684.385 564.991C672.34 553.268 671.594 535.465 683.442 523.604C695.173 511.552 712.952 510.842 725.093 522.66C737.153 534.397 737.862 551.885 726.043 564.04L726.021 564.061C713.976 576.113 696.526 576.486 684.407 565.013Z" fill="#9F85E5" fill-opacity="0.05"/>
<path d="M574.015 1310.56L573.993 1310.54C561.947 1298.81 561.201 1281.01 573.049 1269.15C584.78 1257.1 602.559 1256.39 614.7 1268.2C626.76 1279.94 627.469 1297.43 615.651 1309.58L615.628 1309.61C603.583 1321.66 586.133 1322.03 574.015 1310.56Z" fill="#9F85E5" fill-opacity="0.05"/>
<path d="M574.015 675.464L573.993 675.442C561.947 663.72 561.201 645.916 573.049 634.055C584.78 622.003 602.559 621.293 614.7 633.111C626.76 644.848 627.469 662.337 615.651 674.491L615.628 674.513C603.583 686.564 586.133 686.938 574.015 675.464Z" fill="#9F85E5" fill-opacity="0.05"/>
<path d="M58.2626 936.218C70.6371 947.948 71.3609 965.429 59.8713 977.583C48.1331 990.301 30.6613 990.982 18.2284 979.523L18.1989 979.5C5.82441 967.771 5.1079 950.29 16.5901 938.135C28.321 925.44 46.1148 924.723 58.2626 936.218Z" fill="#9F85E5" fill-opacity="0.05"/>
<path d="M58.2626 301.124C70.6371 312.854 71.3609 330.335 59.8713 342.49C48.1331 355.207 30.6613 355.888 18.2284 344.429L18.1989 344.407C5.82441 332.677 5.1079 315.196 16.5901 303.042C28.321 290.346 46.1148 289.629 58.2626 301.124Z" fill="#9F85E5" fill-opacity="0.05"/>
<path d="M72.0617 1157.12C84.4361 1168.85 85.16 1186.33 73.6704 1198.49C61.9322 1211.2 44.4604 1211.88 32.0274 1200.42L31.998 1200.4C19.6235 1188.67 18.907 1171.19 30.3892 1159.04C42.1201 1146.34 59.9139 1145.62 72.0617 1157.12Z" fill="#9F85E5" fill-opacity="0.05"/>
<path d="M72.0617 522.029C84.4361 533.759 85.16 551.24 73.6704 563.394C61.9322 576.112 44.4604 576.792 32.0274 565.333L31.998 565.311C19.6235 553.581 18.907 536.1 30.3892 523.946C42.1201 511.25 59.9139 510.533 72.0617 522.029Z" fill="#9F85E5" fill-opacity="0.05"/>
<path d="M940.898 826.395C952.987 838.162 953.331 855.658 941.548 867.775C929.781 879.871 912.294 880.207 900.183 868.419C888.108 856.667 887.736 838.864 899.547 827.032C911.314 814.951 928.786 814.614 940.898 826.395Z" fill="#9F85E5" fill-opacity="0.05"/>
<path d="M940.898 191.302C952.987 203.068 953.331 220.564 941.548 232.682C929.781 244.777 912.294 245.114 900.183 233.325C888.108 221.574 887.736 203.771 899.547 191.938C911.314 179.857 928.786 179.521 940.898 191.302Z" fill="#9F85E5" fill-opacity="0.05"/>
<path d="M1037.49 936.849C1049.58 948.615 1049.92 966.111 1038.14 978.228C1026.37 990.324 1008.89 990.661 996.777 978.872C984.702 967.12 984.329 949.317 996.141 937.485C1007.91 925.404 1025.38 925.067 1037.49 936.849Z" fill="#9F85E5" fill-opacity="0.05"/>
<path d="M1037.49 301.753C1049.58 313.519 1049.92 331.015 1038.14 343.133C1026.37 355.228 1008.89 355.565 996.777 343.777C984.702 332.025 984.329 314.222 996.141 302.389C1007.91 290.308 1025.38 289.972 1037.49 301.753Z" fill="#9F85E5" fill-opacity="0.05"/>
<path d="M940.898 1047.3C952.987 1059.06 953.331 1076.56 941.548 1088.68C929.781 1100.77 912.294 1101.11 900.183 1089.32C888.108 1077.57 887.736 1059.76 899.547 1047.93C911.314 1035.85 928.786 1035.51 940.898 1047.3Z" fill="#9F85E5" fill-opacity="0.05"/>
<path d="M940.898 412.204C952.987 423.97 953.331 441.466 941.548 453.584C929.781 465.68 912.294 466.016 900.183 454.228C888.108 442.476 887.736 424.673 899.547 412.841C911.314 400.76 928.786 400.423 940.898 412.204Z" fill="#9F85E5" fill-opacity="0.05"/>
<path d="M1051.29 1157.75C1063.38 1169.52 1063.72 1187.01 1051.94 1199.13C1040.17 1211.22 1022.69 1211.56 1010.58 1199.77C998.502 1188.02 998.129 1170.22 1009.94 1158.39C1021.71 1146.3 1039.18 1145.97 1051.29 1157.75Z" fill="#9F85E5" fill-opacity="0.05"/>
<path d="M1051.29 522.655C1063.38 534.422 1063.72 551.917 1051.94 564.035C1040.17 576.131 1022.69 576.467 1010.58 564.679C998.502 552.927 998.129 535.124 1009.94 523.292C1021.71 511.211 1039.18 510.874 1051.29 522.655Z" fill="#9F85E5" fill-opacity="0.05"/>
<path d="M940.898 1268.2C952.987 1279.97 953.331 1297.46 941.548 1309.58C929.781 1321.68 912.294 1322.01 900.183 1310.22C888.108 1298.47 887.736 1280.67 899.547 1268.84C911.314 1256.76 928.786 1256.42 940.898 1268.2Z" fill="#9F85E5" fill-opacity="0.05"/>
<path d="M940.898 633.106C952.987 644.873 953.331 662.369 941.548 674.486C929.781 686.582 912.294 686.918 900.183 675.13C888.108 663.378 887.736 645.575 899.547 633.743C911.314 621.662 928.786 621.325 940.898 633.106Z" fill="#9F85E5" fill-opacity="0.05"/>
<path d="M1061.48 828.023C1072.86 815.349 1090.64 813.915 1102.85 825.132C1115.51 836.504 1116.93 854.292 1105.73 866.505C1094.35 879.179 1076.88 880.576 1064.39 869.402C1051.68 858.302 1050.31 840.506 1061.48 828.023Z" fill="#9F85E5" fill-opacity="0.05"/>
<path d="M1061.48 192.929C1072.86 180.255 1090.64 178.821 1102.85 190.039C1115.51 201.41 1116.93 219.198 1105.73 231.411C1094.35 244.085 1076.88 245.482 1064.39 234.309C1051.68 223.208 1050.31 205.412 1061.48 192.929Z" fill="#9F85E5" fill-opacity="0.05"/>
<path d="M1158.08 938.476C1169.45 925.802 1187.24 924.368 1199.44 935.585C1212.1 946.957 1213.53 964.745 1202.32 976.958C1190.94 989.632 1173.48 991.029 1160.99 979.856C1148.27 968.755 1146.91 950.959 1158.08 938.476Z" fill="#9F85E5" fill-opacity="0.05"/>
<path d="M1158.08 303.382C1169.45 290.708 1187.24 289.274 1199.44 300.492C1212.1 311.863 1213.53 329.651 1202.32 341.864C1190.94 354.538 1173.48 355.936 1160.99 344.762C1148.27 333.661 1146.91 315.865 1158.08 303.382Z" fill="#9F85E5" fill-opacity="0.05"/>
<path d="M1061.48 1048.92C1072.86 1036.25 1090.64 1034.82 1102.85 1046.03C1115.51 1057.41 1116.93 1075.19 1105.73 1087.41C1094.35 1100.08 1076.88 1101.48 1064.39 1090.3C1051.68 1079.2 1050.31 1061.41 1061.48 1048.92Z" fill="#9F85E5" fill-opacity="0.05"/>
<path d="M1061.48 413.833C1072.86 401.159 1090.64 399.725 1102.85 410.943C1115.51 422.314 1116.93 440.103 1105.73 452.315C1094.35 464.989 1076.88 466.387 1064.39 455.213C1051.68 444.113 1050.31 426.317 1061.48 413.833Z" fill="#9F85E5" fill-opacity="0.05"/>
<path d="M1171.88 1159.38C1183.25 1146.7 1201.03 1145.27 1213.24 1156.49C1225.9 1167.86 1227.33 1185.65 1216.12 1197.86C1204.74 1210.53 1187.28 1211.93 1174.79 1200.76C1162.07 1189.66 1160.71 1171.86 1171.88 1159.38Z" fill="#9F85E5" fill-opacity="0.05"/>
<path d="M1171.88 524.282C1183.25 511.609 1201.03 510.174 1213.24 521.392C1225.9 532.763 1227.33 550.552 1216.12 562.765C1204.74 575.438 1187.28 576.836 1174.79 565.662C1162.07 554.562 1160.71 536.766 1171.88 524.282Z" fill="#9F85E5" fill-opacity="0.05"/>
<path d="M1061.48 1269.83C1072.86 1257.16 1090.64 1255.72 1102.85 1266.94C1115.51 1278.31 1116.93 1296.1 1105.73 1308.31C1094.35 1320.99 1076.88 1322.38 1064.39 1311.21C1051.68 1300.11 1050.31 1282.31 1061.48 1269.83Z" fill="#9F85E5" fill-opacity="0.05"/>
<path d="M1061.48 634.734C1072.86 622.06 1090.64 620.626 1102.85 631.843C1115.51 643.214 1116.93 661.003 1105.73 673.216C1094.35 685.889 1076.88 687.287 1064.39 676.113C1051.68 665.013 1050.31 647.217 1061.48 634.734Z" fill="#9F85E5" fill-opacity="0.05"/>
<path d="M1266.97 868.756C1254.86 880.215 1237.39 879.871 1225.63 867.783C1213.85 855.665 1214.19 838.162 1226.6 826.395C1238.69 814.629 1256.49 814.936 1267.97 827.383C1279.73 839.501 1279.38 856.989 1266.97 868.756Z" fill="#9F85E5" fill-opacity="0.05"/>
<path d="M1266.97 233.66C1254.86 245.119 1237.39 244.775 1225.63 232.687C1213.85 220.569 1214.19 203.066 1226.6 191.3C1238.69 179.533 1256.49 179.841 1267.97 192.287C1279.73 204.405 1279.38 221.894 1266.97 233.66Z" fill="#9F85E5" fill-opacity="0.05"/>
<path d="M1363.56 979.207C1351.45 990.666 1333.99 990.322 1322.23 978.234C1310.44 966.116 1310.78 948.613 1323.19 936.846C1335.28 925.08 1353.08 925.387 1364.56 937.834C1376.33 949.952 1375.98 967.44 1363.56 979.207Z" fill="#9F85E5" fill-opacity="0.05"/>
<path d="M1363.56 344.111C1351.45 355.57 1333.99 355.226 1322.23 343.138C1310.44 331.02 1310.78 313.517 1323.19 301.751C1335.28 289.984 1353.08 290.292 1364.56 302.739C1376.33 314.856 1375.98 332.345 1363.56 344.111Z" fill="#9F85E5" fill-opacity="0.05"/>
<path d="M1266.97 1089.66C1254.86 1101.12 1237.39 1100.78 1225.63 1088.69C1213.85 1076.57 1214.19 1059.07 1226.6 1047.3C1238.69 1035.53 1256.49 1035.84 1267.97 1048.29C1279.73 1060.41 1279.38 1077.89 1266.97 1089.66Z" fill="#9F85E5" fill-opacity="0.05"/>
<path d="M1266.97 454.564C1254.86 466.023 1237.39 465.679 1225.63 453.591C1213.85 441.473 1214.19 423.97 1226.6 412.204C1238.69 400.437 1256.49 400.745 1267.97 413.192C1279.73 425.309 1279.38 442.798 1266.97 454.564Z" fill="#9F85E5" fill-opacity="0.05"/>
<path d="M1377.36 1200.11C1365.25 1211.57 1347.79 1211.22 1336.03 1199.13C1324.24 1187.02 1324.58 1169.51 1336.99 1157.75C1349.08 1145.98 1366.88 1146.29 1378.36 1158.73C1390.13 1170.85 1389.77 1188.34 1377.36 1200.11Z" fill="#9F85E5" fill-opacity="0.05"/>
<path d="M1377.36 565.015C1365.25 576.475 1347.79 576.131 1336.03 564.042C1324.24 551.925 1324.58 534.421 1336.99 522.655C1349.08 510.889 1366.88 511.196 1378.36 523.643C1390.13 535.761 1389.77 553.249 1377.36 565.015Z" fill="#9F85E5" fill-opacity="0.05"/>
<path d="M1266.97 1310.56C1254.86 1322.02 1237.39 1321.68 1225.63 1309.59C1213.85 1297.47 1214.19 1279.97 1226.6 1268.2C1238.69 1256.43 1256.49 1256.74 1267.97 1269.19C1279.73 1281.31 1279.38 1298.79 1266.97 1310.56Z" fill="#9F85E5" fill-opacity="0.05"/>
<path d="M1266.97 675.467C1254.86 686.926 1237.39 686.582 1225.63 674.493C1213.85 662.376 1214.19 644.873 1226.6 633.106C1238.69 621.34 1256.49 621.647 1267.97 634.094C1279.73 646.212 1279.38 663.7 1266.97 675.467Z" fill="#9F85E5" fill-opacity="0.05"/>
<path d="M1389.74 868.751L1389.72 868.729C1377.67 857.007 1376.92 839.203 1388.77 827.342C1400.5 815.29 1418.28 814.58 1430.42 826.398C1442.48 838.135 1443.19 855.624 1431.37 867.778L1431.35 867.8C1419.31 879.852 1401.86 880.225 1389.74 868.751Z" fill="#9F85E5" fill-opacity="0.05"/>
<path d="M1389.74 233.659L1389.72 233.637C1377.67 221.915 1376.92 204.112 1388.77 192.25C1400.5 180.198 1418.28 179.489 1430.42 191.306C1442.48 203.043 1443.19 220.532 1431.37 232.686L1431.35 232.708C1419.31 244.76 1401.86 245.133 1389.74 233.659Z" fill="#9F85E5" fill-opacity="0.05"/>
<path d="M1389.74 1089.66L1389.72 1089.63C1377.67 1077.91 1376.92 1060.11 1388.77 1048.25C1400.5 1036.19 1418.28 1035.48 1430.42 1047.3C1442.48 1059.04 1443.19 1076.53 1431.37 1088.68L1431.35 1088.7C1419.31 1100.76 1401.86 1101.13 1389.74 1089.66Z" fill="#9F85E5" fill-opacity="0.05"/>
<path d="M1389.74 454.562L1389.72 454.54C1377.67 442.817 1376.92 425.014 1388.77 413.152C1400.5 401.101 1418.28 400.391 1430.42 412.209C1442.48 423.946 1443.19 441.434 1431.37 453.588L1431.35 453.61C1419.31 465.662 1401.86 466.035 1389.74 454.562Z" fill="#9F85E5" fill-opacity="0.05"/>
<path d="M1389.74 1310.56L1389.72 1310.54C1377.67 1298.81 1376.92 1281.01 1388.77 1269.15C1400.5 1257.1 1418.28 1256.39 1430.42 1268.2C1442.48 1279.94 1443.19 1297.43 1431.37 1309.58L1431.35 1309.61C1419.31 1321.66 1401.86 1322.03 1389.74 1310.56Z" fill="#9F85E5" fill-opacity="0.05"/>
<path d="M1389.74 675.464L1389.72 675.442C1377.67 663.72 1376.92 645.916 1388.77 634.055C1400.5 622.003 1418.28 621.293 1430.42 633.111C1442.48 644.848 1443.19 662.337 1431.37 674.491L1431.35 674.513C1419.31 686.564 1401.86 686.938 1389.74 675.464Z" fill="#9F85E5" fill-opacity="0.05"/>
<path d="M777.397 825.778H777.405C789.779 837.515 790.496 855.003 779.006 867.158C767.275 879.539 749.796 880.256 737.648 868.76H737.641C725.266 857.03 724.549 839.549 736.032 827.395C747.477 814.977 765.271 814.297 777.397 825.778Z" fill="#9F85E5" fill-opacity="0.05"/>
<path d="M777.397 190.678H777.405C789.779 202.415 790.496 219.904 779.006 232.058C767.275 244.439 749.796 245.156 737.648 233.66H737.641C725.266 221.931 724.549 204.449 736.032 192.295C747.477 179.877 765.271 179.197 777.397 190.678Z" fill="#9F85E5" fill-opacity="0.05"/>
<path d="M873.991 936.229H873.998C886.373 947.966 887.089 965.455 875.6 977.609C863.869 989.99 846.389 990.707 834.242 979.211H834.235C821.86 967.481 821.143 950 832.625 937.846C844.071 925.428 861.865 924.748 873.991 936.229Z" fill="#9F85E5" fill-opacity="0.05"/>
<path d="M873.991 301.129H873.998C886.373 312.866 887.089 330.355 875.6 342.509C863.869 354.89 846.389 355.607 834.242 344.112H834.235C821.86 332.382 821.143 314.9 832.625 302.746C844.071 290.329 861.865 289.648 873.991 301.129Z" fill="#9F85E5" fill-opacity="0.05"/>
<path d="M777.397 1046.68H777.405C789.779 1058.42 790.496 1075.9 779.006 1088.06C767.275 1100.44 749.796 1101.16 737.648 1089.66H737.641C725.266 1077.93 724.549 1060.45 736.032 1048.3C747.477 1035.88 765.271 1035.2 777.397 1046.68Z" fill="#9F85E5" fill-opacity="0.05"/>
<path d="M777.397 411.58H777.405C789.779 423.318 790.496 440.806 779.006 452.96C767.275 465.341 749.796 466.058 737.648 454.563H737.641C725.266 442.833 724.549 425.352 736.032 413.197C747.477 400.78 765.271 400.099 777.397 411.58Z" fill="#9F85E5" fill-opacity="0.05"/>
<path d="M887.79 1157.13H887.798C900.172 1168.87 900.889 1186.35 889.399 1198.51C877.668 1210.89 860.189 1211.61 848.041 1200.11H848.034C835.659 1188.38 834.942 1170.9 846.425 1158.75C857.87 1146.33 875.664 1145.65 887.79 1157.13Z" fill="#9F85E5" fill-opacity="0.05"/>
<path d="M887.79 522.032H887.798C900.172 533.769 900.889 551.257 889.399 563.412C877.668 575.793 860.189 576.51 848.041 565.014H848.034C835.659 553.284 834.942 535.803 846.425 523.649C857.87 511.231 875.664 510.551 887.79 522.032Z" fill="#9F85E5" fill-opacity="0.05"/>
<path d="M777.397 1267.58H777.405C789.779 1279.32 790.496 1296.81 779.006 1308.96C767.275 1321.34 749.796 1322.06 737.648 1310.56H737.641C725.266 1298.83 724.549 1281.35 736.032 1269.2C747.477 1256.78 765.271 1256.1 777.397 1267.58Z" fill="#9F85E5" fill-opacity="0.05"/>
<path d="M777.397 632.485H777.405C789.779 644.222 790.496 661.71 779.006 673.865C767.275 686.246 749.796 686.963 737.648 675.467H737.641C725.266 663.737 724.549 646.256 736.032 634.102C747.477 621.684 765.271 621.004 777.397 632.485Z" fill="#9F85E5" fill-opacity="0.05"/>
</svg>
