<svg width="97" height="58" viewBox="0 0 97 58" fill="none" xmlns="http://www.w3.org/2000/svg">
<path d="M16.2646 2.60905C15.5658 2.38881 14.846 2.25305 14.1172 2.17461C9.85244 1.71301 5.87685 1.11867 1.28686 0.107977C0.386327 0.011434 0.184536 0.249775 0.190559 1.10961C0.223689 6.59448 3.19634 12.2996 3.19634 17.7845C3.19634 23.3055 0.20863 28.6033 0.202606 34.1244C0.202606 34.8063 0.24176 35.6118 1.72357 35.0024C4.70225 33.7744 5.90697 33.7744 8.00921 34.9631C9.10249 35.5816 9.57836 35.1261 9.84942 34.4533C14.0388 24.1201 16.4483 15.6726 17.3067 5.75878C17.5054 3.47493 17.7705 3.08272 16.2646 2.60905Z" fill="url(#paint0_linear_361_6091)"/>
<path d="M96.8064 5.42174C96.8124 4.58905 96.6226 4.29942 95.7341 4.33261C89.6352 5.41872 84.214 6.62551 78.0127 6.96341C75.7418 7.60603 75.9887 7.52155 76.6634 9.7692C79.6963 19.9002 83.0093 28.9512 87.0812 38.5361C87.268 38.9766 87.4035 39.2602 87.7107 39.3929C88.0179 39.5226 88.3763 39.4683 88.6534 39.2843C90.9845 37.7487 92.7675 38.349 95.6498 39.4895C96.4811 39.8183 96.8154 39.2692 96.8094 38.346C96.7672 32.8913 94.7523 27.4608 94.7523 22.0091C94.7553 16.488 96.7732 10.9428 96.8064 5.42174Z" fill="url(#paint1_linear_361_6091)"/>
<path d="M73.7963 40.7012C72.1729 38.6919 70.2694 36.9632 68.3419 35.2586C62.5652 30.1448 56.3218 25.5892 50.6204 20.3909C50.2349 20.0409 49.9247 20.0983 49.5211 20.2733C48.4549 20.7379 47.4189 21.293 46.2653 21.5072C45.5877 21.6309 45.1209 21.9628 44.6721 22.4907C41.9524 25.6857 38.5822 27.2726 34.3085 26.5999C29.7817 25.8878 27.7397 22.8558 28.8511 18.4027C29.2788 16.6921 30.0317 15.1202 30.9292 13.6087C31.9442 11.8981 33.17 10.3474 34.694 8.679C30.1943 8.679 25.9868 8.68503 21.7763 8.66995C21.2824 8.66693 21.2463 8.91432 21.0656 9.31558C17.9544 16.2758 15.8461 23.5165 15.4485 30.89C15.4244 31.3214 15.2889 31.6473 15.6563 32.0063C18.3037 34.5948 20.668 37.4791 23.4901 39.8746C29.7094 45.1573 36.1457 50.1685 42.7566 54.9504C44.3378 56.0938 46.1419 56.7274 48.0634 57.0201C48.482 57.0834 48.9368 57.192 49.3856 56.8481C49.2139 56.655 49.0663 56.477 48.9037 56.3111C46.7894 54.16 44.6661 52.0149 42.5548 49.8608C41.7868 49.0763 41.0218 48.2889 40.308 47.4562C39.6364 46.6688 39.5761 45.7607 40.1182 44.8797C40.6483 44.0229 41.4796 43.7725 42.4403 43.9535C43.0849 44.0772 43.4945 44.5599 43.9222 45.0064C47.1629 48.4066 50.3433 51.8671 53.8701 54.9806C55.5688 56.48 57.3789 56.2236 58.7463 54.3651C59.1679 53.7919 59.2583 53.3997 58.6348 52.8265C55.4303 49.8758 52.4576 46.6899 49.4729 43.5191C49.2621 43.2958 49.0482 43.0635 48.8856 42.8071C48.3073 41.8959 48.4489 40.8068 49.2139 40.0857C49.9849 39.3587 51.1987 39.2983 52.033 39.9862C52.4275 40.312 52.7648 40.7072 53.1172 41.0814C56.1621 44.2884 59.1529 47.5528 62.4839 50.4732C64.0169 51.8188 65.9746 51.7434 67.4594 50.3736C68.2997 49.5983 68.3027 49.2845 67.4745 48.4911C63.529 44.7259 59.7793 40.7676 55.9905 36.8485C54.8701 35.69 54.8189 34.4229 55.7947 33.4967C56.7585 32.5855 57.9963 32.7213 59.1348 33.8859C60.1437 34.9146 61.1346 35.9585 62.1406 36.9903C65.062 39.9862 67.9654 42.9941 71.0043 45.8723C71.6067 46.4425 72.2301 46.8287 73.1156 46.6085C74.9167 46.1589 75.8142 44.391 75.0733 42.6864C74.76 41.9502 74.2902 41.3167 73.7963 40.7012Z" fill="url(#paint2_linear_361_6091)"/>
<path d="M73.6875 13.8199C73.4134 13.3825 73.2388 13.0234 72.7358 12.8454C66.8688 10.7486 61.1193 8.36221 55.4059 5.88527C53.6379 5.11896 51.7947 4.60909 50.2918 4.57288C47.9577 4.55176 46.0964 5.07069 44.2351 6.29256C40.9462 8.45574 38.0759 11.0986 35.7026 14.2483C34.4407 15.9228 33.4046 17.745 32.9589 19.8358C32.6517 21.2688 32.9619 21.7727 34.3593 22.1679C35.2569 22.4213 36.1544 22.5511 37.0941 22.3912C39.2897 22.0201 40.7444 20.6262 41.9913 18.9277C42.4009 18.3695 42.8014 17.7058 43.5213 17.6394C45.7289 17.4343 47.6143 16.3301 49.6202 15.5728C50.6683 15.1776 51.5447 15.3103 52.3519 16.0887C55.4601 19.0996 58.8694 21.7546 62.1975 24.5061C67.4471 28.8505 72.9466 32.9265 77.3288 38.2333C77.645 38.6165 77.8739 38.4988 78.1841 38.2876C79.1449 37.6299 80.0966 36.9571 81.0875 36.3447C81.5995 36.0279 81.5544 35.7322 81.461 35.159C80.2984 28.042 77.889 20.4995 73.6875 13.8199Z" fill="url(#paint3_linear_361_6091)"/>
<defs>
<linearGradient id="paint0_linear_361_6091" x1="15.9331" y1="3.18503" x2="-5.17393" y2="9.34057" gradientUnits="userSpaceOnUse">
<stop stop-color="#5A26E7"/>
<stop offset="1" stop-color="#410291"/>
</linearGradient>
<linearGradient id="paint1_linear_361_6091" x1="94.985" y1="7.43496" x2="70.5884" y2="15.9069" gradientUnits="userSpaceOnUse">
<stop stop-color="#5A26E7"/>
<stop offset="1" stop-color="#410291"/>
</linearGradient>
<linearGradient id="paint2_linear_361_6091" x1="70.0303" y1="12.934" x2="18.4354" y2="50.8572" gradientUnits="userSpaceOnUse">
<stop stop-color="#5A26E7"/>
<stop offset="1" stop-color="#410291"/>
</linearGradient>
<linearGradient id="paint3_linear_361_6091" x1="77.2125" y1="7.55881" x2="39.8284" y2="39.4193" gradientUnits="userSpaceOnUse">
<stop stop-color="#5A26E7"/>
<stop offset="1" stop-color="#410291"/>
</linearGradient>
</defs>
</svg>
