<svg width="35" height="100" viewBox="0 0 35 100" fill="none" xmlns="http://www.w3.org/2000/svg">
<path d="M6.5981 98.1348C5.25789 99.2717 3.31581 99.2745 2.00566 98.1327C0.664641 96.993 0.664646 95.3451 2.00648 94.2053C3.34831 93.067 5.29119 93.0642 6.60216 94.2074C7.93831 95.3727 7.94561 97.0205 6.5981 98.1348Z" fill="url(#paint0_linear_398_6002)" stroke="url(#paint1_linear_398_6002)" stroke-width="0.653667"/>
<path d="M24.6798 78.7585L24.6822 78.7606C25.362 79.3377 25.721 80.0306 25.7397 80.7305C25.7576 81.431 25.4343 82.1205 24.7853 82.6865C23.4849 83.8215 21.5079 83.8918 20.1913 82.7748C18.8535 81.6688 18.7755 79.9927 20.0873 78.8481C21.3893 77.7112 23.3314 77.6443 24.6798 78.7585Z" fill="url(#paint2_linear_398_6002)" stroke="url(#paint3_linear_398_6002)" stroke-width="0.653667"/>
<path d="M6.70526 82.6486C5.40323 83.8159 3.46194 83.8835 2.1128 82.7996C0.737667 81.6937 0.658884 80.0175 1.93492 78.8723C3.23695 77.7049 5.17822 77.6373 6.52736 78.7205L6.52981 78.7233C7.90007 79.8555 7.98292 81.502 6.70526 82.6486Z" fill="url(#paint4_linear_398_6002)" stroke="url(#paint5_linear_398_6002)" stroke-width="0.653667"/>
<path d="M24.7143 63.3771L24.7168 63.3792C26.0545 64.5148 26.0959 66.162 24.7858 67.3045C23.4813 68.4429 21.5051 68.4787 20.1917 67.3652C18.8499 66.2558 18.8125 64.5796 20.1211 63.4378C21.4272 62.2981 23.3692 62.2657 24.7143 63.3771Z" fill="url(#paint6_linear_398_6002)" stroke="url(#paint7_linear_398_6002)" stroke-width="0.653667"/>
<path d="M6.56263 67.3577C5.21837 68.4692 3.2771 68.4368 1.9702 67.2964C0.66167 66.1553 0.699837 64.5066 2.04248 63.3972C3.38675 62.2871 5.32722 62.3189 6.63412 63.4579C7.94346 64.5708 7.93939 66.2201 6.56263 67.3577Z" fill="url(#paint8_linear_398_6002)" stroke="url(#paint9_linear_398_6002)" stroke-width="0.653667"/>
<path d="M24.7525 98.1372L24.75 98.1393C23.4098 99.2776 21.4669 99.2811 20.156 98.1379C18.8149 96.9981 18.8149 95.3509 20.1576 94.2112C21.4986 93.0728 23.4423 93.0694 24.7525 94.2133L24.7549 94.2153C26.0561 95.382 26.0594 96.9968 24.7525 98.1372Z" fill="url(#paint10_linear_398_6002)" stroke="url(#paint11_linear_398_6002)" stroke-width="0.653667"/>
<path d="M6.59973 21.1822C5.25871 22.3206 3.31663 22.324 2.00566 21.1808C0.664641 20.0411 0.664646 18.3932 2.00648 17.2535C3.3475 16.1151 5.2904 16.1116 6.60055 17.2548C7.94238 18.3946 7.94156 20.0425 6.59973 21.1822Z" fill="url(#paint12_linear_398_6002)" stroke="url(#paint13_linear_398_6002)" stroke-width="0.653667"/>
<path d="M24.6798 1.80152C26.0541 2.93781 26.0963 4.5857 24.7853 5.72888C23.4849 6.86448 21.5079 6.93483 20.1913 5.81785C18.8535 4.71189 18.7755 3.03572 20.0873 1.89115C21.3901 0.754173 23.3314 0.687288 24.6798 1.80152Z" fill="url(#paint14_linear_398_6002)" stroke="url(#paint15_linear_398_6002)" stroke-width="0.653667"/>
<path d="M6.70526 5.69797C5.40323 6.8646 3.46194 6.93216 2.1128 5.84896C0.737667 4.74301 0.658884 3.06618 1.93492 1.92092C3.23695 0.753603 5.17822 0.686036 6.52736 1.76993L6.52981 1.77199C7.90007 2.90483 7.98292 4.55133 6.70526 5.69797Z" fill="url(#paint16_linear_398_6002)" stroke="url(#paint17_linear_398_6002)" stroke-width="0.653667"/>
<path d="M24.5737 47.8964L24.5737 47.8971C25.9822 48.97 26.1373 50.6179 24.8962 51.7955L24.8962 51.7962C23.6332 52.9904 21.6578 53.1249 20.3021 52.0686C18.897 50.9964 18.7386 49.3209 19.9813 48.1701C21.2143 46.9725 23.1889 46.8442 24.5737 47.8964Z" fill="url(#paint18_linear_398_6002)" stroke="url(#paint19_linear_398_6002)" stroke-width="0.653667"/>
<path d="M6.63554 51.9294C5.32863 53.0699 3.38736 53.1016 2.04228 51.9908C0.701265 50.8835 0.65986 49.2052 1.97164 48.0903C3.27773 46.9513 5.21899 46.9195 6.56326 48.0303C7.9059 49.1397 7.94407 50.7876 6.63554 51.9294Z" fill="url(#paint20_linear_398_6002)" stroke="url(#paint21_linear_398_6002)" stroke-width="0.653667"/>
<path d="M24.7518 36.5446C23.4433 37.6857 21.4679 37.6857 20.1586 36.575C18.8151 35.4642 18.8151 33.7874 20.1228 32.6759C21.433 31.5341 23.3735 31.5368 24.7145 32.6442C26.0571 33.7536 26.0953 35.4028 24.7518 36.5446Z" fill="url(#paint22_linear_398_6002)" stroke="url(#paint23_linear_398_6002)" stroke-width="0.653667"/>
<path d="M6.70769 36.5137L6.70526 36.5158C5.40323 37.6831 3.46194 37.7507 2.1128 36.6668C0.737667 35.5609 0.658884 33.884 1.93492 32.7387C3.23695 31.5714 5.17822 31.5045 6.52736 32.5877L6.52981 32.5898C7.21048 33.1524 7.57841 33.8378 7.61009 34.537C7.64258 35.2361 7.33799 35.9325 6.70769 36.5137Z" fill="url(#paint24_linear_398_6002)" stroke="url(#paint25_linear_398_6002)" stroke-width="0.653667"/>
<path d="M24.7525 21.1801L24.75 21.1821C23.4098 22.3205 21.4669 22.3239 20.156 21.1815C18.8149 20.0417 18.8149 18.3938 20.1576 17.2541C21.4986 16.1157 23.4423 16.113 24.7525 17.2561C26.0586 18.3959 26.0586 20.041 24.7525 21.1801Z" fill="url(#paint26_linear_398_6002)" stroke="url(#paint27_linear_398_6002)" stroke-width="0.653667"/>
<defs>
<linearGradient id="paint0_linear_398_6002" x1="1.58182" y1="93.8497" x2="4.59596" y2="99.7979" gradientUnits="userSpaceOnUse">
<stop stop-color="#5A26E7"/>
<stop offset="1" stop-color="#410291"/>
</linearGradient>
<linearGradient id="paint1_linear_398_6002" x1="1.58182" y1="93.8497" x2="4.59596" y2="99.7979" gradientUnits="userSpaceOnUse">
<stop stop-color="#5A26E7"/>
<stop offset="1" stop-color="#410291"/>
</linearGradient>
<linearGradient id="paint2_linear_398_6002" x1="19.7254" y1="78.4553" x2="22.7259" y2="84.3875" gradientUnits="userSpaceOnUse">
<stop stop-color="#5A26E7"/>
<stop offset="1" stop-color="#410291"/>
</linearGradient>
<linearGradient id="paint3_linear_398_6002" x1="19.7254" y1="78.4553" x2="22.7259" y2="84.3875" gradientUnits="userSpaceOnUse">
<stop stop-color="#5A26E7"/>
<stop offset="1" stop-color="#410291"/>
</linearGradient>
<linearGradient id="paint4_linear_398_6002" x1="1.60732" y1="78.4478" x2="4.61212" y2="84.3773" gradientUnits="userSpaceOnUse">
<stop stop-color="#5A26E7"/>
<stop offset="1" stop-color="#410291"/>
</linearGradient>
<linearGradient id="paint5_linear_398_6002" x1="1.60732" y1="78.4478" x2="4.61212" y2="84.3773" gradientUnits="userSpaceOnUse">
<stop stop-color="#5A26E7"/>
<stop offset="1" stop-color="#410291"/>
</linearGradient>
<linearGradient id="paint6_linear_398_6002" x1="19.7418" y1="63.06" x2="22.7448" y2="68.9864" gradientUnits="userSpaceOnUse">
<stop stop-color="#5A26E7"/>
<stop offset="1" stop-color="#410291"/>
</linearGradient>
<linearGradient id="paint7_linear_398_6002" x1="19.7418" y1="63.06" x2="22.7448" y2="68.9864" gradientUnits="userSpaceOnUse">
<stop stop-color="#5A26E7"/>
<stop offset="1" stop-color="#410291"/>
</linearGradient>
<linearGradient id="paint8_linear_398_6002" x1="1.59245" y1="63.0783" x2="4.5679" y2="68.991" gradientUnits="userSpaceOnUse">
<stop stop-color="#5A26E7"/>
<stop offset="1" stop-color="#410291"/>
</linearGradient>
<linearGradient id="paint9_linear_398_6002" x1="1.59245" y1="63.0783" x2="4.5679" y2="68.991" gradientUnits="userSpaceOnUse">
<stop stop-color="#5A26E7"/>
<stop offset="1" stop-color="#410291"/>
</linearGradient>
<linearGradient id="paint10_linear_398_6002" x1="19.73" y1="93.8553" x2="22.7512" y2="99.7944" gradientUnits="userSpaceOnUse">
<stop stop-color="#5A26E7"/>
<stop offset="1" stop-color="#410291"/>
</linearGradient>
<linearGradient id="paint11_linear_398_6002" x1="19.73" y1="93.8553" x2="22.7512" y2="99.7944" gradientUnits="userSpaceOnUse">
<stop stop-color="#5A26E7"/>
<stop offset="1" stop-color="#410291"/>
</linearGradient>
<linearGradient id="paint12_linear_398_6002" x1="1.58182" y1="16.8975" x2="4.59686" y2="22.8464" gradientUnits="userSpaceOnUse">
<stop stop-color="#5A26E7"/>
<stop offset="1" stop-color="#410291"/>
</linearGradient>
<linearGradient id="paint13_linear_398_6002" x1="1.58182" y1="16.8975" x2="4.59686" y2="22.8464" gradientUnits="userSpaceOnUse">
<stop stop-color="#5A26E7"/>
<stop offset="1" stop-color="#410291"/>
</linearGradient>
<linearGradient id="paint14_linear_398_6002" x1="19.7254" y1="1.49828" x2="22.7259" y2="7.43038" gradientUnits="userSpaceOnUse">
<stop stop-color="#5A26E7"/>
<stop offset="1" stop-color="#410291"/>
</linearGradient>
<linearGradient id="paint15_linear_398_6002" x1="19.7254" y1="1.49828" x2="22.7259" y2="7.43038" gradientUnits="userSpaceOnUse">
<stop stop-color="#5A26E7"/>
<stop offset="1" stop-color="#410291"/>
</linearGradient>
<linearGradient id="paint16_linear_398_6002" x1="1.60732" y1="1.49657" x2="4.61216" y2="7.42609" gradientUnits="userSpaceOnUse">
<stop stop-color="#5A26E7"/>
<stop offset="1" stop-color="#410291"/>
</linearGradient>
<linearGradient id="paint17_linear_398_6002" x1="1.60732" y1="1.49657" x2="4.61216" y2="7.42609" gradientUnits="userSpaceOnUse">
<stop stop-color="#5A26E7"/>
<stop offset="1" stop-color="#410291"/>
</linearGradient>
<linearGradient id="paint18_linear_398_6002" x1="19.7215" y1="47.6785" x2="22.7069" y2="53.5996" gradientUnits="userSpaceOnUse">
<stop stop-color="#5A26E7"/>
<stop offset="1" stop-color="#410291"/>
</linearGradient>
<linearGradient id="paint19_linear_398_6002" x1="19.7215" y1="47.6785" x2="22.7069" y2="53.5996" gradientUnits="userSpaceOnUse">
<stop stop-color="#5A26E7"/>
<stop offset="1" stop-color="#410291"/>
</linearGradient>
<linearGradient id="paint20_linear_398_6002" x1="1.59141" y1="47.7108" x2="4.57032" y2="53.6194" gradientUnits="userSpaceOnUse">
<stop stop-color="#5A26E7"/>
<stop offset="1" stop-color="#410291"/>
</linearGradient>
<linearGradient id="paint21_linear_398_6002" x1="1.59141" y1="47.7108" x2="4.57032" y2="53.6194" gradientUnits="userSpaceOnUse">
<stop stop-color="#5A26E7"/>
<stop offset="1" stop-color="#410291"/>
</linearGradient>
<linearGradient id="paint22_linear_398_6002" x1="19.7272" y1="32.311" x2="22.7024" y2="38.2235" gradientUnits="userSpaceOnUse">
<stop stop-color="#5A26E7"/>
<stop offset="1" stop-color="#410291"/>
</linearGradient>
<linearGradient id="paint23_linear_398_6002" x1="19.7272" y1="32.311" x2="22.7024" y2="38.2235" gradientUnits="userSpaceOnUse">
<stop stop-color="#5A26E7"/>
<stop offset="1" stop-color="#410291"/>
</linearGradient>
<linearGradient id="paint24_linear_398_6002" x1="1.60728" y1="32.3147" x2="4.61248" y2="38.2442" gradientUnits="userSpaceOnUse">
<stop stop-color="#5A26E7"/>
<stop offset="1" stop-color="#410291"/>
</linearGradient>
<linearGradient id="paint25_linear_398_6002" x1="1.60728" y1="32.3147" x2="4.61248" y2="38.2442" gradientUnits="userSpaceOnUse">
<stop stop-color="#5A26E7"/>
<stop offset="1" stop-color="#410291"/>
</linearGradient>
<linearGradient id="paint26_linear_398_6002" x1="19.73" y1="16.8984" x2="22.7509" y2="22.8375" gradientUnits="userSpaceOnUse">
<stop stop-color="#5A26E7"/>
<stop offset="1" stop-color="#410291"/>
</linearGradient>
<linearGradient id="paint27_linear_398_6002" x1="19.73" y1="16.8984" x2="22.7509" y2="22.8375" gradientUnits="userSpaceOnUse">
<stop stop-color="#5A26E7"/>
<stop offset="1" stop-color="#410291"/>
</linearGradient>
</defs>
</svg>
