<svg width="70" height="63" viewBox="0 0 70 63" fill="none" xmlns="http://www.w3.org/2000/svg">
<path d="M2.67335 61.0733L2.67124 61.0709C1.53564 59.7697 1.46533 57.7935 2.58232 56.4768C3.68827 55.1391 5.36445 55.0603 6.50901 56.3721C7.64599 57.6749 7.71288 59.6162 6.59865 60.9653L6.59655 60.9678C5.46094 62.3055 3.81584 62.347 2.67335 61.0733Z" fill="url(#paint0_linear_398_6003)" stroke="url(#paint1_linear_398_6003)" stroke-width="0.653667"/>
<path d="M2.57522 42.8409L2.57316 42.8384C1.46238 41.4933 1.49409 39.5521 2.63452 38.246C3.77633 36.9374 5.42494 36.9748 6.53365 38.3175C7.64443 39.6625 7.61269 41.603 6.47364 42.9091C5.35803 44.2225 3.71014 44.177 2.57522 42.8409Z" fill="url(#paint2_linear_398_6003)" stroke="url(#paint3_linear_398_6003)" stroke-width="0.653667"/>
<path d="M17.9841 42.876L17.982 42.8736C16.8437 41.5333 16.8402 39.5913 17.982 38.2811C19.0928 36.9377 20.7704 36.9385 21.8811 38.247C23.0195 39.588 23.023 41.5309 21.8805 42.8411C20.7407 44.1821 19.1232 44.1821 17.9841 42.876Z" fill="url(#paint4_linear_398_6003)" stroke="url(#paint5_linear_398_6003)" stroke-width="0.653667"/>
<path d="M37.2621 56.3705C38.4018 57.6766 38.4342 59.6186 37.3235 60.9637C36.2141 62.3064 34.5655 62.3437 33.4237 61.0352C32.2853 59.7307 32.2501 57.7545 33.3637 56.4411C34.4731 55.1001 36.1203 55.0627 37.2621 56.3705Z" fill="url(#paint6_linear_398_6003)" stroke="url(#paint7_linear_398_6003)" stroke-width="0.653667"/>
<path d="M33.3456 42.8735L33.3435 42.871C32.2362 41.53 32.2327 39.5896 33.3752 38.2794C34.5135 36.9392 36.1628 36.9359 37.275 38.2827C38.383 39.6237 38.3858 41.5641 37.244 42.8743C36.1022 44.2178 34.455 44.1804 33.3456 42.8735Z" fill="url(#paint8_linear_398_6003)" stroke="url(#paint9_linear_398_6003)" stroke-width="0.653667"/>
<path d="M48.6302 56.5537C49.7024 55.1469 51.3793 54.9877 52.5301 56.2328C53.7236 57.4951 53.858 59.4696 52.8017 60.8253C51.7288 62.2321 50.0823 62.3872 48.9047 61.1469C47.7056 59.9147 47.5774 57.9394 48.6302 56.5537Z" fill="url(#paint10_linear_398_6003)" stroke="url(#paint11_linear_398_6003)" stroke-width="0.653667"/>
<path d="M52.6364 38.2456C53.7747 39.5858 53.7782 41.5287 52.6357 42.8396C51.4973 44.179 49.8487 44.1823 48.7366 42.8372C47.5989 41.4962 47.5962 39.5541 48.7387 38.244C49.8495 36.9362 51.5256 36.937 52.6364 38.2456Z" fill="url(#paint12_linear_398_6003)" stroke="url(#paint13_linear_398_6003)" stroke-width="0.653667"/>
<path d="M68.0032 61.0719C66.8614 62.3439 65.2148 62.3057 64.1061 60.9639C62.9946 59.6188 63.0271 57.6759 64.1971 56.3698C65.3369 55.0637 67.0151 55.0978 68.0969 56.4795C69.2063 57.8245 69.1732 59.7658 68.0032 61.0719Z" fill="url(#paint14_linear_398_6003)" stroke="url(#paint15_linear_398_6003)" stroke-width="0.653667"/>
<path d="M67.9404 38.175C69.1077 39.477 69.1746 41.4183 68.0914 42.7674C66.9854 44.1426 65.3375 44.2222 64.1923 42.9453C63.0256 41.6433 62.9581 39.7028 64.0406 38.3537C65.119 36.9761 66.7965 36.9006 67.9404 38.175Z" fill="url(#paint16_linear_398_6003)" stroke="url(#paint17_linear_398_6003)" stroke-width="0.653667"/>
<path d="M21.8476 56.2999H21.8483C23.0149 57.6028 23.0825 59.544 21.9993 60.8932C20.8934 62.2675 19.2454 62.3471 18.1002 61.0711H18.0995C16.9329 59.769 16.8653 57.8286 17.9478 56.4794C19.0269 55.101 20.7044 55.0255 21.8476 56.2999Z" fill="url(#paint18_linear_398_6003)" stroke="url(#paint19_linear_398_6003)" stroke-width="0.653667"/>
<path d="M6.62263 24.7143L6.62056 24.7168C5.48496 26.0545 3.83776 26.0959 2.69526 24.7858C1.5569 23.4813 1.52104 21.5051 2.63458 20.1917C3.74398 18.8499 5.42013 18.8125 6.56194 20.1211C7.70168 21.4272 7.7341 23.3692 6.62263 24.7143Z" fill="url(#paint20_linear_398_6003)" stroke="url(#paint21_linear_398_6003)" stroke-width="0.653667"/>
<path d="M2.64227 6.56263C1.5308 5.21837 1.5632 3.2771 2.70363 1.9702C3.84475 0.66167 5.49336 0.699837 6.60276 2.04248C7.71285 3.38675 7.68113 5.32722 6.54208 6.63412C5.42923 7.94346 3.77994 7.93939 2.64227 6.56263Z" fill="url(#paint22_linear_398_6003)" stroke="url(#paint23_linear_398_6003)" stroke-width="0.653667"/>
<path d="M48.8173 6.59973C47.6789 5.25871 47.6755 3.31663 48.8187 2.00566C49.9584 0.664641 51.6063 0.664647 52.746 2.00648C53.8844 3.3475 53.8879 5.2904 52.7447 6.60055C51.605 7.94238 49.957 7.94156 48.8173 6.59973Z" fill="url(#paint24_linear_398_6003)" stroke="url(#paint25_linear_398_6003)" stroke-width="0.653667"/>
<path d="M68.1975 24.6798C67.0612 26.0541 65.4133 26.0963 64.2701 24.7853C63.1345 23.4849 63.0642 21.5079 64.1812 20.1913C65.2871 18.8535 66.9633 18.7755 68.1079 20.0873C69.2449 21.3901 69.3117 23.3314 68.1975 24.6798Z" fill="url(#paint26_linear_398_6003)" stroke="url(#paint27_linear_398_6003)" stroke-width="0.653667"/>
<path d="M64.3013 6.70526C63.1347 5.40323 63.0671 3.46194 64.1503 2.1128C65.2563 0.737667 66.9331 0.658884 68.0783 1.93492C69.2457 3.23695 69.3132 5.17822 68.2293 6.52736L68.2273 6.52981C67.0944 7.90007 65.4479 7.98292 64.3013 6.70526Z" fill="url(#paint28_linear_398_6003)" stroke="url(#paint29_linear_398_6003)" stroke-width="0.653667"/>
<path d="M22.1031 24.5737H22.1024C21.0295 25.9822 19.3817 26.1373 18.204 24.8962H18.2033C17.0091 23.6332 16.8746 21.6578 17.931 20.3021C19.0031 18.897 20.6786 18.7386 21.8294 19.9813C23.027 21.2143 23.1553 23.1889 22.1031 24.5737Z" fill="url(#paint30_linear_398_6003)" stroke="url(#paint31_linear_398_6003)" stroke-width="0.653667"/>
<path d="M18.071 6.63554C16.9306 5.32863 16.8989 3.38736 18.0097 2.04228C19.117 0.701265 20.7952 0.659861 21.9102 1.97164C23.0492 3.27773 23.081 5.21899 21.9702 6.56326C20.8608 7.9059 19.2129 7.94407 18.071 6.63554Z" fill="url(#paint32_linear_398_6003)" stroke="url(#paint33_linear_398_6003)" stroke-width="0.653667"/>
<path d="M33.4554 24.7518C32.3143 23.4433 32.3143 21.4679 33.425 20.1586C34.5358 18.8151 36.2126 18.8151 37.3241 20.1228C38.4659 21.433 38.4632 23.3735 37.3558 24.7145C36.2464 26.0571 34.5972 26.0953 33.4554 24.7518Z" fill="url(#paint34_linear_398_6003)" stroke="url(#paint35_linear_398_6003)" stroke-width="0.653667"/>
<path d="M33.4867 6.70769L33.4847 6.70526C32.3174 5.40323 32.2498 3.46194 33.3337 2.1128C34.4396 0.737667 36.1165 0.658884 37.2618 1.93492C38.4291 3.23695 38.496 5.17822 37.4128 6.52736L37.4107 6.52981C36.8481 7.21048 36.1627 7.57841 35.4635 7.61009C34.7644 7.64258 34.068 7.33799 33.4867 6.70769Z" fill="url(#paint36_linear_398_6003)" stroke="url(#paint37_linear_398_6003)" stroke-width="0.653667"/>
<path d="M48.8199 24.7525L48.8179 24.75C47.6795 23.4098 47.6761 21.4669 48.8185 20.156C49.9583 18.8149 51.6062 18.8149 52.7459 20.1576C53.8843 21.4986 53.887 23.4423 52.7439 24.7525C51.6041 26.0586 49.959 26.0586 48.8199 24.7525Z" fill="url(#paint38_linear_398_6003)" stroke="url(#paint39_linear_398_6003)" stroke-width="0.653667"/>
<defs>
<linearGradient id="paint0_linear_398_6003" x1="6.90188" y1="56.0084" x2="0.978914" y2="59.0156" gradientUnits="userSpaceOnUse">
<stop stop-color="#5A26E7"/>
<stop offset="1" stop-color="#410291"/>
</linearGradient>
<linearGradient id="paint1_linear_398_6003" x1="6.90188" y1="56.0084" x2="0.978914" y2="59.0156" gradientUnits="userSpaceOnUse">
<stop stop-color="#5A26E7"/>
<stop offset="1" stop-color="#410291"/>
</linearGradient>
<linearGradient id="paint2_linear_398_6003" x1="6.85313" y1="37.8668" x2="0.944672" y2="40.8458" gradientUnits="userSpaceOnUse">
<stop stop-color="#5A26E7"/>
<stop offset="1" stop-color="#410291"/>
</linearGradient>
<linearGradient id="paint3_linear_398_6003" x1="6.85313" y1="37.8668" x2="0.944672" y2="40.8458" gradientUnits="userSpaceOnUse">
<stop stop-color="#5A26E7"/>
<stop offset="1" stop-color="#410291"/>
</linearGradient>
<linearGradient id="paint4_linear_398_6003" x1="22.2397" y1="37.8492" x2="16.3183" y2="40.8459" gradientUnits="userSpaceOnUse">
<stop stop-color="#5A26E7"/>
<stop offset="1" stop-color="#410291"/>
</linearGradient>
<linearGradient id="paint5_linear_398_6003" x1="22.2397" y1="37.8492" x2="16.3183" y2="40.8459" gradientUnits="userSpaceOnUse">
<stop stop-color="#5A26E7"/>
<stop offset="1" stop-color="#410291"/>
</linearGradient>
<linearGradient id="paint6_linear_398_6003" x1="37.6425" y1="55.9918" x2="31.7342" y2="58.9707" gradientUnits="userSpaceOnUse">
<stop stop-color="#5A26E7"/>
<stop offset="1" stop-color="#410291"/>
</linearGradient>
<linearGradient id="paint7_linear_398_6003" x1="37.6425" y1="55.9918" x2="31.7342" y2="58.9707" gradientUnits="userSpaceOnUse">
<stop stop-color="#5A26E7"/>
<stop offset="1" stop-color="#410291"/>
</linearGradient>
<linearGradient id="paint8_linear_398_6003" x1="37.6087" y1="37.8542" x2="31.6963" y2="40.8292" gradientUnits="userSpaceOnUse">
<stop stop-color="#5A26E7"/>
<stop offset="1" stop-color="#410291"/>
</linearGradient>
<linearGradient id="paint9_linear_398_6003" x1="37.6087" y1="37.8542" x2="31.6963" y2="40.8292" gradientUnits="userSpaceOnUse">
<stop stop-color="#5A26E7"/>
<stop offset="1" stop-color="#410291"/>
</linearGradient>
<linearGradient id="paint10_linear_398_6003" x1="53.0208" y1="55.9715" x2="47.0998" y2="58.9567" gradientUnits="userSpaceOnUse">
<stop stop-color="#5A26E7"/>
<stop offset="1" stop-color="#410291"/>
</linearGradient>
<linearGradient id="paint11_linear_398_6003" x1="53.0208" y1="55.9715" x2="47.0998" y2="58.9567" gradientUnits="userSpaceOnUse">
<stop stop-color="#5A26E7"/>
<stop offset="1" stop-color="#410291"/>
</linearGradient>
<linearGradient id="paint12_linear_398_6003" x1="52.995" y1="37.8433" x2="47.0739" y2="40.8398" gradientUnits="userSpaceOnUse">
<stop stop-color="#5A26E7"/>
<stop offset="1" stop-color="#410291"/>
</linearGradient>
<linearGradient id="paint13_linear_398_6003" x1="52.995" y1="37.8433" x2="47.0739" y2="40.8398" gradientUnits="userSpaceOnUse">
<stop stop-color="#5A26E7"/>
<stop offset="1" stop-color="#410291"/>
</linearGradient>
<linearGradient id="paint14_linear_398_6003" x1="68.409" y1="55.9958" x2="62.4866" y2="58.993" gradientUnits="userSpaceOnUse">
<stop stop-color="#5A26E7"/>
<stop offset="1" stop-color="#410291"/>
</linearGradient>
<linearGradient id="paint15_linear_398_6003" x1="68.409" y1="55.9958" x2="62.4866" y2="58.993" gradientUnits="userSpaceOnUse">
<stop stop-color="#5A26E7"/>
<stop offset="1" stop-color="#410291"/>
</linearGradient>
<linearGradient id="paint16_linear_398_6003" x1="68.367" y1="37.8476" x2="62.4557" y2="40.8276" gradientUnits="userSpaceOnUse">
<stop stop-color="#5A26E7"/>
<stop offset="1" stop-color="#410291"/>
</linearGradient>
<linearGradient id="paint17_linear_398_6003" x1="68.367" y1="37.8476" x2="62.4557" y2="40.8276" gradientUnits="userSpaceOnUse">
<stop stop-color="#5A26E7"/>
<stop offset="1" stop-color="#410291"/>
</linearGradient>
<linearGradient id="paint18_linear_398_6003" x1="22.2747" y1="55.9726" x2="16.363" y2="58.953" gradientUnits="userSpaceOnUse">
<stop stop-color="#5A26E7"/>
<stop offset="1" stop-color="#410291"/>
</linearGradient>
<linearGradient id="paint19_linear_398_6003" x1="22.2747" y1="55.9726" x2="16.363" y2="58.953" gradientUnits="userSpaceOnUse">
<stop stop-color="#5A26E7"/>
<stop offset="1" stop-color="#410291"/>
</linearGradient>
<linearGradient id="paint20_linear_398_6003" x1="6.93979" y1="19.7418" x2="1.01331" y2="22.7448" gradientUnits="userSpaceOnUse">
<stop stop-color="#5A26E7"/>
<stop offset="1" stop-color="#410291"/>
</linearGradient>
<linearGradient id="paint21_linear_398_6003" x1="6.93979" y1="19.7418" x2="1.01331" y2="22.7448" gradientUnits="userSpaceOnUse">
<stop stop-color="#5A26E7"/>
<stop offset="1" stop-color="#410291"/>
</linearGradient>
<linearGradient id="paint22_linear_398_6003" x1="6.92168" y1="1.59245" x2="1.00898" y2="4.5679" gradientUnits="userSpaceOnUse">
<stop stop-color="#5A26E7"/>
<stop offset="1" stop-color="#410291"/>
</linearGradient>
<linearGradient id="paint23_linear_398_6003" x1="6.92168" y1="1.59245" x2="1.00898" y2="4.5679" gradientUnits="userSpaceOnUse">
<stop stop-color="#5A26E7"/>
<stop offset="1" stop-color="#410291"/>
</linearGradient>
<linearGradient id="paint24_linear_398_6003" x1="53.102" y1="1.58182" x2="47.1531" y2="4.59686" gradientUnits="userSpaceOnUse">
<stop stop-color="#5A26E7"/>
<stop offset="1" stop-color="#410291"/>
</linearGradient>
<linearGradient id="paint25_linear_398_6003" x1="53.102" y1="1.58182" x2="47.1531" y2="4.59686" gradientUnits="userSpaceOnUse">
<stop stop-color="#5A26E7"/>
<stop offset="1" stop-color="#410291"/>
</linearGradient>
<linearGradient id="paint26_linear_398_6003" x1="68.5007" y1="19.7254" x2="62.5686" y2="22.7259" gradientUnits="userSpaceOnUse">
<stop stop-color="#5A26E7"/>
<stop offset="1" stop-color="#410291"/>
</linearGradient>
<linearGradient id="paint27_linear_398_6003" x1="68.5007" y1="19.7254" x2="62.5686" y2="22.7259" gradientUnits="userSpaceOnUse">
<stop stop-color="#5A26E7"/>
<stop offset="1" stop-color="#410291"/>
</linearGradient>
<linearGradient id="paint28_linear_398_6003" x1="68.5027" y1="1.60732" x2="62.5732" y2="4.61216" gradientUnits="userSpaceOnUse">
<stop stop-color="#5A26E7"/>
<stop offset="1" stop-color="#410291"/>
</linearGradient>
<linearGradient id="paint29_linear_398_6003" x1="68.5027" y1="1.60732" x2="62.5732" y2="4.61216" gradientUnits="userSpaceOnUse">
<stop stop-color="#5A26E7"/>
<stop offset="1" stop-color="#410291"/>
</linearGradient>
<linearGradient id="paint30_linear_398_6003" x1="22.321" y1="19.7215" x2="16.4" y2="22.7069" gradientUnits="userSpaceOnUse">
<stop stop-color="#5A26E7"/>
<stop offset="1" stop-color="#410291"/>
</linearGradient>
<linearGradient id="paint31_linear_398_6003" x1="22.321" y1="19.7215" x2="16.4" y2="22.7069" gradientUnits="userSpaceOnUse">
<stop stop-color="#5A26E7"/>
<stop offset="1" stop-color="#410291"/>
</linearGradient>
<linearGradient id="paint32_linear_398_6003" x1="22.2897" y1="1.59141" x2="16.381" y2="4.57032" gradientUnits="userSpaceOnUse">
<stop stop-color="#5A26E7"/>
<stop offset="1" stop-color="#410291"/>
</linearGradient>
<linearGradient id="paint33_linear_398_6003" x1="22.2897" y1="1.59141" x2="16.381" y2="4.57032" gradientUnits="userSpaceOnUse">
<stop stop-color="#5A26E7"/>
<stop offset="1" stop-color="#410291"/>
</linearGradient>
<linearGradient id="paint34_linear_398_6003" x1="37.689" y1="19.7272" x2="31.7765" y2="22.7024" gradientUnits="userSpaceOnUse">
<stop stop-color="#5A26E7"/>
<stop offset="1" stop-color="#410291"/>
</linearGradient>
<linearGradient id="paint35_linear_398_6003" x1="37.689" y1="19.7272" x2="31.7765" y2="22.7024" gradientUnits="userSpaceOnUse">
<stop stop-color="#5A26E7"/>
<stop offset="1" stop-color="#410291"/>
</linearGradient>
<linearGradient id="paint36_linear_398_6003" x1="37.6858" y1="1.60728" x2="31.7563" y2="4.61248" gradientUnits="userSpaceOnUse">
<stop stop-color="#5A26E7"/>
<stop offset="1" stop-color="#410291"/>
</linearGradient>
<linearGradient id="paint37_linear_398_6003" x1="37.6858" y1="1.60728" x2="31.7563" y2="4.61248" gradientUnits="userSpaceOnUse">
<stop stop-color="#5A26E7"/>
<stop offset="1" stop-color="#410291"/>
</linearGradient>
<linearGradient id="paint38_linear_398_6003" x1="53.1016" y1="19.73" x2="47.1625" y2="22.7509" gradientUnits="userSpaceOnUse">
<stop stop-color="#5A26E7"/>
<stop offset="1" stop-color="#410291"/>
</linearGradient>
<linearGradient id="paint39_linear_398_6003" x1="53.1016" y1="19.73" x2="47.1625" y2="22.7509" gradientUnits="userSpaceOnUse">
<stop stop-color="#5A26E7"/>
<stop offset="1" stop-color="#410291"/>
</linearGradient>
</defs>
</svg>
