<svg width="25" height="24" viewBox="0 0 25 24" fill="none" xmlns="http://www.w3.org/2000/svg">
<path d="M18.5 20L22.324 16.176C22.4366 16.0636 22.4999 15.9111 22.5 15.752V10.5C22.5 10.1022 22.342 9.72064 22.0607 9.43934C21.7794 9.15804 21.3978 9 21 9V9C20.6022 9 20.2206 9.15804 19.9393 9.43934C19.658 9.72064 19.5 10.1022 19.5 10.5V15" stroke="#5A26E7" stroke-width="1.5" stroke-linecap="round" stroke-linejoin="round"/>
<path d="M18.5 16L19.358 15.142C19.4031 15.097 19.4388 15.0435 19.4632 14.9847C19.4876 14.9258 19.5001 14.8627 19.5 14.799C19.4999 14.7091 19.4747 14.621 19.4274 14.5445C19.3801 14.468 19.3124 14.4062 19.232 14.366L18.789 14.145C18.4137 13.9573 17.9889 13.8925 17.5747 13.9596C17.1604 14.0267 16.7778 14.2224 16.481 14.519L15.586 15.414C15.2109 15.789 15.0001 16.2976 15 16.828V20M6.5 20L2.676 16.176C2.56345 16.0636 2.50014 15.9111 2.5 15.752V10.5C2.5 10.1022 2.65804 9.72064 2.93934 9.43934C3.22064 9.15804 3.60218 9 4 9V9C4.39782 9 4.77936 9.15804 5.06066 9.43934C5.34196 9.72064 5.5 10.1022 5.5 10.5V15" stroke="#5A26E7" stroke-width="1.5" stroke-linecap="round" stroke-linejoin="round"/>
<path d="M6.5 16L5.642 15.142C5.59697 15.097 5.56125 15.0435 5.53688 14.9846C5.51252 14.9258 5.49999 14.8627 5.5 14.799V14.799C5.5 14.616 5.604 14.449 5.768 14.366L6.211 14.145C6.58631 13.9573 7.01114 13.8925 7.42534 13.9596C7.83955 14.0267 8.22216 14.2224 8.519 14.519L9.414 15.414C9.7891 15.789 9.99989 16.2976 10 16.828V20M14.167 12H10.833V9.667H8.5V6.333H10.833V4H14.167V6.333H16.5V9.667H14.167V12V12Z" stroke="#5A26E7" stroke-width="1.5" stroke-linecap="round" stroke-linejoin="round"/>
</svg>
