<svg width="36" height="36" viewBox="0 0 36 36" fill="none" xmlns="http://www.w3.org/2000/svg">
<path d="M19.7588 3.6C23.0936 3.6 26.2918 4.9275 28.6498 7.29045C31.0079 9.65341 32.3326 12.8583 32.3326 16.2C32.3326 16.6774 32.5218 17.1352 32.8587 17.4728C33.1956 17.8104 33.6524 18 34.1288 18C34.6052 18 35.0621 17.8104 35.399 17.4728C35.7358 17.1352 35.9251 16.6774 35.9251 16.2C35.9251 11.9035 34.2219 7.78296 31.1901 4.74487C28.1583 1.70678 24.0464 0 19.7588 0C19.2824 0 18.8255 0.189642 18.4887 0.527208C18.1518 0.864773 17.9625 1.32261 17.9625 1.8C17.9625 2.27739 18.1518 2.73523 18.4887 3.07279C18.8255 3.41036 19.2824 3.6 19.7588 3.6ZM35.476 25.038C35.3772 24.749 35.2067 24.49 34.9804 24.2853C34.7542 24.0807 34.4797 23.937 34.1827 23.868L23.4052 21.402C23.1127 21.3355 22.8082 21.3435 22.5195 21.4253C22.2308 21.507 21.9672 21.6599 21.7526 21.87C21.5012 22.104 21.4832 22.122 20.3156 24.354C16.4415 22.5651 13.3372 19.4415 11.5679 15.552C13.8491 14.4 13.8671 14.4 14.1006 14.13C14.3102 13.915 14.4628 13.6508 14.5444 13.3615C14.626 13.0723 14.634 12.7672 14.5676 12.474L12.1068 1.8C12.0379 1.50245 11.8945 1.22737 11.6903 1.00064C11.486 0.773914 11.2276 0.603004 10.9392 0.504C10.5197 0.353861 10.0865 0.245341 9.64589 0.18C9.19189 0.0745113 8.7286 0.0142188 8.26277 0C6.07135 0 3.96968 0.872355 2.42011 2.42516C0.87054 3.97796 0 6.08401 0 8.28C0.00950563 15.6289 2.92697 22.674 8.11261 27.8705C13.2982 33.0669 20.3287 35.9905 27.6623 36C28.7474 36 29.8219 35.7858 30.8243 35.3697C31.8268 34.9536 32.7377 34.3437 33.505 33.5748C34.2723 32.806 34.8809 31.8932 35.2961 30.8886C35.7114 29.884 35.9251 28.8073 35.9251 27.72C35.9257 27.2618 35.8896 26.8044 35.8173 26.352C35.7418 25.9049 35.6276 25.4652 35.476 25.038Z" fill="#5A26E7"/>
</svg>
