<svg width="56" height="55" viewBox="0 0 56 55" fill="none" xmlns="http://www.w3.org/2000/svg">
<path d="M30.6946 5.5C35.8 5.5 40.6963 7.52812 44.3064 11.1382C47.9165 14.7483 49.9446 19.6446 49.9446 24.75C49.9446 25.4793 50.2343 26.1788 50.75 26.6945C51.2658 27.2103 51.9652 27.5 52.6946 27.5C53.4239 27.5 54.1234 27.2103 54.6391 26.6945C55.1548 26.1788 55.4446 25.4793 55.4446 24.75C55.4446 18.1859 52.837 11.8906 48.1955 7.24911C43.5539 2.60758 37.2587 0 30.6946 0C29.9652 0 29.2658 0.289731 28.75 0.805456C28.2343 1.32118 27.9446 2.02065 27.9446 2.75C27.9446 3.47935 28.2343 4.17882 28.75 4.69454C29.2658 5.21027 29.9652 5.5 30.6946 5.5ZM54.7571 38.2525C54.6058 37.811 54.3447 37.4153 53.9983 37.1026C53.6519 36.7899 53.2317 36.5705 52.7771 36.465L36.2771 32.6975C35.8292 32.596 35.363 32.6082 34.9211 32.7331C34.4792 32.858 34.0755 33.0915 33.7471 33.4125C33.3621 33.77 33.3346 33.7975 31.5471 37.2075C25.6159 34.4744 20.8633 29.7024 18.1546 23.76C21.6471 22 21.6746 22 22.0321 21.5875C22.353 21.259 22.5866 20.8554 22.7115 20.4135C22.8364 19.9715 22.8486 19.5054 22.7471 19.0575L18.9796 2.75C18.8741 2.29541 18.6547 1.87514 18.342 1.52876C18.0293 1.18237 17.6335 0.921256 17.1921 0.77C16.5499 0.540621 15.8867 0.374826 15.2121 0.275C14.517 0.113837 13.8077 0.0217232 13.0946 0C9.73959 0 6.52201 1.33276 4.14968 3.7051C1.77734 6.07743 0.44458 9.29501 0.44458 12.65C0.459133 23.8775 4.92567 34.6409 12.8647 42.5799C20.8037 50.5189 31.5671 54.9854 42.7946 55C44.4558 55 46.1007 54.6728 47.6355 54.0371C49.1703 53.4014 50.5648 52.4696 51.7395 51.2949C52.9141 50.1202 53.8459 48.7257 54.4816 47.1909C55.1174 45.6562 55.4446 44.0112 55.4446 42.35C55.4454 41.65 55.3902 40.9511 55.2796 40.26C55.164 39.5769 54.9892 38.9052 54.7571 38.2525Z" fill="url(#paint0_linear_312_6399)"/>
<defs>
<linearGradient id="paint0_linear_312_6399" x1="50.5773" y1="4.84375" x2="-3.34145" y2="36.8624" gradientUnits="userSpaceOnUse">
<stop stop-color="#5A26E7"/>
<stop offset="1" stop-color="#410291"/>
</linearGradient>
</defs>
</svg>
