<svg width="88" height="56" viewBox="0 0 88 56" fill="none" xmlns="http://www.w3.org/2000/svg">
<path d="M87.0989 50.4248C83.8198 42.8974 74.0881 37.4355 62.6012 37.4355C59.2647 37.4355 56.0779 37.8968 53.1522 38.7354C57.4832 41.8072 60.6748 45.8243 62.1735 50.3613C62.9439 52.6915 61.3241 55.1355 59.0095 55.1355H84.0295C86.4555 55.1367 88.0681 52.6484 87.0989 50.4248Z" fill="url(#paint0_linear_443_7369)"/>
<path d="M62.6706 36.6468C69.7271 36.6468 75.4478 30.472 75.4478 22.8537C75.4478 15.2365 69.7283 9.06055 62.6706 9.06055C55.6141 9.06055 49.8934 15.2353 49.8934 22.8537C49.8934 30.472 55.6141 36.6468 62.6706 36.6468Z" fill="url(#paint1_linear_443_7369)"/>
<path d="M5.65926 55.1359C3.34463 55.1359 1.72607 52.6931 2.49522 50.3629C4.00356 45.7923 7.2287 41.7513 11.6076 38.6699C6.25349 41.6626 2.29874 45.9013 0.578341 50.7846C-0.190806 52.9674 1.42776 55.2557 3.74238 55.2557H57.0938C57.4053 55.2557 57.7036 55.2126 57.9864 55.1359H41.1778H5.65926Z" fill="url(#paint2_linear_443_7369)"/>
<path d="M2.49521 50.3627C1.72606 52.6929 3.34463 55.1357 5.65925 55.1357H41.1778C38.7529 55.1357 37.1415 52.6474 38.1084 50.425C40.1606 45.7119 44.7419 41.8087 50.701 39.5479C45.2811 36.1119 38.1838 34.0273 30.4145 34.0273C23.3328 34.0273 16.8083 35.7597 11.6064 38.6686C7.2287 41.7512 4.00355 45.7922 2.49521 50.3627Z" fill="url(#paint3_linear_443_7369)"/>
<path d="M60.2579 50.7853C58.6981 46.3621 55.3052 42.4685 50.7011 39.5488C44.742 41.8083 40.1607 45.7128 38.1084 50.4259C37.1404 52.6483 38.753 55.1366 41.1778 55.1366H57.9864C59.8003 54.6418 60.924 52.6746 60.2579 50.7853Z" fill="url(#paint4_linear_443_7369)"/>
<path d="M34.4459 32.527C40.9956 30.6472 45.8213 24.2029 45.8213 16.5414C45.8213 7.40633 38.9613 0 30.4983 0C22.0353 0 15.1753 7.40633 15.1753 16.5414C15.1753 24.5684 20.4719 31.2582 27.4972 32.7642C29.0726 32.5725 30.6876 32.4707 32.3325 32.4707C33.043 32.4707 33.7474 32.491 34.4459 32.527Z" fill="url(#paint5_linear_443_7369)"/>
<path d="M34.446 32.527C33.7475 32.4899 33.0431 32.4707 32.3326 32.4707C30.6877 32.4707 29.0727 32.5713 27.4973 32.7642C28.4677 32.9727 29.4717 33.0829 30.4984 33.0829C31.863 33.0829 33.1856 32.8888 34.446 32.527Z" fill="url(#paint6_linear_443_7369)"/>
<defs>
<linearGradient id="paint0_linear_443_7369" x1="84.3553" y1="38.9944" x2="64.781" y2="61.4755" gradientUnits="userSpaceOnUse">
<stop stop-color="#5A26E7"/>
<stop offset="1" stop-color="#410291"/>
</linearGradient>
<linearGradient id="paint1_linear_443_7369" x1="73.1863" y1="11.49" x2="47.1721" y2="25.8002" gradientUnits="userSpaceOnUse">
<stop stop-color="#5A26E7"/>
<stop offset="1" stop-color="#410291"/>
</linearGradient>
<linearGradient id="paint2_linear_443_7369" x1="52.8889" y1="40.1306" x2="38.349" y2="70.117" gradientUnits="userSpaceOnUse">
<stop stop-color="#5A26E7"/>
<stop offset="1" stop-color="#410291"/>
</linearGradient>
<linearGradient id="paint3_linear_443_7369" x1="46.4179" y1="35.8863" x2="23.9298" y2="66.506" gradientUnits="userSpaceOnUse">
<stop stop-color="#5A26E7"/>
<stop offset="1" stop-color="#410291"/>
</linearGradient>
<linearGradient id="paint4_linear_443_7369" x1="58.4491" y1="40.9216" x2="41.2351" y2="55.761" gradientUnits="userSpaceOnUse">
<stop stop-color="#5A26E7"/>
<stop offset="1" stop-color="#410291"/>
</linearGradient>
<linearGradient id="paint5_linear_443_7369" x1="43.1093" y1="2.88548" x2="12.0527" y2="20.1356" gradientUnits="userSpaceOnUse">
<stop stop-color="#5A26E7"/>
<stop offset="1" stop-color="#410291"/>
</linearGradient>
<linearGradient id="paint6_linear_443_7369" x1="33.8311" y1="32.5246" x2="33.6326" y2="33.8622" gradientUnits="userSpaceOnUse">
<stop stop-color="#5A26E7"/>
<stop offset="1" stop-color="#410291"/>
</linearGradient>
</defs>
</svg>
