<svg width="329" height="82" viewBox="0 0 329 82" fill="none" xmlns="http://www.w3.org/2000/svg">
<path d="M142.009 4.31149C146.757 8.72226 146.894 15.3013 142.263 19.844C137.644 24.3772 130.755 24.5073 125.995 20.0873C121.259 15.6865 121.098 8.99665 125.741 4.5547C130.255 0.0107767 137.265 -0.0981288 142.009 4.31149Z" fill="url(#paint0_linear_605_6952)" stroke="url(#paint1_linear_605_6952)" stroke-width="0.653667"/>
<path d="M186.436 77.863C181.825 73.3379 181.809 66.7582 186.573 62.3301C191.313 57.9278 198.206 57.9124 202.845 62.4632C207.456 66.9871 207.472 73.5681 202.591 77.9958C197.956 82.4085 191.063 82.4035 186.436 77.863Z" fill="url(#paint2_linear_605_6952)" stroke="url(#paint3_linear_605_6952)" stroke-width="0.653667"/>
<path d="M185.916 4.9246V4.92345C190.369 0.185558 197.379 -0.368623 202.191 3.8478C207.149 8.09962 207.726 14.7864 203.312 19.3788C198.85 24.1175 191.974 24.654 187.056 20.4599C182.066 16.3015 181.522 9.61092 185.916 4.9246Z" fill="url(#paint4_linear_605_6952)" stroke="url(#paint5_linear_605_6952)" stroke-width="0.653667"/>
<path d="M247.399 78.2264L247.395 78.226C242.542 73.8352 242.252 67.2574 246.775 62.6946V62.6938C251.374 58.0591 258.262 57.7816 263.042 62.0981V62.0985C267.899 66.4896 268.19 73.0671 263.667 77.6302V77.6306C259.068 82.2654 252.18 82.5429 247.399 78.2264Z" fill="url(#paint6_linear_605_6952)" stroke="url(#paint7_linear_605_6952)" stroke-width="0.653667"/>
<path d="M263.212 20.2111V20.2115C258.456 24.5083 251.571 24.3779 246.956 19.847C242.325 15.3031 242.458 8.71945 247.331 4.30907C252.079 -0.0978543 259.092 0.0145214 263.607 4.67891C268.226 9.22438 268.085 15.8042 263.212 20.2111Z" fill="url(#paint8_linear_605_6952)" stroke="url(#paint9_linear_605_6952)" stroke-width="0.653667"/>
<path d="M324.193 77.8639L324.181 77.8754C319.457 82.3874 312.576 82.5329 307.808 78.1067C303.068 73.7044 302.915 67.0103 307.562 62.5684C312.181 58.0406 319.182 57.9132 323.939 62.3313C328.687 66.7421 328.824 73.3211 324.193 77.8639Z" fill="url(#paint10_linear_605_6952)" stroke="url(#paint11_linear_605_6952)" stroke-width="0.653667"/>
<path d="M307.977 20.2088L307.965 20.1973C303.241 15.8127 302.934 9.1182 307.598 4.65894C312.201 0.148876 319.202 -0.123207 323.979 4.31181C328.707 8.70488 328.997 15.2835 324.349 19.8444L324.337 19.8559C319.613 24.3656 312.741 24.5114 307.977 20.2088Z" fill="url(#paint12_linear_605_6952)" stroke="url(#paint13_linear_605_6952)" stroke-width="0.653667"/>
<path d="M20.9719 62.5116C25.5991 67.0547 25.4662 73.6337 20.718 78.0441C15.9578 82.4645 9.06525 82.3344 4.44607 77.8013C-0.185202 73.2585 -0.0482048 66.6795 4.69996 62.2687C9.46021 57.8487 16.3487 57.9784 20.9719 62.5116Z" fill="url(#paint14_linear_605_6952)" stroke="url(#paint15_linear_605_6952)" stroke-width="0.653667"/>
<path d="M4.50198 4.5431C9.1131 0.029576 16.1185 -0.114734 20.7659 4.31759C25.5261 8.74375 25.51 15.3158 20.9069 19.8386C16.2676 24.5061 9.37105 24.4907 4.63095 20.0872C-0.109151 15.6841 -0.266339 8.98466 4.50198 4.5431Z" fill="url(#paint16_linear_605_6952)" stroke="url(#paint17_linear_605_6952)" stroke-width="0.653667"/>
<path d="M81.549 77.7566C76.8331 82.3818 69.9285 82.5503 65.269 77.9879C60.541 73.5868 60.3878 66.8992 65.144 62.4611C69.6624 57.9226 76.6638 57.816 81.412 62.2237C86.1763 66.6518 86.1601 73.2316 81.549 77.7566Z" fill="url(#paint18_linear_605_6952)" stroke="url(#paint19_linear_605_6952)" stroke-width="0.653667"/>
<path d="M81.2263 4.08042V4.08081C86.0792 8.47002 86.3735 15.0444 81.8551 19.6072C77.252 24.3651 70.3636 24.626 65.4784 20.3296L65.4663 20.318C60.6134 15.9292 60.3191 9.35479 64.8375 4.79201C69.4366 0.0402593 76.4459 -0.236442 81.2263 4.08042Z" fill="url(#paint20_linear_605_6952)" stroke="url(#paint21_linear_605_6952)" stroke-width="0.653667"/>
<path d="M142.312 77.8637L142.299 77.8753C137.571 82.3873 130.691 82.5327 125.923 78.1066C121.183 73.7043 121.029 67.0102 125.677 62.5682C130.296 58.0405 137.297 57.9135 142.053 62.3312C146.806 66.7419 146.939 73.3209 142.312 77.8637Z" fill="url(#paint22_linear_605_6952)" stroke="url(#paint23_linear_605_6952)" stroke-width="0.653667"/>
<defs>
<linearGradient id="paint0_linear_605_6952" x1="143.592" y1="3.03377" x2="121.309" y2="16.894" gradientUnits="userSpaceOnUse">
<stop stop-color="#5A26E7"/>
<stop offset="1" stop-color="#410291"/>
</linearGradient>
<linearGradient id="paint1_linear_605_6952" x1="143.592" y1="3.03377" x2="121.309" y2="16.894" gradientUnits="userSpaceOnUse">
<stop stop-color="#5A26E7"/>
<stop offset="1" stop-color="#410291"/>
</linearGradient>
<linearGradient id="paint2_linear_605_6952" x1="204.217" y1="60.9984" x2="181.942" y2="74.8454" gradientUnits="userSpaceOnUse">
<stop stop-color="#5A26E7"/>
<stop offset="1" stop-color="#410291"/>
</linearGradient>
<linearGradient id="paint3_linear_605_6952" x1="204.217" y1="60.9984" x2="181.942" y2="74.8454" gradientUnits="userSpaceOnUse">
<stop stop-color="#5A26E7"/>
<stop offset="1" stop-color="#410291"/>
</linearGradient>
<linearGradient id="paint4_linear_605_6952" x1="204.228" y1="2.96362" x2="181.897" y2="16.8542" gradientUnits="userSpaceOnUse">
<stop stop-color="#5A26E7"/>
<stop offset="1" stop-color="#410291"/>
</linearGradient>
<linearGradient id="paint5_linear_605_6952" x1="204.228" y1="2.96362" x2="181.897" y2="16.8542" gradientUnits="userSpaceOnUse">
<stop stop-color="#5A26E7"/>
<stop offset="1" stop-color="#410291"/>
</linearGradient>
<linearGradient id="paint6_linear_605_6952" x1="264.817" y1="60.9918" x2="242.521" y2="74.8607" gradientUnits="userSpaceOnUse">
<stop stop-color="#5A26E7"/>
<stop offset="1" stop-color="#410291"/>
</linearGradient>
<linearGradient id="paint7_linear_605_6952" x1="264.817" y1="60.9918" x2="242.521" y2="74.8607" gradientUnits="userSpaceOnUse">
<stop stop-color="#5A26E7"/>
<stop offset="1" stop-color="#410291"/>
</linearGradient>
<linearGradient id="paint8_linear_605_6952" x1="264.901" y1="3.04957" x2="242.579" y2="16.9858" gradientUnits="userSpaceOnUse">
<stop stop-color="#5A26E7"/>
<stop offset="1" stop-color="#410291"/>
</linearGradient>
<linearGradient id="paint9_linear_605_6952" x1="264.901" y1="3.04957" x2="242.579" y2="16.9858" gradientUnits="userSpaceOnUse">
<stop stop-color="#5A26E7"/>
<stop offset="1" stop-color="#410291"/>
</linearGradient>
<linearGradient id="paint10_linear_605_6952" x1="325.512" y1="61.0533" x2="303.18" y2="75.0127" gradientUnits="userSpaceOnUse">
<stop stop-color="#5A26E7"/>
<stop offset="1" stop-color="#410291"/>
</linearGradient>
<linearGradient id="paint11_linear_605_6952" x1="325.512" y1="61.0533" x2="303.18" y2="75.0127" gradientUnits="userSpaceOnUse">
<stop stop-color="#5A26E7"/>
<stop offset="1" stop-color="#410291"/>
</linearGradient>
<linearGradient id="paint12_linear_605_6952" x1="325.611" y1="3.08318" x2="303.297" y2="17.0584" gradientUnits="userSpaceOnUse">
<stop stop-color="#5A26E7"/>
<stop offset="1" stop-color="#410291"/>
</linearGradient>
<linearGradient id="paint13_linear_605_6952" x1="325.611" y1="3.08318" x2="303.297" y2="17.0584" gradientUnits="userSpaceOnUse">
<stop stop-color="#5A26E7"/>
<stop offset="1" stop-color="#410291"/>
</linearGradient>
<linearGradient id="paint14_linear_605_6952" x1="22.2996" y1="60.9908" x2="0.0151208" y2="74.853" gradientUnits="userSpaceOnUse">
<stop stop-color="#5A26E7"/>
<stop offset="1" stop-color="#410291"/>
</linearGradient>
<linearGradient id="paint15_linear_605_6952" x1="22.2996" y1="60.9908" x2="0.0151208" y2="74.853" gradientUnits="userSpaceOnUse">
<stop stop-color="#5A26E7"/>
<stop offset="1" stop-color="#410291"/>
</linearGradient>
<linearGradient id="paint16_linear_605_6952" x1="22.2816" y1="3.03733" x2="-0.0421882" y2="16.9225" gradientUnits="userSpaceOnUse">
<stop stop-color="#5A26E7"/>
<stop offset="1" stop-color="#410291"/>
</linearGradient>
<linearGradient id="paint17_linear_605_6952" x1="22.2816" y1="3.03733" x2="-0.0421882" y2="16.9225" gradientUnits="userSpaceOnUse">
<stop stop-color="#5A26E7"/>
<stop offset="1" stop-color="#410291"/>
</linearGradient>
<linearGradient id="paint18_linear_605_6952" x1="82.9303" y1="60.9531" x2="60.5833" y2="74.8262" gradientUnits="userSpaceOnUse">
<stop stop-color="#5A26E7"/>
<stop offset="1" stop-color="#410291"/>
</linearGradient>
<linearGradient id="paint19_linear_605_6952" x1="82.9303" y1="60.9531" x2="60.5833" y2="74.8262" gradientUnits="userSpaceOnUse">
<stop stop-color="#5A26E7"/>
<stop offset="1" stop-color="#410291"/>
</linearGradient>
<linearGradient id="paint20_linear_605_6952" x1="82.9896" y1="2.99357" x2="60.5971" y2="16.9371" gradientUnits="userSpaceOnUse">
<stop stop-color="#5A26E7"/>
<stop offset="1" stop-color="#410291"/>
</linearGradient>
<linearGradient id="paint21_linear_605_6952" x1="82.9896" y1="2.99357" x2="60.5971" y2="16.9371" gradientUnits="userSpaceOnUse">
<stop stop-color="#5A26E7"/>
<stop offset="1" stop-color="#410291"/>
</linearGradient>
<linearGradient id="paint22_linear_605_6952" x1="143.628" y1="61.0533" x2="121.296" y2="75.0145" gradientUnits="userSpaceOnUse">
<stop stop-color="#5A26E7"/>
<stop offset="1" stop-color="#410291"/>
</linearGradient>
<linearGradient id="paint23_linear_605_6952" x1="143.628" y1="61.0533" x2="121.296" y2="75.0145" gradientUnits="userSpaceOnUse">
<stop stop-color="#5A26E7"/>
<stop offset="1" stop-color="#410291"/>
</linearGradient>
</defs>
</svg>
