<svg width="1440" height="1294" viewBox="0 0 1440 1294" fill="none" xmlns="http://www.w3.org/2000/svg">
<path d="M240.206 674.986C252.622 687.064 252.975 705.023 240.867 717.461C228.789 729.877 210.831 730.222 198.392 718.122C185.992 706.059 185.601 687.792 197.724 675.654C209.516 663.216 227.783 662.908 240.206 674.986Z" fill="#9F85E5" fill-opacity="0.05"/>
<path d="M240.206 23.0837C252.622 35.1614 252.975 53.1203 240.867 65.5586C228.789 77.9744 210.831 78.3198 198.392 66.2195C185.992 54.1567 185.601 35.8899 197.724 23.7521C209.516 11.3138 227.783 11.0059 240.206 23.0837Z" fill="#9F85E5" fill-opacity="0.05"/>
<path d="M364.041 676.655C375.72 663.646 393.987 662.174 406.531 673.689C419.532 685.361 420.997 703.62 409.483 716.156C397.795 729.165 379.866 730.6 367.038 719.13C353.968 707.736 352.579 689.469 364.041 676.655Z" fill="#9F85E5" fill-opacity="0.05"/>
<path d="M364.041 24.7549C375.72 11.7458 393.987 10.2737 406.531 21.7881C419.532 33.4603 420.997 51.7196 409.483 64.2555C397.795 77.2647 379.866 78.6992 367.038 67.2299C353.968 55.8356 352.579 37.5688 364.041 24.7549Z" fill="#9F85E5" fill-opacity="0.05"/>
<path d="M575.094 718.465H575.087C562.656 730.228 544.712 729.875 532.634 717.466C520.534 705.028 520.88 687.062 533.626 674.984C546.049 662.906 564.331 663.222 576.116 675.998C588.201 688.436 587.841 706.388 575.094 718.465Z" fill="#9F85E5" fill-opacity="0.05"/>
<path d="M575.094 66.5631H575.087C562.656 78.3254 544.712 77.9724 532.634 65.5641C520.534 53.1259 520.88 35.1594 533.626 23.0816C546.049 11.0039 564.331 11.3194 576.116 24.0957C588.201 36.534 587.841 54.4853 575.094 66.5631Z" fill="#9F85E5" fill-opacity="0.05"/>
<path d="M701.175 718.462L701.152 718.439C688.781 706.407 688.015 688.132 700.183 675.957C712.231 663.586 730.49 662.858 742.959 674.988C755.344 687.036 756.073 704.987 743.935 717.463L743.912 717.485C731.542 729.856 713.621 730.239 701.175 718.462Z" fill="#9F85E5" fill-opacity="0.05"/>
<path d="M701.175 66.5634L701.152 66.5409C688.781 54.5082 688.015 36.2338 700.183 24.0584C712.231 11.6877 730.49 10.9591 742.959 23.0895C755.344 35.1372 756.073 53.0886 743.935 65.5644L743.912 65.5869C731.542 77.9576 713.621 78.3407 701.175 66.5634Z" fill="#9F85E5" fill-opacity="0.05"/>
<path d="M72.2904 674.342C84.9991 686.382 85.7425 704.326 73.9426 716.802C61.8874 729.856 43.9437 730.554 31.175 718.792L31.1447 718.77C18.436 706.729 17.7001 688.786 29.4925 676.31C41.5402 663.278 59.8146 662.542 72.2904 674.342Z" fill="#9F85E5" fill-opacity="0.05"/>
<path d="M72.2904 22.4375C84.9991 34.4777 85.7425 52.4215 73.9426 64.8974C61.8874 77.9516 43.9437 78.6502 31.175 66.8879L31.1447 66.8652C18.436 54.825 17.7001 36.8812 29.4925 24.4054C41.5402 11.3737 59.8146 10.6377 72.2904 22.4375Z" fill="#9F85E5" fill-opacity="0.05"/>
<path d="M1077.97 674.985C1090.38 687.063 1090.73 705.022 1078.63 717.46C1066.55 729.876 1048.59 730.221 1036.15 718.121C1023.75 706.058 1023.37 687.784 1035.5 675.639C1047.58 663.238 1065.53 662.892 1077.97 674.985Z" fill="#9F85E5" fill-opacity="0.05"/>
<path d="M1077.97 23.0828C1090.38 35.1606 1090.73 53.1195 1078.63 65.5578C1066.55 77.9736 1048.59 78.3189 1036.15 66.2186C1023.75 54.1559 1023.37 35.8817 1035.5 23.7363C1047.58 11.3356 1065.53 10.9901 1077.97 23.0828Z" fill="#9F85E5" fill-opacity="0.05"/>
<path d="M1201.81 676.655C1213.49 663.646 1231.75 662.174 1244.29 673.689C1257.29 685.361 1258.76 703.62 1247.25 716.156C1235.56 729.165 1217.63 730.6 1204.8 719.13C1191.74 707.736 1190.34 689.469 1201.81 676.655Z" fill="#9F85E5" fill-opacity="0.05"/>
<path d="M1201.81 24.7549C1213.49 11.7458 1231.75 10.2737 1244.29 21.7881C1257.29 33.4603 1258.76 51.7196 1247.25 64.2555C1235.56 77.2647 1217.63 78.6992 1204.8 67.2299C1191.74 55.8356 1190.34 37.5688 1201.81 24.7549Z" fill="#9F85E5" fill-opacity="0.05"/>
<path d="M1412.85 718.465C1400.41 730.228 1382.47 729.875 1370.39 717.466C1358.29 705.028 1358.64 687.062 1371.39 674.984C1383.8 662.906 1402.08 663.222 1413.87 675.998C1425.95 688.436 1425.59 706.388 1412.85 718.465Z" fill="#9F85E5" fill-opacity="0.05"/>
<path d="M1412.85 66.5631C1400.41 78.3254 1382.47 77.9724 1370.39 65.5641C1358.29 53.1259 1358.64 35.1594 1371.39 23.0816C1383.8 11.0039 1402.08 11.3194 1413.87 24.0957C1425.95 36.534 1425.59 54.4853 1412.85 66.5631Z" fill="#9F85E5" fill-opacity="0.05"/>
<path d="M910.049 674.349H910.057C922.766 686.397 923.502 704.349 911.702 716.824C899.654 729.533 881.702 730.269 869.226 718.469H869.219C856.51 706.429 855.774 688.485 867.566 676.009C879.321 663.263 897.596 662.565 910.049 674.349Z" fill="#9F85E5" fill-opacity="0.05"/>
<path d="M910.049 22.4452H910.057C922.766 34.4929 923.502 52.4443 911.702 64.9202C899.654 77.6288 881.702 78.3649 869.226 66.565H869.219C856.51 54.5248 855.774 36.5808 867.566 24.105C879.321 11.3587 897.596 10.6604 910.049 22.4452Z" fill="#9F85E5" fill-opacity="0.05"/>
<path d="M148.09 788.361C160.505 800.439 160.858 818.398 148.75 830.836C136.673 843.252 118.714 843.597 106.276 831.497C93.8748 819.434 93.4843 801.167 105.607 789.029C117.399 776.591 135.666 776.283 148.09 788.361Z" fill="#9F85E5" fill-opacity="0.05"/>
<path d="M148.09 136.459C160.505 148.536 160.858 166.495 148.75 178.934C136.673 191.349 118.714 191.695 106.276 179.594C93.8748 167.532 93.4843 149.265 105.607 137.127C117.399 124.689 135.666 124.381 148.09 136.459Z" fill="#9F85E5" fill-opacity="0.05"/>
<path d="M247.292 901.736C259.708 913.814 260.061 931.773 247.953 944.211C235.875 956.627 217.916 956.972 205.478 944.872C193.077 932.809 192.687 914.542 204.81 902.404C216.602 889.966 234.869 889.658 247.292 901.736Z" fill="#9F85E5" fill-opacity="0.05"/>
<path d="M247.292 249.834C259.708 261.911 260.061 279.87 247.953 292.309C235.875 304.724 217.916 305.07 205.478 292.969C193.077 280.907 192.687 262.64 204.81 250.502C216.602 238.064 234.869 237.756 247.292 249.834Z" fill="#9F85E5" fill-opacity="0.05"/>
<path d="M148.09 1015.11C160.505 1027.18 160.858 1045.14 148.75 1057.58C136.673 1070 118.714 1070.34 106.276 1058.24C93.8748 1046.18 93.4843 1027.91 105.607 1015.78C117.399 1003.34 135.666 1003.03 148.09 1015.11Z" fill="#9F85E5" fill-opacity="0.05"/>
<path d="M148.09 363.209C160.505 375.286 160.858 393.245 148.75 405.684C136.673 418.099 118.714 418.445 106.276 406.344C93.8748 394.282 93.4843 376.015 105.607 363.877C117.399 351.439 135.666 351.131 148.09 363.209Z" fill="#9F85E5" fill-opacity="0.05"/>
<path d="M261.464 1128.48C273.88 1140.56 274.233 1158.52 262.125 1170.96C250.047 1183.37 232.088 1183.72 219.65 1171.62C207.249 1159.56 206.859 1141.29 218.982 1129.15C230.774 1116.71 249.041 1116.4 261.464 1128.48Z" fill="#9F85E5" fill-opacity="0.05"/>
<path d="M261.464 476.582C273.88 488.659 274.233 506.618 262.125 519.057C250.047 531.472 232.088 531.818 219.65 519.718C207.249 507.655 206.859 489.388 218.982 477.25C230.774 464.812 249.041 464.504 261.464 476.582Z" fill="#9F85E5" fill-opacity="0.05"/>
<path d="M148.09 1241.86C160.505 1253.93 160.858 1271.89 148.75 1284.33C136.673 1296.75 118.714 1297.09 106.276 1284.99C93.8748 1272.93 93.4843 1254.66 105.607 1242.53C117.399 1230.09 135.666 1229.78 148.09 1241.86Z" fill="#9F85E5" fill-opacity="0.05"/>
<path d="M148.09 589.957C160.505 602.034 160.858 619.993 148.75 632.432C136.673 644.847 118.714 645.193 106.276 633.093C93.8748 621.03 93.4843 602.763 105.607 590.625C117.399 578.187 135.666 577.879 148.09 589.957Z" fill="#9F85E5" fill-opacity="0.05"/>
<path d="M271.924 790.03C283.604 777.021 301.87 775.549 314.414 787.064C327.416 798.736 328.88 816.995 317.366 829.531C305.679 842.54 287.75 843.975 274.921 832.505C261.852 821.111 260.462 802.844 271.924 790.03Z" fill="#9F85E5" fill-opacity="0.05"/>
<path d="M271.924 138.13C283.604 125.121 301.87 123.649 314.414 135.163C327.416 146.835 328.88 165.095 317.366 177.631C305.679 190.64 287.75 192.074 274.921 180.605C261.852 169.211 260.462 150.944 271.924 138.13Z" fill="#9F85E5" fill-opacity="0.05"/>
<path d="M371.127 903.405C382.806 890.396 401.073 888.924 413.617 900.439C426.618 912.111 428.083 930.37 416.568 942.906C404.881 955.915 386.952 957.35 374.124 945.88C361.054 934.486 359.665 916.219 371.127 903.405Z" fill="#9F85E5" fill-opacity="0.05"/>
<path d="M371.127 251.505C382.806 238.496 401.073 237.024 413.617 248.538C426.618 260.21 428.083 278.47 416.568 291.006C404.881 304.015 386.952 305.449 374.124 293.98C361.054 282.586 359.665 264.319 371.127 251.505Z" fill="#9F85E5" fill-opacity="0.05"/>
<path d="M271.924 1016.78C283.604 1003.77 301.87 1002.3 314.414 1013.81C327.416 1025.48 328.88 1043.74 317.366 1056.28C305.679 1069.29 287.75 1070.72 274.921 1059.25C261.852 1047.86 260.462 1029.59 271.924 1016.78Z" fill="#9F85E5" fill-opacity="0.05"/>
<path d="M271.924 364.88C283.604 351.871 301.87 350.399 314.414 361.913C327.416 373.585 328.88 391.845 317.366 404.381C305.679 417.39 287.75 418.824 274.921 407.355C261.852 395.961 260.462 377.694 271.924 364.88Z" fill="#9F85E5" fill-opacity="0.05"/>
<path d="M385.299 1130.15C396.978 1117.14 415.245 1115.67 427.788 1127.19C440.79 1138.86 442.255 1157.12 430.74 1169.65C419.053 1182.66 401.124 1184.1 388.295 1172.63C375.226 1161.23 373.837 1142.97 385.299 1130.15Z" fill="#9F85E5" fill-opacity="0.05"/>
<path d="M385.299 478.251C396.978 465.242 415.245 463.77 427.788 475.284C440.79 486.956 442.255 505.216 430.74 517.752C419.053 530.761 401.124 532.195 388.295 520.726C375.226 509.332 373.837 491.065 385.299 478.251Z" fill="#9F85E5" fill-opacity="0.05"/>
<path d="M271.924 1243.53C283.604 1230.52 301.87 1229.05 314.414 1240.56C327.416 1252.23 328.88 1270.49 317.366 1283.03C305.679 1296.04 287.75 1297.47 274.921 1286C261.852 1274.61 260.462 1256.34 271.924 1243.53Z" fill="#9F85E5" fill-opacity="0.05"/>
<path d="M271.924 591.626C283.604 578.617 301.87 577.145 314.414 588.659C327.416 600.331 328.88 618.591 317.366 631.127C305.679 644.136 287.75 645.57 274.921 634.101C261.852 622.707 260.462 604.44 271.924 591.626Z" fill="#9F85E5" fill-opacity="0.05"/>
<path d="M482.978 831.84H482.97C470.539 843.603 452.595 843.25 440.518 830.841C428.417 818.403 428.763 800.437 441.509 788.359C453.932 776.281 472.214 776.597 483.999 789.373C496.084 801.811 495.724 819.763 482.978 831.84Z" fill="#9F85E5" fill-opacity="0.05"/>
<path d="M482.978 179.938H482.97C470.539 191.7 452.595 191.347 440.518 178.939C428.417 166.501 428.763 148.534 441.509 136.457C453.932 124.379 472.214 124.694 483.999 137.471C496.084 149.909 495.724 167.86 482.978 179.938Z" fill="#9F85E5" fill-opacity="0.05"/>
<path d="M582.18 945.215H582.173C569.742 956.978 551.798 956.625 539.72 944.216C527.62 931.778 527.966 913.812 540.712 901.734C553.135 889.656 571.417 889.972 583.202 902.748C595.287 915.186 594.927 933.138 582.18 945.215Z" fill="#9F85E5" fill-opacity="0.05"/>
<path d="M582.18 293.313H582.173C569.742 305.075 551.798 304.722 539.72 292.314C527.62 279.876 527.966 261.909 540.712 249.832C553.135 237.754 571.417 238.069 583.202 250.846C595.287 263.284 594.927 281.235 582.18 293.313Z" fill="#9F85E5" fill-opacity="0.05"/>
<path d="M482.978 1058.59H482.97C470.539 1070.35 452.595 1070 440.518 1057.59C428.417 1045.15 428.763 1027.19 441.509 1015.11C453.932 1003.03 472.214 1003.35 483.999 1016.12C496.084 1028.56 495.724 1046.51 482.978 1058.59Z" fill="#9F85E5" fill-opacity="0.05"/>
<path d="M482.978 406.688H482.97C470.539 418.45 452.595 418.097 440.518 405.689C428.417 393.251 428.763 375.284 441.509 363.207C453.932 351.129 472.214 351.444 483.999 364.221C496.084 376.659 495.724 394.61 482.978 406.688Z" fill="#9F85E5" fill-opacity="0.05"/>
<path d="M596.352 1171.96H596.344C583.913 1183.72 565.97 1183.37 553.892 1170.96C541.792 1158.52 542.137 1140.56 554.883 1128.48C567.307 1116.4 585.589 1116.72 597.373 1129.49C609.459 1141.93 609.098 1159.88 596.352 1171.96Z" fill="#9F85E5" fill-opacity="0.05"/>
<path d="M596.352 520.063H596.344C583.913 531.825 565.97 531.472 553.892 519.064C541.792 506.626 542.137 488.659 554.883 476.582C567.307 464.504 585.589 464.819 597.373 477.596C609.459 490.034 609.098 507.985 596.352 520.063Z" fill="#9F85E5" fill-opacity="0.05"/>
<path d="M482.978 1285.34H482.97C470.539 1297.1 452.595 1296.75 440.518 1284.34C428.417 1271.9 428.763 1253.93 441.509 1241.86C453.932 1229.78 472.214 1230.09 483.999 1242.87C496.084 1255.31 495.724 1273.26 482.978 1285.34Z" fill="#9F85E5" fill-opacity="0.05"/>
<path d="M482.978 633.436H482.97C470.539 645.198 452.595 644.845 440.518 632.437C428.417 619.999 428.763 602.032 441.509 589.955C453.932 577.877 472.214 578.192 483.999 590.969C496.084 603.407 495.724 621.358 482.978 633.436Z" fill="#9F85E5" fill-opacity="0.05"/>
<path d="M609.058 831.837L609.035 831.814C596.665 819.782 595.899 801.507 608.067 789.332C620.114 776.961 638.374 776.233 650.842 788.363C663.228 800.411 663.956 818.362 651.818 830.838L651.796 830.86C639.425 843.231 621.504 843.614 609.058 831.837Z" fill="#9F85E5" fill-opacity="0.05"/>
<path d="M609.058 179.938L609.035 179.916C596.665 167.883 595.899 149.609 608.067 137.433C620.114 125.063 638.374 124.334 650.842 136.464C663.228 148.512 663.956 166.464 651.818 178.939L651.796 178.962C639.425 191.333 621.504 191.716 609.058 179.938Z" fill="#9F85E5" fill-opacity="0.05"/>
<path d="M708.26 945.212L708.237 945.189C695.867 933.157 695.101 914.882 707.269 902.707C719.316 890.336 737.576 889.608 750.044 901.738C762.43 913.786 763.158 931.737 751.021 944.213L750.998 944.235C738.627 956.606 720.706 956.989 708.26 945.212Z" fill="#9F85E5" fill-opacity="0.05"/>
<path d="M708.26 293.309L708.237 293.287C695.867 281.254 695.101 262.98 707.269 250.804C719.316 238.434 737.576 237.705 750.044 249.836C762.43 261.883 763.158 279.835 751.021 292.311L750.998 292.333C738.627 304.704 720.706 305.087 708.26 293.309Z" fill="#9F85E5" fill-opacity="0.05"/>
<path d="M609.058 1058.59L609.035 1058.56C596.665 1046.53 595.899 1028.26 608.067 1016.08C620.114 1003.71 638.374 1002.98 650.842 1015.11C663.228 1027.16 663.956 1045.11 651.818 1057.59L651.796 1057.61C639.425 1069.98 621.504 1070.36 609.058 1058.59Z" fill="#9F85E5" fill-opacity="0.05"/>
<path d="M609.058 406.684L609.035 406.662C596.665 394.629 595.899 376.355 608.067 364.179C620.114 351.809 638.374 351.08 650.842 363.211C663.228 375.258 663.956 393.21 651.818 405.686L651.796 405.708C639.425 418.079 621.504 418.462 609.058 406.684Z" fill="#9F85E5" fill-opacity="0.05"/>
<path d="M722.432 1171.96L722.409 1171.94C710.038 1159.91 709.272 1141.63 721.44 1129.46C733.488 1117.09 751.747 1116.36 764.216 1128.49C776.601 1140.54 777.33 1158.49 765.192 1170.96L765.169 1170.99C752.799 1183.36 734.878 1183.74 722.432 1171.96Z" fill="#9F85E5" fill-opacity="0.05"/>
<path d="M722.432 520.059L722.409 520.037C710.038 508.004 709.272 489.73 721.44 477.554C733.488 465.184 751.747 464.455 764.216 476.586C776.601 488.633 777.33 506.585 765.192 519.061L765.169 519.083C752.799 531.454 734.878 531.837 722.432 520.059Z" fill="#9F85E5" fill-opacity="0.05"/>
<path d="M609.058 1285.33L609.035 1285.31C596.665 1273.28 595.899 1255.01 608.067 1242.83C620.114 1230.46 638.374 1229.73 650.842 1241.86C663.228 1253.91 663.956 1271.86 651.818 1284.34L651.796 1284.36C639.425 1296.73 621.504 1297.11 609.058 1285.33Z" fill="#9F85E5" fill-opacity="0.05"/>
<path d="M609.058 633.434L609.035 633.412C596.665 621.379 595.899 603.105 608.067 590.929C620.114 578.559 638.374 577.83 650.842 589.961C663.228 602.008 663.956 619.96 651.818 632.436L651.796 632.458C639.425 644.829 621.504 645.212 609.058 633.434Z" fill="#9F85E5" fill-opacity="0.05"/>
<path d="M79.3764 901.088C92.085 913.128 92.8284 931.072 81.0286 943.548C68.9733 956.602 51.0297 957.301 38.2609 945.538L38.2306 945.516C25.5219 933.475 24.7861 915.532 36.5784 903.056C48.6261 890.024 66.9005 889.288 79.3764 901.088Z" fill="#9F85E5" fill-opacity="0.05"/>
<path d="M79.3764 249.188C92.085 261.228 92.8284 279.172 81.0286 291.647C68.9733 304.702 51.0297 305.4 38.2609 293.638L38.2306 293.615C25.5219 281.575 24.7861 263.631 36.5784 251.155C48.6261 238.124 66.9005 237.388 79.3764 249.188Z" fill="#9F85E5" fill-opacity="0.05"/>
<path d="M93.5481 1127.84C106.257 1139.88 107 1157.82 95.2003 1170.3C83.1451 1183.35 65.2014 1184.05 52.4326 1172.29L52.4024 1172.26C39.6937 1160.22 38.9578 1142.28 50.7502 1129.8C62.7979 1116.77 81.0723 1116.04 93.5481 1127.84Z" fill="#9F85E5" fill-opacity="0.05"/>
<path d="M93.5481 475.938C106.257 487.978 107 505.922 95.2003 518.397C83.1451 531.452 65.2014 532.15 52.4326 520.388L52.4024 520.365C39.6937 508.325 38.9578 490.381 50.7502 477.905C62.7979 464.874 81.0723 464.138 93.5481 475.938Z" fill="#9F85E5" fill-opacity="0.05"/>
<path d="M985.849 788.36C998.265 800.438 998.618 818.397 986.518 830.835C974.433 843.251 956.474 843.596 944.035 831.496C931.635 819.433 931.252 801.159 943.382 789.014C955.467 776.613 973.411 776.267 985.849 788.36Z" fill="#9F85E5" fill-opacity="0.05"/>
<path d="M985.849 136.458C998.265 148.536 998.618 166.495 986.518 178.933C974.433 191.349 956.474 191.694 944.035 179.594C931.635 167.531 931.252 149.257 943.382 137.111C955.467 124.711 973.411 124.365 985.849 136.458Z" fill="#9F85E5" fill-opacity="0.05"/>
<path d="M1085.05 901.735C1097.47 913.813 1097.82 931.772 1085.72 944.21C1073.64 956.626 1055.68 956.971 1043.24 944.871C1030.84 932.808 1030.45 914.534 1042.58 902.389C1054.67 889.988 1072.61 889.642 1085.05 901.735Z" fill="#9F85E5" fill-opacity="0.05"/>
<path d="M1085.05 249.833C1097.47 261.911 1097.82 279.87 1085.72 292.308C1073.64 304.724 1055.68 305.069 1043.24 292.969C1030.84 280.906 1030.45 262.632 1042.58 250.486C1054.67 238.086 1072.61 237.74 1085.05 249.833Z" fill="#9F85E5" fill-opacity="0.05"/>
<path d="M985.849 1015.11C998.265 1027.18 998.618 1045.14 986.518 1057.58C974.433 1070 956.474 1070.34 944.035 1058.24C931.635 1046.18 931.252 1027.91 943.382 1015.76C955.467 1003.36 973.411 1003.01 985.849 1015.11Z" fill="#9F85E5" fill-opacity="0.05"/>
<path d="M985.849 363.208C998.265 375.286 998.618 393.245 986.518 405.683C974.433 418.099 956.474 418.444 944.035 406.344C931.635 394.281 931.252 376.007 943.382 363.861C955.467 351.461 973.411 351.115 985.849 363.208Z" fill="#9F85E5" fill-opacity="0.05"/>
<path d="M1099.22 1128.48C1111.64 1140.56 1111.99 1158.52 1099.89 1170.96C1087.81 1183.37 1069.85 1183.72 1057.41 1171.62C1045.01 1159.55 1044.63 1141.28 1056.76 1129.13C1068.84 1116.73 1086.79 1116.39 1099.22 1128.48Z" fill="#9F85E5" fill-opacity="0.05"/>
<path d="M1099.22 476.581C1111.64 488.659 1111.99 506.618 1099.89 519.056C1087.81 531.472 1069.85 531.817 1057.41 519.717C1045.01 507.654 1044.63 489.38 1056.76 477.234C1068.84 464.834 1086.79 464.488 1099.22 476.581Z" fill="#9F85E5" fill-opacity="0.05"/>
<path d="M985.849 1241.86C998.265 1253.93 998.618 1271.89 986.518 1284.33C974.433 1296.75 956.474 1297.09 944.035 1284.99C931.635 1272.93 931.252 1254.66 943.382 1242.51C955.467 1230.11 973.411 1229.76 985.849 1241.86Z" fill="#9F85E5" fill-opacity="0.05"/>
<path d="M985.849 589.956C998.265 602.034 998.618 619.993 986.518 632.431C974.433 644.847 956.474 645.192 944.035 633.092C931.635 621.029 931.252 602.755 943.382 590.609C955.467 578.209 973.411 577.863 985.849 589.956Z" fill="#9F85E5" fill-opacity="0.05"/>
<path d="M1109.69 790.03C1121.37 777.021 1139.64 775.549 1152.17 787.064C1165.18 798.736 1166.64 816.995 1155.13 829.531C1143.45 842.54 1125.51 843.975 1112.68 832.505C1099.62 821.111 1098.22 802.844 1109.69 790.03Z" fill="#9F85E5" fill-opacity="0.05"/>
<path d="M1109.69 138.13C1121.37 125.121 1139.64 123.649 1152.17 135.163C1165.18 146.835 1166.64 165.095 1155.13 177.631C1143.45 190.64 1125.51 192.074 1112.68 180.605C1099.62 169.211 1098.22 150.944 1109.69 138.13Z" fill="#9F85E5" fill-opacity="0.05"/>
<path d="M1208.89 903.405C1220.57 890.396 1238.84 888.924 1251.38 900.439C1264.38 912.111 1265.84 930.37 1254.34 942.906C1242.65 955.915 1224.71 957.35 1211.88 945.88C1198.82 934.486 1197.42 916.219 1208.89 903.405Z" fill="#9F85E5" fill-opacity="0.05"/>
<path d="M1208.89 251.505C1220.57 238.496 1238.84 237.024 1251.38 248.538C1264.38 260.21 1265.84 278.47 1254.34 291.006C1242.65 304.015 1224.71 305.449 1211.88 293.98C1198.82 282.586 1197.42 264.319 1208.89 251.505Z" fill="#9F85E5" fill-opacity="0.05"/>
<path d="M1109.69 1016.78C1121.37 1003.77 1139.64 1002.3 1152.17 1013.81C1165.18 1025.48 1166.64 1043.74 1155.13 1056.28C1143.45 1069.29 1125.51 1070.72 1112.68 1059.25C1099.62 1047.86 1098.22 1029.59 1109.69 1016.78Z" fill="#9F85E5" fill-opacity="0.05"/>
<path d="M1109.69 364.88C1121.37 351.871 1139.64 350.399 1152.17 361.913C1165.18 373.585 1166.64 391.845 1155.13 404.381C1143.45 417.39 1125.51 418.824 1112.68 407.355C1099.62 395.961 1098.22 377.694 1109.69 364.88Z" fill="#9F85E5" fill-opacity="0.05"/>
<path d="M1223.07 1130.15C1234.75 1117.14 1253.01 1115.67 1265.55 1127.19C1278.55 1138.86 1280.01 1157.12 1268.51 1169.65C1256.82 1182.66 1238.88 1184.1 1226.05 1172.63C1212.99 1161.23 1211.6 1142.97 1223.07 1130.15Z" fill="#9F85E5" fill-opacity="0.05"/>
<path d="M1223.07 478.251C1234.75 465.242 1253.01 463.77 1265.55 475.284C1278.55 486.956 1280.01 505.216 1268.51 517.752C1256.82 530.761 1238.88 532.195 1226.05 520.726C1212.99 509.332 1211.6 491.065 1223.07 478.251Z" fill="#9F85E5" fill-opacity="0.05"/>
<path d="M1109.69 1243.53C1121.37 1230.52 1139.64 1229.05 1152.17 1240.56C1165.18 1252.23 1166.64 1270.49 1155.13 1283.03C1143.45 1296.04 1125.51 1297.47 1112.68 1286C1099.62 1274.61 1098.22 1256.34 1109.69 1243.53Z" fill="#9F85E5" fill-opacity="0.05"/>
<path d="M1109.69 591.626C1121.37 578.617 1139.64 577.145 1152.17 588.659C1165.18 600.331 1166.64 618.591 1155.13 631.127C1143.45 644.136 1125.51 645.57 1112.68 634.101C1099.62 622.707 1098.22 604.44 1109.69 591.626Z" fill="#9F85E5" fill-opacity="0.05"/>
<path d="M1320.73 831.84C1308.29 843.603 1290.35 843.25 1278.28 830.841C1266.17 818.403 1266.52 800.437 1279.27 788.359C1291.68 776.281 1309.97 776.597 1321.75 789.373C1333.84 801.811 1333.48 819.763 1320.73 831.84Z" fill="#9F85E5" fill-opacity="0.05"/>
<path d="M1320.73 179.938C1308.29 191.7 1290.35 191.347 1278.28 178.939C1266.17 166.501 1266.52 148.534 1279.27 136.457C1291.68 124.379 1309.97 124.694 1321.75 137.471C1333.84 149.909 1333.48 167.86 1320.73 179.938Z" fill="#9F85E5" fill-opacity="0.05"/>
<path d="M1419.93 945.215C1407.49 956.978 1389.56 956.625 1377.48 944.216C1365.37 931.778 1365.72 913.812 1378.47 901.734C1390.89 889.656 1409.17 889.972 1420.95 902.748C1433.04 915.186 1432.68 933.138 1419.93 945.215Z" fill="#9F85E5" fill-opacity="0.05"/>
<path d="M1419.93 293.313C1407.49 305.075 1389.56 304.722 1377.48 292.314C1365.37 279.876 1365.72 261.909 1378.47 249.832C1390.89 237.754 1409.17 238.069 1420.95 250.846C1433.04 263.284 1432.68 281.235 1419.93 293.313Z" fill="#9F85E5" fill-opacity="0.05"/>
<path d="M1320.73 1058.59C1308.29 1070.35 1290.35 1070 1278.28 1057.59C1266.17 1045.15 1266.52 1027.19 1279.27 1015.11C1291.68 1003.03 1309.97 1003.35 1321.75 1016.12C1333.84 1028.56 1333.48 1046.51 1320.73 1058.59Z" fill="#9F85E5" fill-opacity="0.05"/>
<path d="M1320.73 406.688C1308.29 418.45 1290.35 418.097 1278.28 405.689C1266.17 393.251 1266.52 375.284 1279.27 363.207C1291.68 351.129 1309.97 351.444 1321.75 364.221C1333.84 376.659 1333.48 394.61 1320.73 406.688Z" fill="#9F85E5" fill-opacity="0.05"/>
<path d="M1434.1 1171.96C1421.67 1183.72 1403.73 1183.37 1391.65 1170.96C1379.54 1158.52 1379.9 1140.56 1392.64 1128.48C1405.06 1116.4 1423.34 1116.72 1435.12 1129.49C1447.21 1141.93 1446.85 1159.88 1434.1 1171.96Z" fill="#9F85E5" fill-opacity="0.05"/>
<path d="M1434.1 520.063C1421.67 531.825 1403.73 531.472 1391.65 519.064C1379.54 506.626 1379.9 488.659 1392.64 476.582C1405.06 464.504 1423.34 464.819 1435.12 477.596C1447.21 490.034 1446.85 507.985 1434.1 520.063Z" fill="#9F85E5" fill-opacity="0.05"/>
<path d="M1320.73 1285.34C1308.29 1297.1 1290.35 1296.75 1278.28 1284.34C1266.17 1271.9 1266.52 1253.93 1279.27 1241.86C1291.68 1229.78 1309.97 1230.09 1321.75 1242.87C1333.84 1255.31 1333.48 1273.26 1320.73 1285.34Z" fill="#9F85E5" fill-opacity="0.05"/>
<path d="M1320.73 633.436C1308.29 645.198 1290.35 644.845 1278.28 632.437C1266.17 619.999 1266.52 602.032 1279.27 589.955C1291.68 577.877 1309.97 578.192 1321.75 590.969C1333.84 603.407 1333.48 621.358 1320.73 633.436Z" fill="#9F85E5" fill-opacity="0.05"/>
<path d="M1446.81 831.837L1446.79 831.814C1434.42 819.782 1433.65 801.507 1445.82 789.332C1457.87 776.961 1476.13 776.233 1488.6 788.363C1500.97 800.411 1501.71 818.362 1489.57 830.838L1489.55 830.86C1477.18 843.231 1459.26 843.614 1446.81 831.837Z" fill="#9F85E5" fill-opacity="0.05"/>
<path d="M1446.81 179.938L1446.79 179.916C1434.42 167.883 1433.65 149.609 1445.82 137.433C1457.87 125.063 1476.13 124.334 1488.6 136.464C1500.97 148.512 1501.71 166.464 1489.57 178.939L1489.55 178.962C1477.18 191.333 1459.26 191.716 1446.81 179.938Z" fill="#9F85E5" fill-opacity="0.05"/>
<path d="M1446.81 1058.59L1446.79 1058.56C1434.42 1046.53 1433.65 1028.26 1445.82 1016.08C1457.87 1003.71 1476.13 1002.98 1488.6 1015.11C1500.97 1027.16 1501.71 1045.11 1489.57 1057.59L1489.55 1057.61C1477.18 1069.98 1459.26 1070.36 1446.81 1058.59Z" fill="#9F85E5" fill-opacity="0.05"/>
<path d="M1446.81 406.684L1446.79 406.662C1434.42 394.629 1433.65 376.355 1445.82 364.179C1457.87 351.809 1476.13 351.08 1488.6 363.211C1500.97 375.258 1501.71 393.21 1489.57 405.686L1489.55 405.708C1477.18 418.079 1459.26 418.462 1446.81 406.684Z" fill="#9F85E5" fill-opacity="0.05"/>
<path d="M1446.81 1285.33L1446.79 1285.31C1434.42 1273.28 1433.65 1255.01 1445.82 1242.83C1457.87 1230.46 1476.13 1229.73 1488.6 1241.86C1500.97 1253.91 1501.71 1271.86 1489.57 1284.34L1489.55 1284.36C1477.18 1296.73 1459.26 1297.11 1446.81 1285.33Z" fill="#9F85E5" fill-opacity="0.05"/>
<path d="M1446.81 633.434L1446.79 633.412C1434.42 621.379 1433.65 603.105 1445.82 590.929C1457.87 578.559 1476.13 577.83 1488.6 589.961C1500.97 602.008 1501.71 619.96 1489.57 632.436L1489.55 632.458C1477.18 644.829 1459.26 645.212 1446.81 633.434Z" fill="#9F85E5" fill-opacity="0.05"/>
<path d="M817.933 787.724H817.941C830.649 799.772 831.385 817.724 819.585 830.199C807.538 842.908 789.586 843.644 777.11 831.844H777.103C764.394 819.804 763.658 801.86 775.45 789.384C787.205 776.638 805.479 775.94 817.933 787.724Z" fill="#9F85E5" fill-opacity="0.05"/>
<path d="M817.933 135.818H817.941C830.649 147.866 831.385 165.817 819.585 178.293C807.538 191.002 789.586 191.738 777.11 179.938H777.103C764.394 167.898 763.658 149.954 775.45 137.478C787.205 124.732 805.479 124.033 817.933 135.818Z" fill="#9F85E5" fill-opacity="0.05"/>
<path d="M917.135 901.099H917.143C929.852 913.147 930.588 931.099 918.788 943.574C906.74 956.283 888.789 957.019 876.313 945.219H876.306C863.597 933.179 862.861 915.235 874.653 902.759C886.408 890.013 904.682 889.315 917.135 901.099Z" fill="#9F85E5" fill-opacity="0.05"/>
<path d="M917.135 249.193H917.143C929.852 261.241 930.588 279.192 918.788 291.668C906.74 304.377 888.789 305.113 876.313 293.313H876.306C863.597 281.273 862.861 263.329 874.653 250.853C886.408 238.107 904.682 237.408 917.135 249.193Z" fill="#9F85E5" fill-opacity="0.05"/>
<path d="M817.933 1014.47H817.941C830.649 1026.52 831.385 1044.47 819.585 1056.95C807.538 1069.65 789.586 1070.39 777.11 1058.59H777.103C764.394 1046.55 763.658 1028.61 775.45 1016.13C787.205 1003.38 805.479 1002.69 817.933 1014.47Z" fill="#9F85E5" fill-opacity="0.05"/>
<path d="M817.933 362.566H817.941C830.649 374.614 831.385 392.565 819.585 405.041C807.538 417.75 789.586 418.486 777.11 406.686H777.103C764.394 394.646 763.658 376.702 775.45 364.226C787.205 351.48 805.479 350.781 817.933 362.566Z" fill="#9F85E5" fill-opacity="0.05"/>
<path d="M931.307 1127.85H931.315C944.024 1139.89 944.76 1157.84 932.96 1170.32C920.912 1183.03 902.961 1183.77 890.485 1171.97H890.477C877.769 1159.93 877.032 1141.98 888.825 1129.51C900.58 1116.76 918.854 1116.06 931.307 1127.85Z" fill="#9F85E5" fill-opacity="0.05"/>
<path d="M931.307 475.941H931.315C944.024 487.989 944.76 505.94 932.96 518.416C920.912 531.125 902.961 531.861 890.485 520.061H890.477C877.769 508.021 877.032 490.077 888.825 477.601C900.58 464.855 918.854 464.156 931.307 475.941Z" fill="#9F85E5" fill-opacity="0.05"/>
<path d="M817.933 1241.22H817.941C830.649 1253.27 831.385 1271.22 819.585 1283.7C807.538 1296.4 789.586 1297.14 777.11 1285.34H777.103C764.394 1273.3 763.658 1255.36 775.45 1242.88C787.205 1230.13 805.479 1229.44 817.933 1241.22Z" fill="#9F85E5" fill-opacity="0.05"/>
<path d="M817.933 589.316H817.941C830.649 601.364 831.385 619.315 819.585 631.791C807.538 644.5 789.586 645.236 777.11 633.436H777.103C764.394 621.396 763.658 603.452 775.45 590.976C787.205 578.23 805.479 577.531 817.933 589.316Z" fill="#9F85E5" fill-opacity="0.05"/>
</svg>
