<svg width="20" height="20" viewBox="0 0 20 20" fill="none" xmlns="http://www.w3.org/2000/svg">
<path d="M1.11111 20C0.796296 20 0.532593 19.84 0.32 19.52C0.106667 19.2011 0 18.8056 0 18.3333C0 17.8611 0.106667 17.4656 0.32 17.1467C0.532593 16.8267 0.796296 16.6667 1.11111 16.6667H18.8889C19.2037 16.6667 19.4674 16.8267 19.68 17.1467C19.8933 17.4656 20 17.8611 20 18.3333C20 18.8056 19.8933 19.2011 19.68 19.52C19.4674 19.84 19.2037 20 18.8889 20H1.11111ZM1.11111 11.6667C0.796296 11.6667 0.532593 11.5067 0.32 11.1867C0.106667 10.8678 0 10.4722 0 10C0 9.52778 0.106667 9.13167 0.32 8.81167C0.532593 8.49278 0.796296 8.33333 1.11111 8.33333H18.8889C19.2037 8.33333 19.4674 8.49278 19.68 8.81167C19.8933 9.13167 20 9.52778 20 10C20 10.4722 19.8933 10.8678 19.68 11.1867C19.4674 11.5067 19.2037 11.6667 18.8889 11.6667H1.11111ZM1.11111 3.33333C0.796296 3.33333 0.532593 3.17389 0.32 2.855C0.106667 2.535 0 2.13889 0 1.66667C0 1.19444 0.106667 0.798334 0.32 0.478334C0.532593 0.159445 0.796296 0 1.11111 0H18.8889C19.2037 0 19.4674 0.159445 19.68 0.478334C19.8933 0.798334 20 1.19444 20 1.66667C20 2.13889 19.8933 2.535 19.68 2.855C19.4674 3.17389 19.2037 3.33333 18.8889 3.33333H1.11111Z" fill="#FFFCFC"/>
</svg>
