<svg width="98" height="57" viewBox="0 0 98 57" fill="none" xmlns="http://www.w3.org/2000/svg">
<path d="M16.88 2.52116C16.1813 2.30092 15.4615 2.16516 14.7326 2.08672C10.4679 1.62512 6.49233 1.03077 1.90234 0.0200867C1.00181 -0.0764566 0.800014 0.161885 0.806038 1.02172C0.839168 6.50659 3.81182 12.2117 3.81182 17.6966C3.81182 23.2176 0.824109 28.5155 0.818085 34.0365C0.818085 34.7184 0.857238 35.5239 2.33905 34.9145C5.31772 33.6866 6.52245 33.6866 8.62469 34.8752C9.71797 35.4937 10.1938 35.0382 10.4649 34.3654C14.6543 24.0322 17.0638 15.5847 17.9221 5.67089C18.1209 3.38703 18.386 2.99483 16.88 2.52116Z" fill="url(#paint0_linear_443_7364)"/>
<path d="M97.4218 5.33385C97.4279 4.50116 97.2381 4.21153 96.3496 4.24472C90.2507 5.33083 84.8295 6.53762 78.6282 6.87552C76.3573 7.51814 76.6042 7.43366 77.2789 9.68131C80.3118 19.8123 83.6247 28.8633 87.6967 38.4482C87.8834 38.8887 88.019 39.1723 88.3262 39.305C88.6334 39.4348 88.9918 39.3805 89.2689 39.1964C91.6 37.6608 93.383 38.2612 96.2653 39.4016C97.0966 39.7304 97.4309 39.1813 97.4248 38.2581C97.3827 32.8034 95.3678 27.3729 95.3678 21.9212C95.3708 16.4001 97.3887 10.8549 97.4218 5.33385Z" fill="url(#paint1_linear_443_7364)"/>
<path d="M74.4117 40.6133C72.7884 38.604 70.8849 36.8753 68.9574 35.1707C63.1807 30.0569 56.9372 25.5013 51.2359 20.303C50.8504 19.9531 50.5402 20.0104 50.1366 20.1854C49.0704 20.65 48.0343 21.2051 46.8808 21.4193C46.2032 21.543 45.7363 21.8749 45.2876 22.4028C42.5679 25.5978 39.1977 27.1847 34.9239 26.512C30.3972 25.8 28.3552 22.7679 29.4666 18.3148C29.8942 16.6042 30.6472 15.0324 31.5447 13.5209C32.5597 11.8102 33.7855 10.2595 35.3095 8.59111C30.8098 8.59111 26.6023 8.59714 22.3918 8.58206C21.8979 8.57904 21.8617 8.82643 21.681 9.22769C18.5698 16.1879 16.4616 23.4286 16.064 30.8021C16.0399 31.2335 15.9044 31.5594 16.2718 31.9184C18.9192 34.507 21.2835 37.3912 24.1055 39.7867C30.3249 45.0694 36.7611 50.0806 43.3721 54.8625C44.9533 56.006 46.7573 56.6395 48.6789 56.9322C49.0975 56.9955 49.5523 57.1041 50.001 56.7602C49.8294 56.5671 49.6818 56.3891 49.5192 56.2232C47.4049 54.0721 45.2815 51.927 43.1703 49.7729C42.4023 48.9885 41.6373 48.201 40.9235 47.3683C40.2518 46.5809 40.1916 45.6728 40.7337 44.7918C41.2638 43.935 42.0951 43.6846 43.0558 43.8656C43.7003 43.9893 44.11 44.472 44.5376 44.9185C47.7783 48.3187 50.9588 51.7792 54.4856 54.8927C56.1843 56.3921 57.9944 56.1357 59.3617 54.2772C59.7834 53.704 59.8738 53.3118 59.2503 52.7386C56.0457 49.788 53.0731 46.602 50.0884 43.4312C49.8776 43.2079 49.6637 42.9756 49.5011 42.7192C48.9228 41.808 49.0644 40.7189 49.8294 39.9979C50.6004 39.2708 51.8142 39.2104 52.6484 39.8983C53.043 40.2241 53.3803 40.6194 53.7327 40.9935C56.7776 44.2005 59.7683 47.4649 63.0994 50.3853C64.6324 51.7309 66.5901 51.6555 68.0749 50.2858C68.9152 49.5104 68.9182 49.1966 68.09 48.4032C64.1445 44.638 60.3948 40.6797 56.6059 36.7606C55.4855 35.6021 55.4343 34.335 56.4102 33.4088C57.374 32.4976 58.6118 32.6334 59.7503 33.798C60.7592 34.8268 61.7501 35.8706 62.7561 36.9024C65.6775 39.8983 68.5809 42.9062 71.6198 45.7844C72.2222 46.3546 72.8456 46.7408 73.7311 46.5206C75.5321 46.071 76.4297 44.3031 75.6887 42.5985C75.3755 41.8624 74.9057 41.2288 74.4117 40.6133Z" fill="url(#paint2_linear_443_7364)"/>
<path d="M74.3032 13.732C74.0292 13.2946 73.8545 12.9356 73.3515 12.7575C67.4845 10.6607 61.735 8.27432 56.0216 5.79738C54.2536 5.03107 52.4104 4.5212 50.9075 4.48499C48.5734 4.46387 46.7121 4.98279 44.8508 6.20467C41.5619 8.36785 38.6916 11.0107 36.3183 14.1604C35.0564 15.8349 34.0203 17.6571 33.5746 19.7479C33.2674 21.181 33.5776 21.6848 34.9751 22.08C35.8726 22.3334 36.7701 22.4632 37.7098 22.3033C39.9054 21.9322 41.3601 20.5383 42.607 18.8398C43.0166 18.2816 43.4172 17.6179 44.137 17.5515C46.3446 17.3464 48.23 16.2422 50.2359 15.4849C51.284 15.0897 52.1604 15.2224 52.9676 16.0008C56.0758 19.0117 59.4852 21.6667 62.8132 24.4182C68.0628 28.7626 73.5623 32.8386 77.9445 38.1454C78.2608 38.5286 78.4897 38.4109 78.7999 38.1997C79.7606 37.542 80.7124 36.8692 81.7033 36.2568C82.2153 35.94 82.1701 35.6444 82.0767 35.0711C80.9142 27.9541 78.5047 20.4116 74.3032 13.732Z" fill="url(#paint3_linear_443_7364)"/>
<defs>
<linearGradient id="paint0_linear_443_7364" x1="16.5485" y1="3.09714" x2="-4.55845" y2="9.25268" gradientUnits="userSpaceOnUse">
<stop stop-color="#5A26E7"/>
<stop offset="1" stop-color="#410291"/>
</linearGradient>
<linearGradient id="paint1_linear_443_7364" x1="95.6004" y1="7.34707" x2="71.2039" y2="15.819" gradientUnits="userSpaceOnUse">
<stop stop-color="#5A26E7"/>
<stop offset="1" stop-color="#410291"/>
</linearGradient>
<linearGradient id="paint2_linear_443_7364" x1="70.6457" y1="12.8461" x2="19.0508" y2="50.7693" gradientUnits="userSpaceOnUse">
<stop stop-color="#5A26E7"/>
<stop offset="1" stop-color="#410291"/>
</linearGradient>
<linearGradient id="paint3_linear_443_7364" x1="77.8283" y1="7.47092" x2="40.4441" y2="39.3314" gradientUnits="userSpaceOnUse">
<stop stop-color="#5A26E7"/>
<stop offset="1" stop-color="#410291"/>
</linearGradient>
</defs>
</svg>
