<svg width="481" height="285" viewBox="0 0 481 285" fill="none" xmlns="http://www.w3.org/2000/svg">
<path d="M44.6647 237.391L44.6591 237.385C41.5272 234.08 41.5178 229.291 44.6591 226.06C47.715 222.747 52.3302 222.749 55.3862 225.976C58.518 229.283 58.5275 234.074 55.3843 237.305C52.2487 240.612 47.7985 240.612 44.6647 237.391Z" fill="#F3F3F3"/>
<path d="M97.6404 270.672C100.776 273.893 100.865 278.682 97.8072 282C94.757 285.311 90.2215 285.403 87.0802 282.176C83.9483 278.959 83.8497 274.087 86.9114 270.85C89.8895 267.533 94.5029 267.451 97.6404 270.672Z" fill="#F3F3F3"/>
<path d="M86.9265 237.386L86.9209 237.38C83.8744 234.075 83.8649 229.29 87.0044 226.059C90.0641 222.748 94.6812 222.75 97.7391 226.065C100.786 229.372 100.793 234.157 97.6518 237.388C94.5105 240.701 89.9787 240.609 86.9265 237.386Z" fill="#F3F3F3"/>
<path d="M128.915 271.118C131.864 267.649 136.478 267.256 139.645 270.327C142.929 273.44 143.299 278.309 140.391 281.652C137.439 285.122 132.911 285.504 129.671 282.445C126.371 279.407 126.02 274.535 128.915 271.118Z" fill="#F3F3F3"/>
<path d="M139.995 225.97L140 225.976C143.132 229.281 143.14 234.073 139.997 237.305C138.445 238.942 136.552 239.785 134.636 239.785C132.718 239.785 130.825 238.942 129.271 237.301C126.14 233.994 126.13 229.205 129.275 225.972C132.335 222.745 136.863 222.753 139.995 225.97Z" fill="#F3F3F3"/>
<path d="M182.216 282.264H182.214C179.075 285.401 174.543 285.307 171.493 281.998C168.437 278.681 168.524 273.889 171.743 270.669C174.881 267.448 179.498 267.532 182.474 270.939C185.527 274.256 185.436 279.043 182.216 282.264Z" fill="#F3F3F3"/>
<path d="M182.103 225.8C185.315 229.011 185.501 233.798 182.52 237.125H182.519C179.478 240.517 174.944 240.713 171.791 237.564C168.582 234.353 168.396 229.568 171.374 226.243C174.341 222.844 178.956 222.657 182.103 225.8Z" fill="#F3F3F3"/>
<path d="M214.058 282.267L214.052 282.261C210.928 279.052 210.735 274.179 213.808 270.932C216.851 267.633 221.462 267.439 224.611 270.674C227.739 273.887 227.923 278.674 224.857 282.001L224.852 282.007C221.727 285.306 217.201 285.408 214.058 282.267Z" fill="#F3F3F3"/>
<path d="M213.789 237.302L213.784 237.296C210.728 233.979 210.815 229.192 213.953 225.971C217.094 222.744 221.63 222.836 224.68 226.147C227.736 229.464 227.648 234.25 224.515 237.471C221.445 240.71 216.912 240.597 213.789 237.302Z" fill="#F3F3F3"/>
<path d="M2.31387 270.841C5.36034 267.54 9.97359 267.44 13.0371 270.673C16.1803 273.902 16.1728 278.687 13.1282 281.992C10.0685 285.399 5.52906 285.391 2.39723 282.174C-0.734605 278.955 -0.833141 274.08 2.31387 270.841Z" fill="#F3F3F3"/>
<path d="M13.1246 237.296L13.1189 237.303C11.5692 238.939 9.67785 239.804 7.76195 239.826C5.84415 239.848 3.9492 239.029 2.39372 237.389C-0.743807 234.162 -0.743819 229.29 2.31024 226.061C5.3662 222.748 9.98137 222.748 13.0373 225.973C16.1805 229.204 16.1711 233.989 13.1246 237.296Z" fill="#F3F3F3"/>
<path d="M55.2322 270.501C58.4418 273.712 58.6295 278.497 55.6494 281.824C52.6049 285.305 48.0731 285.492 44.8484 282.355L44.8407 282.349C41.6311 279.138 41.4453 274.353 44.4234 271.026C47.4661 267.55 52.0814 267.354 55.2322 270.501Z" fill="#F3F3F3"/>
<path d="M256.182 237.391L256.176 237.385C253.044 234.08 253.035 229.291 256.176 226.06C259.232 222.747 263.847 222.749 266.903 225.976C270.035 229.283 270.044 234.074 266.901 237.305C263.766 240.612 259.315 240.612 256.182 237.391Z" fill="#F3F3F3"/>
<path d="M309.219 270.672C312.354 273.893 312.443 278.682 309.387 281.999C306.335 285.31 301.8 285.402 298.658 282.176C295.526 278.959 295.43 274.085 298.493 270.846C301.545 267.539 306.077 267.447 309.219 270.672Z" fill="#F3F3F3"/>
<path d="M298.444 237.387L298.438 237.381C295.392 234.074 295.382 229.289 298.525 226.058C301.657 222.753 306.195 222.745 309.254 226.066C312.303 229.373 312.31 234.158 309.169 237.389C306.028 240.702 301.496 240.61 298.444 237.387Z" fill="#F3F3F3"/>
<path d="M340.495 271.118C343.445 267.649 348.058 267.256 351.224 270.327C354.508 273.44 354.878 278.309 351.971 281.652C349.02 285.122 344.49 285.504 341.25 282.445C337.951 279.407 337.598 274.535 340.495 271.118Z" fill="#F3F3F3"/>
<path d="M351.516 225.976C354.648 229.281 354.657 234.073 351.514 237.305C348.382 240.609 343.847 240.617 340.787 237.299C337.657 233.992 337.65 229.203 340.793 225.972C343.849 222.747 348.46 222.749 351.516 225.976Z" fill="#F3F3F3"/>
<path d="M393.793 282.264C390.651 285.401 386.121 285.307 383.071 281.998C380.013 278.681 380.103 273.889 383.322 270.669C386.457 267.448 391.074 267.532 394.051 270.939C397.103 274.256 397.012 279.043 393.793 282.264Z" fill="#F3F3F3"/>
<path d="M393.621 225.8C396.832 229.011 397.016 233.799 394.036 237.126C390.993 240.517 386.46 240.713 383.309 237.564C380.099 234.353 379.913 229.568 382.891 226.241C385.858 222.844 390.474 222.657 393.621 225.8Z" fill="#F3F3F3"/>
<path d="M425.635 282.267L425.629 282.261C422.505 279.052 422.311 274.179 425.384 270.932C428.427 267.633 433.038 267.439 436.187 270.674C439.313 273.887 439.499 278.674 436.434 282.001L436.428 282.007C433.304 285.306 428.778 285.408 425.635 282.267Z" fill="#F3F3F3"/>
<path d="M425.301 237.296C422.243 233.979 422.332 229.192 425.468 225.971C428.609 222.744 433.145 222.836 436.197 226.147C439.253 229.464 439.165 234.252 436.028 237.475C432.887 240.702 428.351 240.607 425.301 237.296Z" fill="#F3F3F3"/>
<path d="M266.81 270.498H266.812C270.022 273.711 270.208 278.499 267.228 281.826C264.185 285.215 259.651 285.411 256.5 282.264H256.498C253.289 279.053 253.103 274.268 256.081 270.941C259.05 267.542 263.665 267.356 266.81 270.498Z" fill="#F3F3F3"/>
<path d="M129.3 147.928C126.172 144.623 126.165 139.834 129.306 136.603C132.442 133.296 136.975 133.296 140.111 136.605C143.243 139.914 143.25 144.705 140.105 147.938C136.899 151.233 132.366 151.251 129.3 147.928Z" fill="#F3F3F3"/>
<path d="M182.606 192.52L182.6 192.526C181.012 194.203 179.106 195.088 177.18 195.134C175.253 195.178 173.356 194.381 171.799 192.781C168.677 189.574 168.483 184.698 171.556 181.451C174.599 178.152 179.21 177.96 182.359 181.195C185.487 184.406 185.671 189.195 182.606 192.52Z" fill="#F3F3F3"/>
<path d="M44.6667 13.8341L44.661 13.828C41.5292 10.523 41.5197 5.73364 44.661 2.5007C47.717 -0.810362 52.3322 -0.808329 55.3881 2.41861C58.5199 5.72366 58.5295 10.515 55.3863 13.7479C52.2506 17.055 47.8004 17.053 44.6667 13.8341Z" fill="#F3F3F3"/>
<path d="M97.5606 47.0845C100.696 50.3054 100.785 55.0928 97.7274 58.4099C94.6771 61.7209 90.1416 61.813 87.0003 58.5861C83.8685 55.3712 83.7699 50.4998 86.8315 47.2608C89.8097 43.9457 94.423 43.8636 97.5606 47.0845Z" fill="#F3F3F3"/>
<path d="M129.291 103.174C126.242 99.8674 126.235 95.0781 129.38 91.8471C132.514 88.6302 137.047 88.6222 140.109 91.9433C143.155 95.2484 143.165 100.036 139.944 103.267C136.877 106.586 132.337 106.48 129.291 103.174Z" fill="#F3F3F3"/>
<path d="M171.903 148.192C168.692 144.981 168.506 140.193 171.488 136.866C174.531 133.475 179.142 133.281 182.293 136.428C185.504 139.639 185.69 144.426 182.71 147.753L182.703 147.759C179.588 151.138 175.058 151.342 171.903 148.192Z" fill="#F3F3F3"/>
<path d="M224.924 192.603L224.918 192.609C221.794 195.908 217.262 196.01 214.119 192.78C210.987 189.563 210.888 184.689 213.952 181.45C217.004 178.141 221.616 178.049 224.757 181.276C227.893 184.497 227.982 189.286 224.924 192.603Z" fill="#F3F3F3"/>
<path d="M86.9265 13.8271L86.9209 13.8211C83.8744 10.5161 83.8649 5.73077 87.0044 2.50183C90.0641 -0.811234 94.6812 -0.809189 97.7391 2.50788C100.786 5.81294 100.793 10.5982 97.6518 13.8291C94.5105 17.1422 89.9787 17.0481 86.9265 13.8271Z" fill="#F3F3F3"/>
<path d="M128.835 47.6125V47.6105C131.785 44.1412 136.398 43.7506 139.566 46.8193C142.85 49.9341 143.22 54.8035 140.312 58.1466C137.36 61.6159 132.828 61.9985 129.588 58.9378V58.9359C126.297 55.8191 125.935 51.0337 128.835 47.6125Z" fill="#F3F3F3"/>
<path d="M171.401 92.1117C174.442 88.7225 178.977 88.5262 182.128 91.673C185.339 94.8859 185.523 99.6732 182.543 103C179.51 106.379 174.973 106.678 171.812 103.435C168.605 100.224 168.421 95.4387 171.401 92.1117Z" fill="#F3F3F3"/>
<path d="M213.973 147.841C210.915 144.526 211.004 139.739 214.141 136.516C217.281 133.289 221.816 133.383 224.869 136.694C227.923 140.009 227.835 144.795 224.702 148.018C221.64 151.247 217.102 151.237 213.973 147.841Z" fill="#F3F3F3"/>
<path d="M140.002 2.4987C143.134 5.80375 143.142 10.5951 139.999 13.828C138.447 15.4665 136.554 16.3078 134.638 16.3078C132.72 16.3078 130.827 15.4645 129.273 13.826C126.143 10.519 126.132 5.72964 129.273 2.4987C132.335 -0.818374 136.871 -0.808359 140.002 2.4987Z" fill="#F3F3F3"/>
<path d="M171.411 58.4065C168.357 55.0894 168.446 50.3001 171.664 47.0792C174.801 43.8602 179.418 43.9443 182.395 47.3495C185.445 50.6666 185.356 55.4519 182.139 58.6729C178.997 61.8958 174.462 61.8017 171.411 58.4065Z" fill="#F3F3F3"/>
<path d="M224.78 103.173L224.774 103.179C221.648 106.48 217.118 106.58 213.975 103.351C210.841 100.134 210.744 95.2605 213.808 92.0216C216.86 88.7125 221.472 88.6204 224.611 91.8473C227.749 95.0682 227.836 99.8555 224.78 103.173Z" fill="#F3F3F3"/>
<path d="M182.105 2.2376C185.317 5.45051 185.502 10.2378 182.521 13.5649C179.48 16.9541 174.946 17.1504 171.793 14.0036C168.584 10.7927 168.398 6.00732 171.376 2.68023C174.343 -0.718964 178.958 -0.905204 182.105 2.2376Z" fill="#F3F3F3"/>
<path d="M224.78 58.4091L224.774 58.4151C221.656 61.7061 217.126 61.9104 213.973 58.6714C210.849 55.4625 210.655 50.5891 213.728 47.3401C216.771 44.0411 221.383 43.8488 224.532 47.0837C227.66 50.2966 227.844 55.084 224.78 58.4091Z" fill="#F3F3F3"/>
<path d="M213.789 13.7469L213.784 13.7408C210.728 10.4237 210.815 5.63447 213.953 2.41154C217.094 -0.815395 221.63 -0.721273 224.68 2.58979C227.736 5.90686 227.648 10.6922 224.515 13.9151C221.445 17.154 216.912 17.0419 213.789 13.7469Z" fill="#F3F3F3"/>
<path d="M2.22647 181.456C5.27484 178.064 9.89194 177.962 12.9574 181.197C16.0816 184.408 16.2656 189.194 13.204 192.519C10.1537 195.916 5.61625 196.01 2.47493 192.781C-0.647414 189.574 -0.842763 184.703 2.22647 181.456Z" fill="#F3F3F3"/>
<path d="M13.1245 136.612C16.1709 139.919 16.1785 144.704 13.0372 147.935C9.90344 151.24 5.36601 151.248 2.30626 147.927C-0.740209 144.622 -0.749711 139.837 2.31194 136.606C5.44377 133.299 10.0628 133.291 13.1245 136.612Z" fill="#F3F3F3"/>
<path d="M55.8355 192.249L55.8242 192.263C52.7967 195.725 48.2687 196.115 45.025 193.05C41.7376 189.936 41.3676 185.064 44.2756 181.721C47.2216 178.256 51.8311 177.865 54.9952 180.928C58.3812 183.975 58.6373 188.842 55.8355 192.249Z" fill="#F3F3F3"/>
<path d="M13.2055 92.0246C16.2596 95.3416 16.1705 100.127 13.0349 103.348C9.89357 106.575 5.35795 106.481 2.30768 103.17C-0.750168 99.8525 -0.660917 95.0652 2.47661 91.8443C5.60844 88.6254 10.1458 88.6174 13.2055 92.0246Z" fill="#F3F3F3"/>
<path d="M44.714 148.021C41.5783 144.798 41.4891 140.011 44.545 136.694C47.5934 133.387 52.2087 133.285 55.2761 136.52C58.4098 139.741 58.497 144.528 55.441 147.843C52.3908 151.154 47.8553 151.248 44.714 148.021Z" fill="#F3F3F3"/>
<path d="M97.7521 192.604L97.7464 192.61C96.1966 194.247 94.3073 195.112 92.3895 195.134C90.4736 195.158 88.5785 194.337 87.023 192.696C83.8836 189.469 83.8837 184.598 86.9377 181.369C89.9937 178.056 94.6089 178.056 97.6668 181.281C100.808 184.512 100.8 189.299 97.7521 192.604Z" fill="#F3F3F3"/>
<path d="M2.31379 47.2571C5.36026 43.9561 9.97351 43.8539 13.0371 47.0869C16.1803 50.3178 16.1727 55.1011 13.1282 58.4062C10.076 61.8054 5.53666 61.8975 2.39345 58.5845C-0.734593 55.3675 -0.833219 50.4941 2.31379 47.2571Z" fill="#F3F3F3"/>
<path d="M55.4736 103.17L55.4679 103.176C53.9162 104.813 52.0268 105.678 50.109 105.7C48.1931 105.722 46.298 104.903 44.7425 103.262C41.6126 100.045 41.5159 95.1718 44.6572 91.9349C47.643 88.6118 52.2563 88.6318 55.3824 91.8427C58.5275 95.0737 58.52 99.863 55.4736 103.17Z" fill="#F3F3F3"/>
<path d="M87.1216 148.192H87.1198C83.9102 144.981 83.7243 140.193 86.7043 136.866H86.7062C89.747 133.475 94.3604 133.281 97.5112 136.428C100.723 139.639 100.909 144.426 97.9266 147.753L97.9208 147.759C94.8042 151.138 90.2743 151.342 87.1216 148.192Z" fill="#F3F3F3"/>
<path d="M129.292 192.7L129.287 192.694C126.155 189.389 126.145 184.598 129.29 181.365C132.426 178.058 136.958 178.057 140.093 181.369C143.225 184.676 143.235 189.469 140.088 192.7L140.082 192.706C136.872 195.915 132.43 195.923 129.292 192.7Z" fill="#F3F3F3"/>
<path d="M13.1246 13.7389L13.1189 13.7449C11.5692 15.3814 9.67785 16.2467 7.76195 16.2708C5.84415 16.2928 3.9492 15.4716 2.39372 13.8311C-0.743807 10.6041 -0.743819 5.73268 2.31024 2.50375C5.3662 -0.809319 9.98137 -0.809332 13.0373 2.4156C16.1805 5.64654 16.1711 10.4339 13.1246 13.7389Z" fill="#F3F3F3"/>
<path d="M55.1471 46.9063L55.1546 46.9123C58.3642 50.1252 58.5501 54.9105 55.57 58.2376V58.2396C52.5273 61.6288 47.9937 61.8251 44.8429 58.6783H44.841C41.6313 55.4654 41.4455 50.678 44.4255 47.3509C47.3923 44.0399 52.002 43.8536 55.1471 46.9063Z" fill="#F3F3F3"/>
<path d="M97.8679 103.173L97.8623 103.179C94.7361 106.48 90.2062 106.58 87.0611 103.351C83.9293 100.134 83.8326 95.2605 86.8961 92.0216C89.9483 88.7125 94.5597 88.6204 97.6991 91.8473C100.837 95.0682 100.924 99.8555 97.8679 103.173Z" fill="#F3F3F3"/>
<path d="M341.009 147.932C337.877 144.625 337.867 139.836 341.013 136.603C344.148 133.296 348.682 133.296 351.817 136.605C354.949 139.912 354.959 144.703 351.814 147.934C348.678 151.243 344.144 151.241 341.009 147.932Z" fill="#F3F3F3"/>
<path d="M394.328 192.52C391.202 195.91 386.668 196.014 383.523 192.781C380.399 189.574 380.205 184.698 383.278 181.451C386.321 178.152 390.932 177.96 394.081 181.195C397.209 184.408 397.393 189.195 394.328 192.52Z" fill="#F3F3F3"/>
<path d="M256.182 13.8341L256.176 13.828C253.044 10.523 253.035 5.73364 256.176 2.5007C259.232 -0.810362 263.847 -0.808329 266.903 2.41861C270.035 5.72366 270.044 10.515 266.901 13.7479C263.766 17.055 259.315 17.053 256.182 13.8341Z" fill="#F3F3F3"/>
<path d="M309.138 47.0826C312.274 50.3036 312.363 55.0909 309.305 58.408C306.255 61.7191 301.719 61.8112 298.578 58.5842C295.446 55.3673 295.349 50.4939 298.413 47.2569C301.465 43.9479 305.997 43.8557 309.138 47.0826Z" fill="#F3F3F3"/>
<path d="M340.872 103.18L340.868 103.174C337.82 99.8674 337.812 95.0781 340.957 91.8471C344.089 88.6302 348.625 88.6222 351.684 91.9433C354.731 95.2463 354.74 100.032 351.523 103.263C348.526 106.594 343.989 106.469 340.872 103.18Z" fill="#F3F3F3"/>
<path d="M383.608 148.192C380.399 144.981 380.213 140.193 383.193 136.866C386.236 133.475 390.849 133.281 394 136.428C397.211 139.639 397.397 144.426 394.415 147.753L394.409 147.759C391.293 151.138 386.763 151.342 383.608 148.192Z" fill="#F3F3F3"/>
<path d="M436.648 192.603L436.643 192.609C433.516 195.908 428.986 196.01 425.841 192.78C422.71 189.563 422.611 184.689 425.676 181.45C428.729 178.141 433.34 178.049 436.479 181.276C439.617 184.497 439.704 189.286 436.648 192.603Z" fill="#F3F3F3"/>
<path d="M298.445 13.8269L298.439 13.8209C295.393 10.5138 295.384 5.72853 298.527 2.49759C301.659 -0.80546 306.196 -0.813462 309.256 2.50762C312.304 5.81267 312.312 10.5979 309.17 13.8289C306.029 17.1419 301.497 17.0478 298.445 13.8269Z" fill="#F3F3F3"/>
<path d="M340.415 47.6116C343.365 44.1423 347.978 43.7497 351.144 46.8184C354.428 49.9332 354.798 54.8026 351.892 58.1458C348.938 61.6151 344.408 61.9976 341.168 58.9369L341.166 58.935C337.877 55.8182 337.515 51.0329 340.415 47.6116Z" fill="#F3F3F3"/>
<path d="M382.976 92.1117H382.978C386.019 88.7225 390.553 88.5262 393.703 91.673C396.915 94.8859 397.101 99.6732 394.119 103C391.086 106.379 386.55 106.678 383.39 103.435C380.182 100.224 379.996 95.4387 382.976 92.1117Z" fill="#F3F3F3"/>
<path d="M425.676 147.839C422.622 144.522 422.711 139.737 425.847 136.516C428.988 133.289 433.524 133.383 436.576 136.694C439.632 140.011 439.543 144.799 436.407 148.02C433.273 151.239 428.736 151.247 425.676 147.839Z" fill="#F3F3F3"/>
<path d="M340.791 2.49844C343.847 -0.814626 348.464 -0.812609 351.52 2.50046C354.65 5.80751 354.658 10.5968 351.514 13.8278C348.384 17.1308 343.847 17.1409 340.787 13.8218C337.659 10.5167 337.65 5.72938 340.791 2.49844Z" fill="#F3F3F3"/>
<path d="M382.99 58.4065C379.935 55.0894 380.025 50.3001 383.242 47.0792C386.379 43.8602 390.996 43.9443 393.973 47.3495C397.023 50.6666 396.934 55.4519 393.717 58.6729C390.575 61.8958 386.04 61.8017 382.99 58.4065Z" fill="#F3F3F3"/>
<path d="M436.358 103.173L436.352 103.179C433.226 106.48 428.696 106.58 425.551 103.351C422.419 100.134 422.323 95.2585 425.386 92.0216C428.438 88.7125 433.05 88.6204 436.191 91.8473C439.327 95.0682 439.416 99.8555 436.358 103.173Z" fill="#F3F3F3"/>
<path d="M393.621 2.2376H393.622C396.832 5.45051 397.018 10.2378 394.038 13.5649H394.036C390.995 16.9541 386.462 17.1504 383.311 14.0036H383.309C380.099 10.7927 379.913 6.00732 382.891 2.68023C385.86 -0.718964 390.475 -0.905204 393.621 2.2376Z" fill="#F3F3F3"/>
<path d="M436.356 58.4089L436.35 58.4149C433.234 61.7059 428.704 61.9102 425.551 58.6712C422.427 55.4623 422.233 50.5889 425.306 47.3419C428.349 44.0408 432.96 43.8486 436.109 47.0835C439.237 50.2964 439.421 55.0838 436.356 58.4089Z" fill="#F3F3F3"/>
<path d="M425.301 13.7408C422.243 10.4237 422.332 5.63447 425.468 2.41154C428.609 -0.815395 433.145 -0.721273 436.197 2.58979C439.253 5.90686 439.165 10.6962 436.028 13.9171C432.887 17.146 428.351 17.0519 425.301 13.7408Z" fill="#F3F3F3"/>
<path d="M267.514 192.255H267.512C264.56 195.728 260.027 196.111 256.787 193.05H256.785C253.5 189.935 253.13 185.064 256.036 181.721C258.985 178.256 263.595 177.865 266.761 180.93C270.056 183.97 270.409 188.84 267.514 192.255Z" fill="#F3F3F3"/>
<path d="M256.421 148.021C253.283 144.798 253.196 140.011 256.252 136.694C259.298 133.387 263.915 133.285 266.983 136.52C270.116 139.741 270.204 144.528 267.148 147.843C264.096 151.154 259.562 151.248 256.421 148.021Z" fill="#F3F3F3"/>
<path d="M298.745 192.696C295.606 189.469 295.606 184.598 298.662 181.369C301.718 178.056 306.331 178.056 309.389 181.281C312.53 184.512 312.523 189.297 309.476 192.604C306.424 195.915 301.887 196.009 298.745 192.696Z" fill="#F3F3F3"/>
<path d="M267.049 103.174L267.043 103.18C265.493 104.817 263.604 105.682 261.686 105.704C259.77 105.726 257.875 104.907 256.32 103.267C253.19 100.048 253.093 95.1742 256.238 91.9373C259.298 88.6222 263.83 88.6322 266.96 91.8471C270.105 95.0781 270.097 99.8674 267.049 103.174Z" fill="#F3F3F3"/>
<path d="M298.833 148.198L298.827 148.192C295.615 144.981 295.43 140.193 298.412 136.866C301.454 133.475 306.068 133.281 309.218 136.428C312.43 139.639 312.614 144.426 309.634 147.753L309.628 147.759C308.08 149.438 306.195 150.345 304.271 150.423C302.348 150.503 300.432 149.752 298.833 148.198Z" fill="#F3F3F3"/>
<path d="M341.016 192.7L341.011 192.694C337.879 189.389 337.869 184.598 341.013 181.365C344.148 178.058 348.682 178.057 351.817 181.369C354.949 184.676 354.957 189.469 351.812 192.7C348.676 195.921 344.15 195.921 341.016 192.7Z" fill="#F3F3F3"/>
<path d="M266.725 46.9063L266.731 46.9123C269.942 50.1252 270.128 54.9105 267.146 58.2376V58.2396C264.105 61.6288 259.571 61.8251 256.421 58.6783H256.419C253.209 55.4654 253.023 50.678 256.003 47.3509C258.97 44.0399 263.58 43.8536 266.725 46.9063Z" fill="#F3F3F3"/>
<path d="M309.446 103.173L309.435 103.185C306.24 106.47 301.71 106.59 298.637 103.347C295.507 100.13 295.411 95.2585 298.474 92.0216C301.526 88.7125 306.138 88.6204 309.279 91.8473C312.415 95.0682 312.504 99.8555 309.446 103.173Z" fill="#F3F3F3"/>
<path d="M467.699 237.391L467.693 237.385C464.561 234.08 464.552 229.291 467.693 226.06C470.749 222.747 475.364 222.749 478.42 225.976C481.552 229.283 481.562 234.074 478.419 237.305C475.283 240.612 470.833 240.612 467.699 237.391Z" fill="#F3F3F3"/>
<path d="M478.387 270.498H478.388C481.598 273.711 481.784 278.499 478.804 281.826H478.802C475.761 285.215 471.228 285.411 468.075 282.264C464.865 279.053 464.679 274.268 467.658 270.941C470.624 267.542 475.24 267.356 478.387 270.498Z" fill="#F3F3F3"/>
<path d="M467.699 13.8341L467.693 13.828C464.561 10.523 464.552 5.73364 467.693 2.5007C470.749 -0.810362 475.364 -0.808329 478.42 2.41861C481.552 5.72366 481.562 10.515 478.419 13.7479C475.283 17.055 470.833 17.053 467.699 13.8341Z" fill="#F3F3F3"/>
<path d="M479.236 192.256C476.283 195.729 471.751 196.112 468.509 193.051C465.222 189.936 464.852 185.065 467.76 181.722C470.708 178.256 475.317 177.864 478.483 180.93C481.78 183.969 482.131 188.84 479.236 192.256Z" fill="#F3F3F3"/>
<path d="M468.127 148.021C464.99 144.798 464.903 140.011 467.959 136.694C471.005 133.387 475.622 133.285 478.69 136.52C481.823 139.74 481.911 144.528 478.855 147.843C475.802 151.154 471.269 151.248 468.127 148.021Z" fill="#F3F3F3"/>
<path d="M478.628 103.174L478.622 103.18C477.072 104.817 475.181 105.682 473.265 105.704C471.349 105.726 469.452 104.907 467.897 103.267C464.767 100.048 464.67 95.1742 467.815 91.9373C470.877 88.6222 475.409 88.6322 478.538 91.8471C481.684 95.0781 481.676 99.8674 478.628 103.174Z" fill="#F3F3F3"/>
<path d="M478.303 46.9063L478.309 46.9123C481.52 50.1252 481.706 54.9105 478.724 58.2376V58.2396C475.683 61.6288 471.148 61.8251 467.997 58.6783C464.785 55.4654 464.601 50.678 467.581 47.3509C470.548 44.0399 475.158 43.8536 478.303 46.9063Z" fill="#F3F3F3"/>
</svg>
