<svg width="27" height="25" viewBox="0 0 27 25" fill="none" xmlns="http://www.w3.org/2000/svg">
<path d="M18.0987 19.8867C14.0793 19.8867 10.7021 21.4309 9.75178 23.518C9.53636 23.9912 9.98902 24.4866 10.6367 24.4866H25.5608C26.2085 24.4866 26.6611 23.9901 26.4457 23.518C25.4968 21.4309 22.1182 19.8867 18.0987 19.8867Z" fill="#5A26E7"/>
<path d="M22.4085 16.0965C22.4085 18.0759 20.4888 19.6813 18.1219 19.6813C15.7549 19.6813 13.8352 18.0759 13.8352 16.0965C13.8352 14.1172 15.7549 12.5117 18.1219 12.5117C20.4901 12.5117 22.4085 14.1161 22.4085 16.0965Z" fill="#5A26E7"/>
<path d="M8.27657 24.4646C8.16613 24.492 8.04206 24.4973 7.92344 24.4973C6.3364 24.4994 4.74936 24.5016 3.16232 24.4984C1.56028 24.4952 0.502254 23.6798 0.502254 22.443C0.499527 19.1243 0.50089 15.8057 0.50089 12.4881C0.50089 9.17052 0.498164 5.85187 0.502254 2.53429C0.503617 1.47173 1.33122 0.696462 2.6374 0.527467C2.80783 0.505286 2.98371 0.50423 3.15687 0.50423C7.97252 0.502117 12.7882 0.505286 17.6038 0.500005C18.2624 0.498949 18.805 0.667944 19.2686 1.02917C20.7711 2.19946 22.2777 3.36659 23.7884 4.53054C24.2451 4.88332 24.4592 5.29947 24.4578 5.79906C24.451 7.87876 24.4537 9.95951 24.4565 12.0392C24.4565 12.204 24.4483 12.3603 24.2642 12.4733C23.9738 12.6508 23.5471 12.523 23.4857 12.2367C23.468 12.1543 23.4762 12.0688 23.4762 11.9843C23.4762 9.96374 23.4762 7.94213 23.4762 5.92158C23.4762 5.58887 23.4762 5.58887 23.0317 5.58887C22.1945 5.58887 21.3574 5.59204 20.5202 5.58782C18.9632 5.57937 17.9024 4.7608 17.8888 3.55459C17.882 2.86383 17.8806 2.17306 17.8915 1.48335C17.8943 1.30484 17.8179 1.25731 17.5943 1.25837C12.7446 1.2626 7.89617 1.26048 3.04779 1.26365C2.09748 1.26365 1.48256 1.77381 1.48256 2.54907C1.4812 8.91597 1.48256 15.2818 1.48256 21.6487C1.48256 21.9265 1.4812 22.2043 1.48256 22.4821C1.48938 23.2394 2.11247 23.7316 3.09415 23.7358C4.68119 23.7421 6.26823 23.7379 7.85527 23.7379C7.96434 23.7379 8.07342 23.7347 8.18113 23.7453C8.42928 23.7696 8.5738 23.8858 8.59971 24.0748C8.62561 24.265 8.51381 24.4044 8.27657 24.4646Z" fill="#5A26E7"/>
<path d="M4.55985 7.47139C6.04872 7.46928 7.53759 7.47033 9.02647 7.47033C10.1786 7.47033 11.3307 7.47033 12.4828 7.47033C15.0583 7.47033 17.6338 7.47033 20.2094 7.47033C20.3184 7.47033 20.4289 7.464 20.5352 7.47667C20.7793 7.50413 20.9265 7.61821 20.9497 7.81044C20.9729 8.00161 20.857 8.13153 20.6279 8.20335C20.5025 8.24243 20.3703 8.22976 20.2407 8.22976C15.0679 8.23081 9.89497 8.23081 4.7221 8.23081C4.66756 8.23081 4.61302 8.23187 4.55848 8.23081C4.20944 8.22131 3.98584 8.07132 3.98584 7.84741C3.98584 7.62243 4.20672 7.47139 4.55985 7.47139Z" fill="#5A26E7"/>
<path d="M3.99139 5.20176C3.99821 5.01692 4.12638 4.88278 4.37316 4.84476C4.48905 4.8268 4.6104 4.82892 4.73038 4.82892C7.22683 4.82786 9.72465 4.82786 12.2211 4.82892C12.7201 4.82892 12.9587 4.94933 12.9655 5.20176C12.971 5.46371 12.7242 5.59045 12.2061 5.59045C10.9572 5.59045 9.70965 5.59045 8.46074 5.59045C7.21183 5.59045 5.96429 5.59151 4.71538 5.5894C4.58585 5.5894 4.45224 5.58728 4.32953 5.56088C4.10183 5.51124 3.98594 5.37604 3.99139 5.20176Z" fill="#5A26E7"/>
<path d="M4.33765 9.82782C4.43855 9.80353 4.55171 9.80353 4.65942 9.80353C9.86503 9.80247 15.0706 9.80247 20.2762 9.80353C20.3948 9.80353 20.5189 9.80458 20.6294 9.8331C20.8625 9.89436 20.9743 10.0327 20.9498 10.2239C20.9252 10.4161 20.7766 10.5281 20.5326 10.5556C20.4262 10.5672 20.3158 10.5608 20.2067 10.5608C17.6312 10.5608 15.0556 10.5608 12.4801 10.5608C9.89366 10.5608 7.30722 10.5608 4.72078 10.5608C4.62261 10.5608 4.52444 10.5661 4.42764 10.5566C4.16313 10.5323 4.01316 10.4035 3.99407 10.207C3.97362 10.0211 4.10178 9.8838 4.33765 9.82782Z" fill="#5A26E7"/>
</svg>
