<svg width="27" height="25" viewBox="0 0 27 25" fill="none" xmlns="http://www.w3.org/2000/svg">
<path d="M9.7338 17.0132C9.34538 16.6991 8.97462 16.3688 8.64237 16.0043C8.55249 15.9066 8.48347 15.9243 8.39359 16.0043C8.07258 16.2917 7.74997 16.5791 7.41933 16.8577C7.30055 16.9584 7.315 17.0265 7.42254 17.1228C7.7917 17.4547 8.15765 17.791 8.51557 18.1332C8.63595 18.2487 8.713 18.2339 8.82214 18.1243C9.11907 17.825 9.42564 17.5347 9.72739 17.2399C9.76109 17.2073 9.78998 17.1688 9.81245 17.1406C9.81085 17.0739 9.77072 17.0443 9.7338 17.0132Z" fill="#5A26E7"/>
<path d="M6.67281 17.8308C6.53157 17.693 6.4465 17.7108 6.30846 17.8338C5.38877 18.6501 4.46106 19.4575 3.53655 20.2693C2.99244 20.7478 2.44191 21.2219 1.91064 21.7122C1.55432 22.0411 1.47406 22.4411 1.66346 22.8752C1.83841 23.2737 2.28301 23.5448 2.73724 23.5433C3.05824 23.5196 3.34715 23.4248 3.57507 23.2026C3.92497 22.8633 4.27487 22.5256 4.62477 22.1863C5.66805 21.176 6.70812 20.1626 7.75782 19.1582C7.90228 19.0204 7.88623 18.9434 7.74819 18.8219C7.38064 18.5004 7.0195 18.1716 6.67281 17.8308Z" fill="#5A26E7"/>
<path d="M16.1523 3.40704C12.3195 3.50334 9.32765 6.03515 9.29876 9.9551C9.27147 13.5921 12.4655 16.3846 16.3658 16.4276C20.3896 16.3624 23.4793 13.4499 23.4103 9.90917C23.3285 5.75367 20.0285 3.31075 16.1523 3.40704ZM16.43 5.64553C17.7557 5.64553 18.8295 6.71662 18.8295 8.0366C18.8295 9.35659 17.7557 10.4277 16.43 10.4277C15.1042 10.4277 14.0304 9.35659 14.0304 8.0366C14.0304 6.71662 15.1058 5.64553 16.43 5.64553ZM20.5951 13.6321H12.2392C11.8765 13.6321 11.6229 13.3017 11.7432 12.9862C12.2745 11.5936 14.1653 10.564 16.4155 10.564C18.6658 10.564 20.5566 11.5936 21.0894 12.9862C21.2114 13.3017 20.9578 13.6321 20.5951 13.6321Z" fill="#5A26E7"/>
<path d="M16.3722 1.52734C11.2505 1.59401 7.33744 4.88433 7.27645 9.945C7.22027 14.5879 11.3196 18.296 16.3642 18.2886C21.4763 18.2812 25.4953 14.5183 25.4359 9.95241C25.3669 4.84433 21.433 1.60882 16.3722 1.52734ZM16.3658 17.3627C11.7674 17.373 8.28442 14.296 8.23145 9.82056C8.1833 5.74951 11.915 2.34215 16.369 2.38511C20.8198 2.35252 24.5387 5.77765 24.4777 9.84722C24.4135 14.2027 21.059 17.3523 16.3658 17.3627Z" fill="#5A26E7"/>
<path d="M14.3498 0.67664C9.49774 1.53144 6.19455 5.61879 6.17529 9.95206C6.16727 11.7461 6.70496 13.3994 7.76268 14.9046C7.87183 15.0601 7.83331 15.1446 7.7033 15.2572C7.18808 15.6972 6.68249 16.1446 6.17369 16.5905C4.51407 18.0482 2.85124 19.5016 1.20125 20.9667C0.554421 21.5415 0.356999 22.2541 0.600967 23.0482C0.846539 23.8408 1.46288 24.2896 2.30392 24.5C2.59122 24.5 2.87853 24.5 3.16583 24.5C3.63932 24.38 4.05984 24.18 4.40172 23.8452C5.20745 23.0571 6.018 22.2719 6.82855 21.4852C8.05801 20.2927 9.29229 19.1045 10.5153 17.906C10.6775 17.7475 10.7786 17.7357 10.976 17.8527C12.3515 18.6705 13.8587 19.1534 15.491 19.2601C17.5583 19.3949 19.5116 18.9964 21.3157 18.0497C23.5307 16.8883 25.1084 15.2172 25.9735 12.9905C26.2464 12.2898 26.3893 11.5624 26.5 10.8276C26.5 10.2187 26.5 9.60985 26.5 9.00097C26.4567 8.75504 26.4165 8.50912 26.37 8.26468C25.4246 3.27512 20.2243 -0.357419 14.3498 0.67664ZM7.75626 19.1593C6.70656 20.1638 5.66649 21.1771 4.62321 22.1874C4.27331 22.5267 3.92341 22.8645 3.57351 23.2037C3.3456 23.4259 3.05829 23.5193 2.73568 23.5445C2.28145 23.5459 1.83685 23.2748 1.6619 22.8763C1.47251 22.4423 1.55276 22.0408 1.90908 21.7134C2.44035 21.223 2.99088 20.7489 3.53499 20.2704C4.4595 19.4586 5.38722 18.6512 6.30691 17.8349C6.44494 17.712 6.53001 17.6927 6.67125 17.8319C7.01955 18.1727 7.37908 18.5016 7.74663 18.8245C7.88467 18.946 7.90072 19.0216 7.75626 19.1593ZM9.72726 17.2423C9.42551 17.5371 9.11895 17.8275 8.82202 18.1268C8.71287 18.2364 8.63583 18.2512 8.51545 18.1356C8.15753 17.7934 7.79158 17.4586 7.42241 17.1253C7.31488 17.029 7.30043 16.9594 7.4192 16.8601C7.74984 16.5801 8.07246 16.2942 8.39347 16.0068C8.48335 15.9253 8.55237 15.9075 8.64225 16.0068C8.9745 16.3727 9.34526 16.7016 9.73368 17.0157C9.7706 17.0468 9.81233 17.0764 9.81233 17.1446C9.78825 17.1697 9.76097 17.2083 9.72726 17.2423ZM16.3625 18.2897C11.3179 18.2971 7.21857 14.589 7.27475 9.94614C7.33574 4.88547 11.2488 1.59515 16.3722 1.527C21.4329 1.60848 25.3668 4.84399 25.4342 9.95354C25.4936 14.5194 21.4746 18.2808 16.3625 18.2897Z" fill="#5A26E7"/>
</svg>
