<svg width="27" height="25" viewBox="0 0 27 25" fill="none" xmlns="http://www.w3.org/2000/svg">
<path d="M26.4161 22.5507C25.9731 21.2937 25.1905 20.1341 24.142 19.1289C24.0513 19.2855 23.9521 19.4379 23.8382 19.5796C23.7369 19.7066 23.6272 19.8293 23.5661 19.9796C23.4986 20.1446 23.4986 20.3287 23.4986 20.5065C23.5007 21.4461 23.5049 22.3856 23.507 23.3252C23.5091 23.7399 23.4648 24.2351 23.0998 24.4319C23.0366 24.4657 22.9733 24.4827 22.9058 24.4933H25.0428C26.0491 24.4911 26.7495 23.4966 26.4161 22.5507Z" fill="#5A26E7"/>
<path d="M17.7709 23.272C17.7814 22.506 17.792 21.74 17.8025 20.9739C17.8067 20.7136 17.8089 20.4512 17.7456 20.1994C17.5958 19.5984 17.1443 19.1519 16.9038 18.5954C16.6971 18.1108 16.6148 17.5374 16.638 17.0126C16.6591 16.5301 16.773 16.0518 16.9608 15.6075C15.8575 15.3916 14.6972 15.2773 13.4989 15.2773C7.27984 15.2773 2.05436 18.3711 0.583973 22.5525C0.250657 23.5006 0.951044 24.493 1.9531 24.493H18.351C18.3046 24.4846 18.2603 24.4697 18.216 24.4486C17.8152 24.2602 17.7646 23.7164 17.7709 23.272Z" fill="#5A26E7"/>
<path d="M20.9564 23.4734C20.8467 23.3993 20.7265 23.321 20.5957 23.3358C20.5028 23.3443 20.4206 23.3993 20.3425 23.4543C20.0029 23.6892 19.6611 23.922 19.3215 24.1569C19.1084 24.3029 18.8616 24.451 18.6147 24.4933H22.6715C22.4205 24.451 22.1652 24.3008 21.9479 24.1526C21.6167 23.9241 21.2876 23.6998 20.9564 23.4734Z" fill="#5A26E7"/>
<path d="M13.5349 14.8642C17.1972 14.8642 20.1675 11.6498 20.1675 7.68209C20.1675 3.71649 17.1993 0.5 13.5349 0.5C9.87263 0.5 6.90442 3.71438 6.90442 7.68209C6.90442 11.6498 9.87263 14.8642 13.5349 14.8642Z" fill="#5A26E7"/>
<path d="M23.5111 23.3221C23.509 22.3825 23.5048 21.4429 23.5027 20.5034C23.5027 20.3256 23.5027 20.1415 23.5702 19.9765C23.6314 19.8262 23.7411 19.7035 23.8423 19.5765C23.9541 19.4348 24.0554 19.2824 24.1461 19.1258C24.2664 18.9184 24.3676 18.7005 24.4457 18.474C24.4963 18.3259 24.5385 18.1651 24.509 18.0106C24.4858 17.8858 24.4014 17.7651 24.2896 17.7186C24.2621 17.7059 24.2326 17.6995 24.2031 17.6974C23.9394 17.6784 23.8044 17.9979 23.7158 18.2497C23.6736 18.3704 23.6208 18.4889 23.5639 18.6031C23.0681 19.6019 22.0386 20.3278 20.9269 20.4272C19.6864 20.5373 18.4101 19.8622 17.8004 18.7724C17.292 17.8625 17.2709 16.7071 17.7076 15.7654C17.7941 15.5792 17.8975 15.3993 18.0198 15.2343C18.7582 14.2291 20.1083 13.717 21.3256 13.9773C22.5428 14.2397 23.5639 15.2618 23.8276 16.4828C23.8571 16.6203 23.8782 16.7642 23.9478 16.8891C24.0153 17.0139 24.144 17.1155 24.2832 17.107C24.4267 17.0986 24.5427 16.9737 24.5849 16.8341C24.6271 16.6965 24.6081 16.5463 24.5807 16.4045C24.3718 15.2893 23.6419 14.4048 22.7538 13.7403C22.2728 13.3806 21.8066 13.2261 21.2053 13.1711C20.6252 13.1182 20.0366 13.1774 19.4797 13.3488C18.9375 13.516 18.4249 13.789 17.9945 14.1635C17.5452 14.555 17.1992 15.0544 16.9672 15.6046C16.7794 16.0511 16.6655 16.5272 16.6444 17.0097C16.6233 17.5345 16.7035 18.108 16.9102 18.5925C17.1486 19.1512 17.6021 19.5977 17.7519 20.1966C17.8152 20.4484 17.811 20.7108 17.8089 20.9711C17.7983 21.7371 17.7878 22.5031 17.7772 23.2692C17.7709 23.7135 17.8215 24.2553 18.2245 24.4436C18.2688 24.4648 18.3131 24.4775 18.3595 24.488C18.446 24.505 18.5325 24.5028 18.6211 24.488C18.8679 24.4457 19.1147 24.2976 19.3278 24.1516C19.6674 23.9188 20.0092 23.6839 20.3488 23.449C20.4269 23.3961 20.5092 23.3411 20.602 23.3305C20.7328 23.3178 20.853 23.394 20.9627 23.4681C21.2918 23.6924 21.623 23.9188 21.9521 24.1431C22.1694 24.2912 22.4247 24.4415 22.6757 24.4838C22.7559 24.4965 22.8361 24.4965 22.9162 24.4838C22.9816 24.4732 23.047 24.4563 23.1103 24.4224C23.4668 24.232 23.5111 23.7368 23.5111 23.3221ZM21.2159 22.7444C20.7454 22.4312 20.5303 22.4333 20.0662 22.7401C19.6252 23.0321 19.1843 23.3263 18.7413 23.6162C18.6865 23.6522 18.6316 23.7262 18.5578 23.6818C18.4945 23.6458 18.5219 23.5675 18.5219 23.5083C18.5198 22.611 18.5219 21.7138 18.5198 20.8187C18.5198 20.6579 18.5409 20.6071 18.7118 20.696C19.9881 21.3625 21.2728 21.3668 22.5534 20.7023C22.6821 20.6367 22.7453 20.6219 22.7453 20.8039C22.7411 21.7477 22.7432 22.6915 22.7411 23.6352C22.7411 23.6564 22.7306 23.6797 22.7158 23.7389C22.199 23.3982 21.7074 23.0702 21.2159 22.7444Z" fill="#5A26E7"/>
<path d="M18.6062 17.4336C18.8805 17.7553 19.1294 18.06 18.9733 18.4176C18.8805 19.2217 19.5281 19.5815 19.9247 19.3804C20.4141 19.1307 20.8593 19.154 21.3571 19.3783C21.8149 19.5836 22.2938 19.2006 22.3022 18.6927C22.3043 18.5594 22.3128 18.4261 22.2938 18.2949C22.2664 18.0875 22.3001 17.9097 22.4035 17.751C22.4373 17.6981 22.4816 17.6473 22.5301 17.5987C23.1693 16.9787 22.9267 16.2253 22.0533 16.0984C21.739 16.0518 21.5259 15.8952 21.3993 15.6116C21.3803 15.5693 21.3508 15.5312 21.3255 15.4931C20.9394 14.8922 20.3108 14.8774 19.95 15.4953C19.7327 15.8698 19.469 16.1089 19.0345 16.1449C19.0324 16.1449 19.0324 16.1449 19.0303 16.147C19.0239 16.1491 19.0176 16.1513 19.0113 16.1513C18.3763 16.3311 18.1738 16.9279 18.6062 17.4336ZM20.4985 16.0243C20.5829 15.8423 20.6736 15.8233 20.7728 16.0158C20.8086 16.0857 20.8572 16.147 20.8951 16.2147C21.0597 16.5216 21.3023 16.7184 21.6525 16.7755C21.7369 16.7882 21.817 16.8263 21.9014 16.839C22.125 16.8707 22.1187 16.9617 21.9774 17.0972C21.9605 17.1141 21.9499 17.1374 21.9331 17.1522C21.8613 17.2157 21.8044 17.2834 21.7516 17.3532C21.5175 17.6706 21.4795 18.0494 21.5449 18.4536C21.5723 18.6229 21.5407 18.6779 21.374 18.5954C21.3192 18.5679 21.2559 18.553 21.201 18.5255C20.8297 18.3372 20.4669 18.3372 20.0829 18.5171C19.7138 18.6906 19.718 18.7096 19.7306 18.2716C19.7306 18.2399 19.7306 18.2102 19.7306 18.1341C19.8509 17.7214 19.5703 17.4252 19.3129 17.1183C19.1421 16.9131 19.1442 16.875 19.41 16.8369C19.6863 16.7988 19.9142 16.7014 20.0998 16.5491C20.2665 16.4137 20.3973 16.2401 20.4985 16.0243Z" fill="#5A26E7"/>
</svg>
